{
    "asset" : {
        "generator" : "Khronos glTF Blender I/O v1.1.45",
        "version" : "2.0"
    },
    "scene" : 0,
    "scenes" : [
        {
            "name" : "Scene",
            "nodes" : [
                0
            ]
        }
    ],
    "nodes" : [
        {
            "mesh" : 0,
            "name" : "Curve.006",
            "rotation" : [
                0.7046502232551575,
                0.0015732919564470649,
                0.0008857031352818012,
                0.7095525860786438
            ],
            "scale" : [
                11.420413970947266,
                11.420413970947266,
                11.420413970947266
            ],
            "translation" : [
                0.029958009719848633,
                -0.0009840279817581177,
                0.01245880126953125
            ]
        }
    ],
    "materials" : [
        {
            "doubleSided" : true,
            "name" : "SVGMat.001",
            "pbrMetallicRoughness" : {}
        }
    ],
    "meshes" : [
        {
            "name" : "Curve.007",
            "primitives" : [
                {
                    "attributes" : {
                        "POSITION" : 0,
                        "NORMAL" : 1,
                        "TEXCOORD_0" : 2
                    },
                    "indices" : 3,
                    "material" : 0
                }
            ]
        }
    ],
    "accessors" : [
        {
            "bufferView" : 0,
            "componentType" : 5126,
            "count" : 19847,
            "max" : [
                0.08082073926925659,
                0.0060686711221933365,
                0.04717746376991272
            ],
            "min" : [
                -0.08019034564495087,
                -0.0059495847672224045,
                -0.04729814827442169
            ],
            "type" : "VEC3"
        },
        {
            "bufferView" : 1,
            "componentType" : 5126,
            "count" : 19847,
            "type" : "VEC3"
        },
        {
            "bufferView" : 2,
            "componentType" : 5126,
            "count" : 19847,
            "type" : "VEC2"
        },
        {
            "bufferView" : 3,
            "componentType" : 5123,
            "count" : 35688,
            "type" : "SCALAR"
        }
    ],
    "bufferViews" : [
        {
            "buffer" : 0,
            "byteLength" : 238164,
            "byteOffset" : 0
        },
        {
            "buffer" : 0,
            "byteLength" : 238164,
            "byteOffset" : 238164
        },
        {
            "buffer" : 0,
            "byteLength" : 158776,
            "byteOffset" : 476328
        },
        {
            "buffer" : 0,
            "byteLength" : 71376,
            "byteOffset" : 635104
        }
    ],
    "buffers" : [
        {
            "byteLength" : 706480,
            "uri" : "data:application/octet-stream;base64,"
        }
    ]
}
