<?xml version="1.0" encoding="utf-8"?>
<!-- Generator: Adobe Illustrator 26.1.0, SVG Export Plug-In . SVG Version: 6.00 Build 0)  -->
<svg version="1.1" id="Layer_1" xmlns="http://www.w3.org/2000/svg" xmlns:xlink="http://www.w3.org/1999/xlink" x="0px" y="0px"
	 viewBox="0 0 234.77 386.63" style="enable-background:new 0 0 234.77 386.63;" xml:space="preserve">
<path d="M223.72,99.53c-3.12,0.74-3.86,3.62-6,5.41c-0.24-3.82-0.16-7.27-0.74-10.61c-0.59-3.37-1.19-7-2.96-9.81
	c-1.73-2.76-3.12-5.72-4.98-8.38c-3.99-5.72-6.47-12.2-9.75-18.27c-2.42-4.48-4.63-9.06-7.76-13.12c-0.89-1.16-1.72-2.37-3.78-2.49
	c-0.62,0.62-1.48,1.32-2.14,2.16c-1.6,2.05-3.41,4.02-4.58,6.29c-1.14,2.21-1.59,4.74-2.41,7.31c-2.36-3.69-4.34-7.28-6.82-10.52
	c-2.49-3.26-4.97-6.62-8.37-9.17c-1.37,1.32-2.52,2.42-3.79,3.65c-0.78-0.73-1.34-1.18-1.82-1.71c-3.43-3.8-6.82-7.62-10.26-11.41
	c-5.34-5.88-11.44-6.75-18.53-2.71c-0.94,0.53-1.93,0.97-3.05,1.52c-2.56-3.44-4.83-6.71-7.34-9.79c-2.53-3.1-5.02-6.34-8.06-8.93
	c-3.75-3.18-7.87-6.34-13.61-3.76c-0.29,0.13-0.7-0.03-1.06-0.05c-0.74-0.96-1.48-1.92-2.29-2.97c-1.09,0.49-2.03,0.73-2.74,1.27
	c-1.04,0.79-1.87,1.84-2.86,2.69c-1.38,1.18-2.58,1.14-3.98-0.08c-0.41-0.36-0.75-0.8-1.07-1.24c-1.2-1.6-2.76-1.67-4.48-0.86
	c-2.7,1.28-5.37,2.6-8.03,3.9C67.81,5.65,69.22,0.99,65.12,0c-4.39,2.02-6.38,3.67-9.53,7.66c-3.99,5.07-6.4,10.83-8.27,16.85
	c-0.64,2.06-0.86,4.31-2.86,6.52c-3.52-3.32-7.35-6.02-10.03-9.76c-2.41,0.56-3.25,2.33-4.19,3.86c-4.9,7.96-7.19,16.63-6.9,25.74
	c0.2,6.36,1.05,12.7,1.73,19.03c0.24,2.21,0.3,4.32-0.51,6.47c-2.94,7.84-4.24,15.95-4.74,24.2c-0.07,1.22-0.48,2.42-0.78,3.84
	c-4.63-0.67-8.19-2.83-11.94-5.26c-2.81,4.89-4.56,9.84-4.61,14.9c-0.09,7.85,1.14,15.61,3.28,23.18c0.74,2.61,1.43,5.26,1.76,7.94
	c0.51,4.15,0.59,8.36,1.04,12.52c0.47,4.34,0.97,8.68,1.8,12.96c0.8,4.1,2.09,8.1,3.07,12.17c0.28,1.14,0.21,2.37,0.34,4.17
	c-4.16-1.85-7.57-4.06-12-4.33c-0.38,1.65-0.68,3.05-1.04,4.43c-2.13,8.16,0.36,15,5.58,21.27c2.55,3.07,4.5,6.61,6.78,9.91
	c2.28,3.29,4.44,6.68,7,9.75c1.98,2.36,4.49,4.3,6.78,6.41c2.16,1.99,4.74,3.35,7.27,4.85c2.58,1.53,4.32,4.36,6.44,6.61
	c0.25,0.26,0.6,0.43,0.89,0.64c7.15,5.26,22.98,10.03,32.73,9.7c6.95-0.24,13.9-0.6,20.84-1.08c6.06-0.42,11.88-1.81,17.29-4.8
	c1.75-0.97,3.57-2.06,6.02-1.94c0.25,0.95,0.43,1.8,0.69,2.62c1.19,3.81,2.11,7.73,3.66,11.39c2.9,6.89,6.77,13.28,11.48,19.16
	c2.64,3.29,4.87,6.81,6.66,10.62c2.18,4.62,4.67,9.04,8.04,12.96c1.02,1.19,2.15,2.5,1.9,4.58c-0.73,0.04-1.45,0.19-2.14,0.11
	c-6.49-0.74-12.94-2.08-19.57-0.75c-1.85,0.37-3.15-0.73-4.58-1.61c-3.77-2.3-7.6-4.5-11.46-6.66c-0.78-0.43-1.77-0.51-2.67-0.74
	c-3.63-0.9-6.5,1.09-9.68,2.42c-0.86,2.1-1.48,4.25-2.57,6.14c-1.26,2.18-0.8,3.82,0.81,5.38c1.18,1.15,2.38,2.26,2.74,3.98
	c1.32,6.33,5.57,10.44,10.92,13.75c2.52,1.56,5,3.29,8.04,3.62c5.35,0.58,10.01,2.64,14.6,5.14c3.41,1.85,7.06,3.04,11.26,2.5
	c3.14-0.4,6.38-0.22,9.55-0.05c4.27,0.23,8.56,0.46,12.56,1.41c2.98,4.57,4.28,9.52,5.92,14.33c2.64,7.74,5.04,15.56,9.05,22.76
	c0.96,1.73,2.06,2.83,4.17,3.09c3.34,0.41,6.63,1.26,9.98,1.52c4.66,0.36,9.38,0.68,14.04,0.39c7.16-0.45,12.96-3.64,16.78-9.83
	c1.17-1.9,2.42-3.76,3.4-5.75c2.72-5.54,3.47-11.21,1.13-16.99c-0.7-1.74-1.55-3.35-3.64-3.76c-1.84-0.36-2.84-1.65-3.76-3.01
	c-1.03-1.5-1.84-3.16-2.96-4.59c-1.63-2.09-2.43-4.38-2.67-7.01c-1.1-11.95-4.49-23.18-10.82-33.44c-0.19-0.31-0.4-0.61-0.55-0.94
	c-2.65-5.98-5.29-11.97-7.93-17.96c-0.92-2.08-1.05-4.25-0.49-6.43c1.92-7.47,3.95-14.9,6.8-22.12c2.7-6.86,5.69-13.65,6.7-20.99
	c0.25-1.81,0.4-3.67,0.95-5.4c0.65-2.03,0.4-3.99,0.19-5.96c-0.21-2-1.3-3-3.21-3c-0.93,0-1.88,0.12-2.79,0.32
	c-3.75,0.84-7.09,2.43-9.8,5.24c-3.4,3.52-6.33,7.35-8.78,11.54c-0.8,1.37-1.35,3.08-3.65,3.44c-2.57-3.31-5.6-6.39-8.07-10.37
	c1.67-1.01,3.07-1.91,4.52-2.71c6.11-3.34,12.28-6.63,17.09-11.72c2.63-2.78,5.88-5.33,5.97-9.68c0.01-0.72,0.9-1.57,1.56-2.16
	c4.62-4.09,9.39-8.03,13.93-12.2c4.67-4.29,7.7-9.54,8.92-15.68c1.14-5.75,2.34-11.5,3.37-17.26c0.81-4.5,1.12-8.97,0.38-13.57
	c-0.86-5.37-1.42-10.87-1.25-16.31c0.15-4.67-0.44-9.06-1.82-13.42c-0.19-0.61-0.66-1.13-1.03-1.73c-1.18,0.71-2.05,1.22-3.18,1.9
	C225.75,109.75,227.08,104.3,223.72,99.53z"/>
</svg>
