<?xml version="1.0" encoding="utf-8"?>
<!-- Generator: Adobe Illustrator 26.1.0, SVG Export Plug-In . SVG Version: 6.00 Build 0)  -->
<svg version="1.1" id="Layer_1" xmlns="http://www.w3.org/2000/svg" xmlns:xlink="http://www.w3.org/1999/xlink" x="0px" y="0px"
	 viewBox="0 0 296.25 404.2" style="enable-background:new 0 0 296.25 404.2;" xml:space="preserve">
<path d="M163.11,104.18c0.22,1.07,0.28,1.62,0.47,2.12c0.2,0.52,0.85,1.07,0.75,1.47c-0.56,2.35,0.51,4.69-0.02,7
	c-0.56,2.44-0.49,4.87,0.55,7.09c1.22,2.59,1.06,5.25,0.83,7.88c-0.22,2.57-0.26,4.99,0.48,7.55c0.61,2.12,0.43,4.47,0.51,6.72
	c0.1,2.69-0.17,5.43,0.23,8.08c0.66,4.31-0.22,8.5-0.64,12.7c-0.38,3.77-1.59,7.47-2.46,11.18c-0.81,3.45-1.66,6.89-2.53,10.32
	c-0.24,0.96-0.43,1.99-0.93,2.81c-1.75,2.88-3.19,5.91-5.18,8.69c-3.96,5.52-7.48,11.37-11.15,17.1c-0.53,0.82-0.89,1.75-1.34,2.65
	c2.79,3.87,6.2,6.37,10.84,7.06c2.67,0.4,5.35,0.79,7.95,1.48c2.45,0.65,4.93,1.45,7.16,2.63c4.25,2.24,6.56,5.72,5.9,10.79
	c-0.27,2.11-0.32,4.25-0.44,6.37c-0.13,2.51-0.97,4.7-2.81,6.46c-1.74,1.67-3.4,3.42-5.23,4.99c-4.39,3.78-8.85,7.48-13.29,11.21
	c0.4,1.16,1.4,0.8,2.16,0.79c3.47-0.02,6.78,0.67,9.92,2.09c4.81,2.18,7.35,5.93,7.88,11.22c0.71,7.08-1.14,13.5-4.6,19.56
	c-1.13,1.98-2.46,3.75-4.36,5.14c-2.27,1.67-4.34,3.64-6.45,5.52c-0.92,0.82-1.74,1.77-2.54,2.61c0.56,1.42,1.61,1.53,2.54,1.6
	c2.12,0.16,4.25,0.26,6.38,0.25c3.16-0.01,6.21,0.57,9.21,1.48c3.77,1.15,5.9,3.84,5.83,7.78c-0.02,1.27-0.35,2.5,0.31,3.69
	c-0.78,3.18-0.22,6.65-3,9.37c-5.67,5.53-8.87,12.75-12.64,19.56c-1.31,2.37-1.33,4.66-0.11,7.27c2.47,5.27,2.91,10.93,1.79,16.62
	c-0.47,2.37-0.27,4.43,0.98,6.49c0.66,1.08,0.89,2.41,1.55,3.49c1.89,3.1,1.51,6.53,1.6,9.89c0.01,0.35-0.38,0.71-0.67,1.21
	c-4.05-2.57-7.65-5.46-9.86-9.73c-0.84-1.62-1.27-3.38-1.6-5.23c-0.75-4.22-0.97-8.43-0.89-12.69c0.01-0.78-0.39-1.63-0.79-2.33
	c-2.24-3.92-2.76-8.31-3.43-12.63c-0.44-2.82,0.24-5.59,1.4-8.29c1.87-4.34,4.45-8.23,6.99-12.17c0.91-1.41,1.95-2.76,2.48-4.52
	c-1.07-0.83-2.23-0.58-3.3-0.69c-4.79-0.48-9.17-1.91-12.61-5.47c-2.96-3.06-4.96-6.52-4.69-10.99c0.07-1.11-0.22-2.24-0.28-3.37
	c-0.14-2.9,0.31-5.59,2.33-7.93c2.05-2.37,4.22-4.56,6.72-6.48c3.15-2.42,6.16-5.03,9.1-7.7c1.45-1.31,2.62-2.94,4.13-4.67
	c-0.86-0.63-1.44-1.35-2.13-1.5c-2.21-0.48-4.46-0.78-6.71-1.09c-2.39-0.33-4.79-0.55-7.17-0.92c-2.89-0.44-5.43-1.56-7.31-3.94
	c-0.96-1.22-1.95-2.42-3.01-3.57c-1.16-1.25-1.45-2.73-1.32-4.34c0.15-1.98,0.28-3.97,0.56-5.93c0.14-0.95,0.44-1.96,0.94-2.77
	c0.97-1.56,1.92-3.22,3.24-4.45c3.84-3.58,7.64-7.21,12.05-10.11c2.74-1.8,5.18-3.9,6.9-6.64c-0.44-1.17-1.45-0.94-2.17-1.19
	c-0.79-0.28-1.66-0.35-2.49-0.53c-3.87-0.83-7.83-1.25-11.48-3.02c-5.78-2.8-10.49-6.87-13.75-12.34
	c-3.15-5.28-3.68-10.85-0.74-16.62c2.27-4.46,4.8-8.71,8.14-12.4c1.6-1.77,3.59-3.17,5.58-4.9c-0.34-0.51-0.65-1.11-1.09-1.61
	c-4.04-4.64-6.07-10.17-7.24-16.1c-0.78-3.92-1.07-7.87-0.61-11.86c1.05-9.09,0.69-18.12-0.9-27.15c-0.64-3.61-0.64-7.35-0.8-11.03
	c-0.19-4.26-0.06-8.53-0.42-12.77c-0.44-5.23-1.24-10.42-1.89-15.63c-0.18-1.41-0.41-2.81-0.56-4.22c-0.17-1.58-0.57-3.05-1.65-4.44
	c-3.51-0.37-6.95-0.53-10.49,0.37c-7.3,1.86-14.19,4.72-21.08,7.7c-7.93,3.43-16.02,6.46-24.3,9c-4.92,1.51-9.95,2.23-14.96,2.96
	c-3.47,0.5-7.08,0.16-10.62,0.01c-6.6-0.28-12.81-2.24-18.88-4.71c-2.49-1.01-5.07-1.75-7.32-3.34c-2.05-1.45-4.02-3.05-6.42-3.98
	c-0.61-0.24-1.09-0.89-1.56-1.42c-3.99-4.56-6.74-9.77-8.11-15.7c-0.64-2.75-1.43-5.46-2.01-8.22C2.17,69.44,2,67.87,2.02,66.33
	c0.04-5.96-0.29-11.87-1.65-17.69c-0.46-1.97,0.01-3.99-0.28-5.88c-0.32-2.12,0.27-3.85,0.76-5.76c0.63-2.47,1.06-5,1.35-7.53
	c0.46-4.08,2.5-7.5,4.34-11c0.45-0.85,1.22-1.59,2-2.18c4.41-3.33,8.66-6.95,13.84-9.09C28.68,4.6,35.1,2.33,41.73,0.7
	c3.94-0.97,7.9-0.87,11.82-0.06c2.78,0.57,5.56,1.22,8.23,2.15c9.01,3.13,18.37,4.79,27.67,6.74c7.24,1.52,14.56,2.4,21.88,3.2
	c4.07,0.44,8.22,0.27,12.33,0.23c3.32-0.04,6.35-1.34,9.4-2.52c3.7-1.44,7.39-2.89,11.12-4.25c6.6-2.4,12.86-1.08,18.89,1.97
	c3.29,1.66,6.55,3.4,9.79,5.15c3.64,1.97,7.49,3.39,11.43,4.6c9.62,2.95,19.29,2.67,29.02,0.55c11.08-2.41,22.03-5.42,33.21-7.39
	c8.59-1.51,16.92-0.63,25.27,1.51c9.21,2.36,15.8,8.11,20.91,15.77c2.22,3.34,3.6,7.07,3.42,11.22c-0.05,1.13,0.04,2.27,0.08,3.41
	c0.16,4.85-0.05,9.64-1.61,14.31c-0.49,1.47-0.91,3.03-0.98,4.57c-0.12,2.66-1.15,5.02-2.4,7.2c-0.83,1.45-0.92,2.73-0.97,4.3
	c-0.05,1.38,0.11,2.46,0.86,3.54c2.23,3.23,1.58,6.49-0.12,9.63c-1.23,2.28-3.12,4.02-5.45,5.23c-5.19,2.69-10.59,3.72-16.45,2.67
	c-4.08-0.73-8.03-1.69-11.78-3.46c-3.36-1.59-7.03-2.01-10.58-2.92c-4.03-1.04-8.17-1.2-12.23-1.23c-3.91-0.03-7.92,0.35-11.78,1.41
	c-6.71,1.83-13.3,3.85-19.45,7.28c-3.82,2.13-7.84,3.92-11.6,6.22c-4.07,2.48-8.59,3.85-13.32,3.96c-3.08,0.07-6.19-0.58-9.25-1.11
	C167.27,104.26,165.48,104.13,163.11,104.18z"/>
</svg>
