<svg
	version="1.1"
	id="Layer_1"
	xmlns="http://www.w3.org/2000/svg"
	x="0px"
	y="0px"
	viewBox="0 0 381.3 416.91"
	xmlSpace="preserve"
>
	<path
		className="st0"
		d="M-486.3,473.28c-0.13-0.15-0.25-0.32-0.41-0.45c-0.03-0.03-0.28,0.1-0.28,0.15c0,0.18,0.06,0.37,0.1,0.56
C-486.69,473.46-486.49,473.37-486.3,473.28z"
	/>
	<polygon
		className="st0"
		points="-489.7,472.01 -489.98,471.85 -490.02,472.1 "
	/>
	<path
		d="M-486.3,473.29c-0.19,0.09-0.39,0.17-0.58,0.26c-0.04-0.19-0.1-0.37-0.1-0.56c0-0.05,0.24-0.18,0.28-0.15
C-486.55,472.96-486.43,473.13-486.3,473.29z"
	/>
	<polygon points="-489.7,472.01 -490.02,472.1 -489.98,471.85 " />
	<g>
		<path
			fill="#172E4B"
			className="st0"
			d="M217.45,99.16l0.04,0.06c0.11-0.52,0.67-1.12-0.39-1.6c-0.46,2.15-0.91,4.22-1.35,6.26
	c0.44,0.46,1.05,0.83,1.2,1.33c0.28,0.95-0.52,1.26-1.27,1.49l0.01,0c-0.07-0.06-0.17-0.19-0.21-0.17
	c-0.1,0.03-0.25,0.13-0.26,0.22c-0.45,2.79-0.88,5.59-1.32,8.38l0.09-0.11c-0.47,1.43-1.05,2.83-1.38,4.29
	c-0.7,3.08-1.1,6.23-1.93,9.26c-0.97,3.53-1.34,7.11-1.74,10.9c1.4-0.11,1.34-0.95,1.43-1.81c0.11-0.99,0.38-1.97,0.63-2.93
	c0.2-0.75-0.28-1.8,0.94-2.29c0.13,0.43,0.39,0.8,0.33,1.1c-0.75,3.59-1.51,7.18-2.36,10.74c-0.2,0.84-0.73,1.59-1.12,2.4
	c0.14-1.35,0.31-2.69,0.41-4.04c0.03-0.47-0.02-1.03-0.96-0.71c-0.28,2.66-1.07,5.25-2.4,7.69c-0.35,0.64,0.15,1.16,1.07,1.27
	c0.64-1.42,1.3-2.87,1.96-4.33c-0.47,2.36-0.76,4.77-2.15,6.85c-0.14,0.21-0.23,0.46-0.29,0.7c-0.23,0.82,0.55,1.92,1.4,1.88
	c0.87-0.04,1.73-0.2,2.66-0.31c1.44-1.45,3.3-2.56,4.35-4.56c2.26-4.28,4.19-8.69,5.35-13.39c2.36-9.6,4.57-19.24,7.03-28.81
	c1.86-7.23,3.42-14.57,6.4-21.47c0.6-1.4,1.12-2.83,1.65-4.25c1.81-4.78,2.61-9.78,3.23-14.82c0.1-0.84,0.2-2.02-0.27-2.54
	c-1.42-1.56-1.51-3.46-1.81-5.3c-0.35-2.16-1.09-4.16-2-6.12c-0.56-1.21-1.53-2.05-2.72-2.52c-0.51-0.2-1.21,0.05-1.65,0.08
	c-1.63,2.28-2.09,4.55-1.04,6.97c-0.73,0.35-1.26,0.6-1.73,0.82c-0.17,1.58-0.13,3.14-0.55,4.56c-0.86,2.94-2.47,5.52-4.8,7.51
	c-0.88,0.75-1.24,1.51-1.29,2.57c-0.11,2.52,0.09,5.05-0.57,7.55c-0.45,1.7-0.47,3.54-1.02,5.2c-0.54,1.62,0.49,3.46-0.85,4.93
	c-0.12,0.13,0.09,0.77,0.33,0.96c0.58,0.48,0.65,1.03,0.51,1.7c-0.26,1.24-0.46,2.49-0.78,3.71
	C218.2,98.74,217.74,98.93,217.45,99.16z" 
		/>
		<path
			fill="#172E4B"
			className="st0"
			d="M187.79,55.11c0.06-0.2,0.12-0.39,0.18-0.59c-0.06,0.19-0.13,0.38-0.19,0.57c0.04,0.37,0.08,0.73,0.12,1.1
	c-0.53-0.55-1.01-1.24-0.9-1.83c0.34-1.85-0.25-3.41-1.04-5c-0.38-0.77-0.62-1.7-0.6-2.55c0.07-2.66-1.38-4.81-2.3-7.11
	c-0.59-1.48-1.61-2.92-3.23-3.54c-0.64-0.25-1.49-0.28-2.14-0.08c-0.83,0.26-0.94,1.18-0.81,1.92c0.27,1.61,0.66,3.2,1,4.79
	l0.01-0.05c-0.56,0.49-1.13,0.97-1.62,1.41c0.23,1.67,0.36,3.17,0.64,4.65c0.74,3.85,0.3,7.53-1.41,11.08
	c-1.87,3.89-2.41,7.96-1.51,12.21c0.18,0.86,0.15,1.76,0.22,2.65c0.2,2.5-0.14,5.15,2.01,7.1c0.17,0.15,0.26,0.45,0.28,0.69
	c0.25,2.53,1.78,4.76,1.65,7.39c-0.03,0.6,0.15,1.28,0.43,1.82c1.06,2.01,1.26,4.09,0.74,6.28c-0.12,0.48-0.07,1.01-0.05,1.52
	c0.11,3.41,0.25,6.82,0.36,10.23c0.02,0.51-0.01,1.02-0.02,1.52c-0.05,2.01-0.21,4.04-0.1,6.04c0.11,2.1,1.13,4.12,0.58,6.28
	c-0.03,0.11,0.01,0.3,0.09,0.36c1.32,0.99,0.74,2.47,1.09,3.7c0.37,1.29,0.41,2.37,0.21,3.67c-0.25,1.61-0.44,3.37-0.04,4.91
	c0.75,2.9,0.44,5.77,0.45,8.67c0.01,1.51-0.04,3.04,0.19,4.53c0.32,2.06,2.33,2.74,4.06,1.47c2.31-1.7,3.97-3.93,4.94-6.62
	c1.21-3.33,2.24-6.73,3.46-10.05c0.9-2.44,1.51-4.84,0.57-7.41c-0.17-0.45-0.1-0.99-0.11-1.49c-0.07-3.92-0.05-7.84-0.22-11.76
	c-0.09-2.15-0.16-4.39-0.83-6.39c-0.94-2.8-1.27-5.68-1.76-8.53c-0.96-5.62-1.75-11.28-2.6-16.92c-0.16-1.1-0.6-2.25,0.65-3.13
	c0.26-0.19,0.22-0.92,0.18-1.39c-0.23-3-0.58-6-0.74-9.01c-0.2-3.54-0.24-7.1-0.38-10.65C189.23,56.52,188.86,55.6,187.79,55.11z"
		/>
		<path
			fill="#172E4B"
			className="st0"
			d="M133.16,114.9c-0.08-0.37-0.08-0.78-0.26-1.09c-1.92-3.14-3.67-6.4-5.85-9.34c-2.67-3.59-4.55-7.6-6.73-11.45
	c-2.43-4.3-4.82-8.65-7.58-12.74c-3.18-4.72-6.76-9.19-10.77-13.27c-5.23-5.32-10.47-10.64-15.71-15.95
	c-0.27-0.27-0.54-0.54-0.85-0.75c-1.98-1.34-4.22-2.29-5.85-4.15c-0.22-0.25-1.03-0.26-1.38-0.05c-0.34,0.2-0.51,0.79-0.6,1.25
	c-0.07,0.35,0.04,0.77,0.16,1.12c0.98,2.74,1.91,5.5,3.01,8.19c1.49,3.62,3.29,7.12,3.39,11.18c0.02,0.95,0.51,1.97,1.03,2.81
	c2.25,3.67,4.57,7.31,6.92,10.92c0.97,1.49,2.12,2.85,3.12,4.32c4.76,7.04,9.45,14.13,14.26,21.13c3.24,4.72,7.07,8.93,11.13,12.98
	c2.96,2.95,5.63,6.19,8.27,9.43c2.81,3.44,5.31,7.12,8.16,10.52c3.5,4.18,6.91,8.46,9.73,13.1c1.77,2.91,4.42,4.24,7.01,6.06
	c0.88-1.21,1.6-2.2,2.23-3.05c-0.57-3.4-1.24-6.6-1.61-9.83c-0.23-2.03-1.3-3.52-2.43-5.04c-0.2-0.26-0.69-0.55-0.94-0.48
	c-1,0.28-1.36-0.4-1.8-1.02c-2.01-2.78-4.03-5.54-6.03-8.32c-1.26-1.75-2.6-3.45-3.71-5.29c-0.75-1.23-1.89-2.34-1.41-4.14
	c0.34-1.26-0.72-2.3-1.8-2.55c-1.75-0.41-2.51-1.55-3.08-3.02c0.34,0.01,0.68,0.02,1.02,0.03c-0.13-0.4-0.21-0.82-0.4-1.19
	C133.68,115.04,133.37,115,133.16,114.9z"
		/>
		<path
			fill="#172E4B"
			className="st0"
			d="M3.17,156.37c-0.69,0.27-0.6,0.9-0.27,1.22c1.71,1.67,3.34,3.52,5.3,4.84c2.73,1.84,5.43,3.62,7.78,5.98
	c1.96,1.97,4.14,3.76,6.44,5.32c2.93,1.98,6.08,3.66,9.14,5.44c1.53,0.89,3,2.03,4.65,2.55c2.58,0.8,4.85,2.15,7.2,3.39
	c0.89,0.47,1.82,0.87,2.75,1.28c1.97,0.85,3.96,1.66,5.92,2.53c1.27,0.56,2.48,1.23,3.76,1.76c3.15,1.3,6.36,2.46,9.47,3.84
	c3.12,1.39,6.12,3.02,9.21,4.47c2.06,0.97,4.19,1.8,6.28,2.7c1.85,0.8,3.68,1.65,5.54,2.45c2.08,0.9,4.26,1.55,6.37,2.38
	c2.21,0.88,4.32,2.02,6.72,2.53c3.56,0.76,6.98,2.13,10.51,3.04c3.06,0.79,6.18,1.42,9.3,1.88c2.37,0.35,3.55-0.59,4.17-2.89
	c0.29-1.08,0.43-2.2,0.63-3.26c-0.27-0.5-0.6-0.92-0.74-1.39c-0.61-2.1-1.79-3.57-4-4.18c-0.54-0.15-1.2-0.68-1.36-1.18
	c-0.51-1.6-1.81-2.03-3.15-2.45c-1.33-0.41-2.88-0.44-4-1.16c-2.81-1.82-6.08-2.5-9-4.01c-1.68-0.87-3.33-1.86-5.1-2.5
	c-3.71-1.33-7.24-3-10.68-4.88c-1.11-0.61-2.28-1.1-3.42-1.63c-1.49-0.69-2.99-1.35-4.46-2.06c-1.13-0.55-2.2-1.22-3.35-1.74
	c-2.99-1.34-6.25-2.24-8.94-4.02c-4.25-2.8-8.86-4.87-13.3-7.27c-5.46-2.94-10.95-5.83-16.5-8.61c-2.49-1.24-5.12-2.21-7.73-3.19
	c-1.26-0.47-2.65-0.15-3.97-0.99c-1.15-0.73-2.9-0.44-4.21-1c-1.93-0.83-3.91-0.93-5.92-1.11c-1.13-0.1-2.25-0.31-3.38-0.44
	c-2.63-0.32-5.24-0.45-8,0.36c0.11,0.77,0.2,1.38,0.28,1.98L3.17,156.37z"
		/>
		<path
			fill="#172E4B"
			className="st0"
			d="M322.11,323.84l0.13,0.12c-0.65-0.58-1.25-1.22-1.95-1.72c-1.54-1.09-2.13-1.86-2.98-3.82
	c-0.29-0.68-0.79-1.29-1.29-1.85c-1.35-1.5-2.81-2.92-4.13-4.45c-3.49-4-6.84-8.13-10.41-12.05c-3.74-4.11-7.7-8.02-11.53-12.04
	c-4.54-4.77-9-9.63-13.61-14.34c-3.46-3.54-7.11-6.88-10.64-10.35c-1.87-1.83-4.05-3.05-6.61-3.54c-2.11-0.4-4.3-0.47-6.33-1.12
	c-2.13-0.68-3.64,0.69-5.43,1.07c-1.35,0.29-1.72,1.7-2.52,2.8c0.31,0.68,0.55,1.4,0.93,2.02c0.53,0.86,1.19,1.64,1.74,2.5
	c4.5,6.93,9.8,13.2,15.51,19.16c1.84,1.92,3.34,4.15,5.66,5.59c0.31,0.19,0.67,0.49,0.77,0.81c0.5,1.6,1.93,2.29,3.04,3.29
	c0.84,0.76,1.83,1.46,2.39,2.41c0.8,1.35,1.91,2.33,3.02,3.37c1.76,1.64,3.5,3.32,5.06,5.13c1.62,1.87,4.06,3.07,4.76,5.72
	c0.06,0.21,0.31,0.41,0.52,0.54c3.21,2.08,5.33,5.34,8.35,7.63c0.59,0.45,1.3,1.06,1.44,1.71c0.29,1.3,1.36,1.89,2.18,2.5
	c1.66,1.22,2.98,2.7,4.27,4.25c0.9,1.08,1.79,2.16,3.27,2.46c0.7,0.14,1.05,0.58,1.15,1.31c0.06,0.48,0.15,1.1,0.47,1.39
	c2.1,1.94,3.02,4.91,5.71,6.37c0.82,0.44,1.22,1.59,1.94,2.28c0.79,0.76,1.89,1.24,2.55,2.09c0.48,0.62,0.76,1.15,1.64,1.31
	c0.84,0.15,1.65,0.58,2.41,1c1.94,1.08,3.84,2.23,5.7,3.32c2.38-2.28,2.38-2.28,0.33-4.56l-0.04,0.06c0.5-0.5,1.01-1,1.45-1.45
	c3.22,1.39,3.85,2.35,4.3,6.36c-0.55,0.33-1.66-0.2-1.62,0.98c0.02,0.64,0.27,1.23,1.27,1.03c0.08-0.69,0.16-1.41,0.24-2.13
	c0.56,0.13,0.95,0.65,1.73,0.22c0.95-0.54,2.1-0.71,3.16-1.03c-0.13,0.29-0.47,0.63,0.18,0.72c-0.09-0.22-0.17-0.44-0.26-0.66
	c-1.33-4.45-3.88-8.22-6.52-11.96l0.13,0.08c-0.89-1.19-1.66-2.5-2.71-3.54c-0.6-0.59-1.27-0.97-1.63-1.85
	c-0.41-1.01-1.07-2.04-1.9-2.74c-0.68-0.57-1.75-0.66-2.82-1.02c0.43-0.91,0.5-1.76-0.12-2.52
	C323.67,325.78,322.89,324.81,322.11,323.84z"
		/>
		<path
			fill="#172E4B"
			className="st0"
			d="M369.38,314.18c0.67-0.3,1.35-0.59,2.07-0.91c-0.19-0.58-0.34-1.03-0.51-1.52c0.79-0.73,1.58-1.46,2.39-2.21
	c-1.05-2.32-2.48-4.12-4.1-5.71c-2.35-2.31-4.74-4.59-7.3-6.66c-7.11-5.74-14.67-10.87-22.14-16.12c-7.5-5.26-15.4-9.77-23.51-14
	c-5.95-3.1-12.13-5.82-17.7-9.63c-5.89-4.03-12.26-7.12-18.89-9.72c-4.83-1.9-9.63-3.84-14.61-5.37
	c-3.49-1.07-6.99-1.42-10.51-0.89c-2.54,0.38-5.34,0.84-6.31,4.06c1.2,2.03,3.12,3.31,5.03,4.5c6.68,4.16,13.43,8.19,20.14,12.29
	c8.33,5.09,16.67,10.17,24.98,15.3c4.2,2.6,8.19,5.58,12.55,7.89c8.38,4.45,16.8,8.87,25.64,12.39c0.34,0.14,0.66,0.37,0.96,0.59
	c1.52,1.13,2.89,2.81,4.59,3.27c2.21,0.59,3.01,2.66,4.78,3.44c1.54,0.68,2.78,1.57,3.91,2.79c0.57,0.61,1.5,0.9,2.28,1.31
	c0.88,0.46,1.79,0.87,2.66,1.35c0.89,0.48,1.83,0.92,2.62,1.53c0.69,0.54,1.13,1.11,2.26,0.96c0.71-0.09,1.55,0.87,2.32,1.36
	c0.95-1.03,0.85-2.75,2.71-2.68c0.61,0.65,1.26,1.41,1.98,2.08c0.49,0.46,1.11,0.57,1.75,0.22L369.38,314.18z"
		/>
		<path
			fill="#172E4B"
			className="st0"
			d="M0.6,277.2c1.46,1.64,3.63,1.33,5.74,1.82c-1.22,1.05-2.21,1.91-3.52,3.04c3.95,1.45,7.4,2.91,11.3,2.85
	c10.45-0.16,20.77-1.17,30.84-4.18c5.46-1.63,10.98-3.11,16.5-4.54c5.52-1.44,11.12-2.57,16.61-4.13
	c11.1-3.16,22.01-6.91,32.86-10.82c1.74-0.63,3.37-1.79,4.82-2.97c1.76-1.43,2.19-3.57,1.3-5.55c-1.64-3.66-3.94-6.74-8.12-8
	c-3.99-1.2-7.98-1.35-12.05-0.83c-3.15,0.4-6.28,0.94-9.43,1.21c-6.46,0.54-12.82,1.72-19.18,2.86c-4.37,0.78-8.71,1.83-13.1,2.38
	c-8.32,1.04-16.58,2.35-24.78,4.07c-5.58,1.17-11.23,2.16-16.54,4.34c-1.64,0.67-3.38,1.29-4.75,2.34c-2.1,1.62-4.03,3.5-5.81,5.47
	c-0.76,0.85-0.97,2.19-1.44,3.31c0.36,0.83,1.94,0.07,1.89,1.44c-0.83,0.78-2.35,0.57-2.9,2.14c0.92-0.11,1.66-0.25,2.4-0.28
	c0.65-0.03,1.39-0.75,2.03,0.21c-0.69,1.08-1.8,1.28-2.92,1.42c-1.05,0.13-1.54,0.75-1.72,1.72c-0.2,0.17-0.4,0.35-0.6,0.52
	C0.2,277.09,0.4,277.15,0.6,277.2z"
		/>
		<path
			fill="#172E4B"
			className="st0"
			d="M194.71,274.27c4,0.31,7.98-0.55,11.93-1.5c7.99-1.93,15.45-5.03,21.82-10.36
	c6.79-5.68,12.39-12.4,16.87-20.01c2.97-5.05,5.31-10.41,6.7-16.13c0.96-3.94,1.66-7.95,2.64-11.88c0.53-2.14,0.52-4.15,0.25-6.35
	c-0.26-2.12-0.17-4.3-0.84-6.36c-1.15-3.5-2.67-6.83-4.62-9.99c-1.88-3.03-4.39-5.34-7.56-6.74c-3.54-1.56-6.57-3.74-9.54-6.17
	c-8.53-6.97-18.11-12.14-28.41-15.97c-2.72-1.01-5.56-1.75-8.39-2.4c-4.65-1.06-9.31-0.74-14-0.01c-6.57,1.01-12.87,2.81-18.82,5.8
	c-2.75,1.38-5.23,3.06-7.26,5.44c-1.15,1.34-2.59,2.42-3.9,3.62c-0.65,0.6-1.35,1.16-1.94,1.81c-2.3,2.54-4.56,5.12-6.83,7.68
	c-2.71,3.05-5.23,6.27-7.04,9.92c-2.03,4.1-3.57,8.33-2.96,13.14c0.39,3.11,0.71,6.32-0.4,9.43c-0.24,0.68-0.09,1.51-0.05,2.27
	c0.38,8.61,2.36,16.84,6.07,24.61c2.88,6.03,7.17,10.71,13.64,13.12c1.77,0.66,3.39,1.7,5.06,2.61c3.23,1.75,6.26,3.94,9.83,4.96
	c3.93,1.13,7.57,2.76,11.04,4.96C183,272.97,188.53,274.7,194.71,274.27z"
		/>
		<path
			fill="#172E4B"
			className="st0"
			d="M98.73,293.36c0.09,0.16,0.19,0.33,0.28,0.49c-0.93,1.2-1.73,2.54-2.81,3.59c-4.45,4.34-7.96,9.52-12.51,13.78
	c-3.2,3-5.09,7.26-9.08,9.51c-3.06,4.22-7.2,7.35-11.06,10.71c-3.58,3.12-6.41,6.84-9.53,10.33c-0.95,1.06-1.38,2.31-1.51,3.79
	c-0.36,4.16-1.38,8.2-2.67,12.17c0.41,0.2,0.82,0.4,1.16,0.57c-0.06,0.92-1.32,1.45-0.5,2.44c0.97,0.12,2.07-1.2,3.07,0.29
	c-0.9,0.96-1.74,1.86-2.6,2.79c1.18,0.96,0.62,2.11,0.62,2.97c2.34-0.32,4.59-0.59,6.82-0.94c0.73-0.12,1.53-0.3,2.12-0.7
	c3.75-2.57,7.48-5.19,10.65-8.47c3.07-3.18,5.99-6.51,9.01-9.73c1.38-1.48,3.02-2.75,4.26-4.33c3.84-4.9,8.52-9.02,12.54-13.75
	c3.2-3.76,6.76-7.22,9.96-10.98c4.68-5.51,9.2-11.14,13.74-16.77c1.75-2.17,3.42-4.4,5-6.7c2.66-3.86,5.2-7.81,7.82-11.7
	c0.85-1.26,1.89-2.4,2.67-3.7c0.83-1.38,0.64-3.09,1.21-4.57c0.17-0.45,0.3-0.92,0.45-1.4c-2.03-1.13-1.27-3.29-2.14-5.03
	c-1.26-0.52-2.63-1.09-3.77-1.57c-2.35,0.76-4.14,1.88-5.74,3.4c-0.82,0.78-1.83,1.36-2.81,1.96c-6.42,3.93-12.1,8.78-17.48,14.01
	c-0.6,0.58-1.14,1.74-2.13,1.2c-1.32-0.72,0.26-1.79-0.15-3.1c-0.39-0.62-1-1.58-1.53-2.42c-0.97-0.4-1.8-0.7-2.6-1.07
	c-4.59-2.12-9.3-2.33-14.1-0.89c-5.96,1.79-11.86,3.73-17.22,7.02c-1.62,0.99-3.3,1.91-5,2.76c-8.05,4.05-16.12,8.05-24.16,12.12
	c-3.5,1.77-6.96,3.64-10.4,5.55c-1.55,0.86-2.89,2.15-4.49,2.85c-2.74,1.2-4.7,3.34-7.01,4.99c0.48,1.25-0.12,2.06-0.55,2.99
	c-0.38,0.83-0.41,1.82-0.6,2.78c0.8,0.18,1.46,0.33,2.26,0.51c-0.79,0.67-1.97,1.24-1.95,1.76c0.05,1.5-1.88,0.51-1.9,1.6
	c0.51,0.72,1.7-0.36,1.85,1.15c-1.1,0.66-2.84,0.7-3.7,2.58c2.27,0.19,4.45,0.45,5.83,1.93c1.48,1.59,3.1,1.58,4.86,1.24
	c1.35-0.26,2.7-0.7,3.96-1.26c5.24-2.31,10.12-5.29,14.99-8.27c12.36-7.58,25.12-14.35,38.8-19.25c5.88-2.11,11.49-4.73,16.56-8.44
	C97.91,293.84,98.33,293.61,98.73,293.36z"
		/>
		<path
			fill="#172E4B"
			className="st0"
			d="M92.53,391.13c0.91,0.2,1.65,0.26,2.28,0.55c0.66,0.29,1.21,0.81,1.89,1.29c1.92-2.08,4.85-2.87,6.03-5.61
	c3.8-4.28,7.01-8.98,10.16-13.74c2.93-4.43,6.04-8.77,8.78-13.32c5.23-8.69,10.33-17.46,15.35-26.28
	c5.52-9.7,11.33-19.24,15.53-29.64c1.66-4.11,3.6-8.11,5.21-12.24c1.71-4.39,2.75-8.93,2.02-13.7c-1.2-0.69-2.17-1.42-2.05-2.97
	c0.03-0.42-0.27-1.03-0.61-1.29c-1.78-1.33-4.56-2.24-6.47,0.02c-0.89,1.06-1.98,1.96-3.08,2.82c-3.64,2.82-6.82,6.09-9.48,9.84
	c-2.57,3.62-5.04,7.31-7.52,11c-1.48,2.21-2.85,4.5-4.34,6.71c-6.1,9.06-12.02,18.22-17.59,27.62
	c-6.66,11.25-12.67,22.88-19.72,33.9c-0.61,0.96-1.19,1.98-1.54,3.05c-0.99,3.04-1.85,6.11,0.62,8.97
	c0.47,0.54,0.66,1.36,0.84,2.08c0.18,0.7,0.63,1.02,1.23,1.3c0.15,0.07,0.15,0.43,0.2,0.58c-0.36,0.7-0.7,1.35-1.2,2.31
	c0.64,0.3,1.22,0.58,1.68,0.79c-0.41,1.03-0.77,1.6-0.84,2.2c-0.08,0.66-1.1,1.18-0.27,2.04c1.27-0.41,2.59-0.64,4.18-0.71
	C93.33,389.61,93.01,390.23,92.53,391.13z"
		/>
		<path
			fill="#172E4B"
			className="st0"
			d="M146.68,406.01c1.87-1.07,3.75-2.08,5.56-3.21c3.94-2.47,6.26-6.29,7.95-10.42c1.87-4.56,4.02-9.02,5.29-13.82
	c0.55-2.08,1.05-4.18,1.68-6.24c2.57-8.38,4.34-16.94,5.96-25.54c1.34-7.1,2.45-14.24,3.72-21.36c1.07-5.99,2.37-11.94,3.29-17.96
	c0.84-5.51,1.52-11.07,1.34-16.67c-0.08-2.68-0.28-5.33-2.44-7.34c-0.36-0.34-0.57-0.84-0.84-1.26c-2.01-3.13-3.86-3.32-6.24-0.64
	c-0.17,0.19-0.33,0.39-0.48,0.59c-3.15,4.29-6.25,8.56-8.28,13.58c-3.1,7.67-5.94,15.37-7.45,23.53c-0.76,4.11-1.81,8.17-2.8,12.23
	c-1.02,4.19-2.17,8.35-3.17,12.54c-2.39,10.02-5.31,19.84-10.13,29.02c-2,3.82-3.57,7.85-4.74,12.02
	c-0.79,2.85-1.31,5.68-0.45,8.62c0.35,1.21,0.78,2.5,0.68,3.71c-0.18,1.97,1.14,2.98,2.17,4.17c0.79,0.92,2.24,1.04,2.89,2.2
	C142.56,403.28,144.23,404.94,146.68,406.01z"
		/>
		<path
			fill="#172E4B"
			className="st0"
			d="M198.94,280.34c-3.87,0.93-7.47,3.8-8.66,7.2c-2.29,6.5-3.95,13.12-3.55,20.12c0.14,2.4,0,4.82,0.03,7.23
	c0.06,5.2-0.1,10.39,0.53,15.59c1.11,9.16-0.15,18.24-1.32,27.31c-0.03,0.25-0.1,0.51-0.2,0.73c-0.81,1.67-0.82,3.44-0.61,5.22
	c0.67,5.74-0.03,11.4-0.95,17.05c-0.33,1.99-1.04,3.87-1.95,5.72c-2.58,5.24-4.74,10.61-5.73,16.47c-0.7,4.13,0.53,7.78,1.69,11.51
	c0.49,1.57,1.67,2.48,3.46,2.43c1.89-0.06,3.79-0.01,5.69-0.01c1.16-1.59,2.17-3.07,4.13-3.36c0.45-0.07,0.91-0.47,1.25-0.84
	c2.15-2.33,4.27-4.63,5.27-7.8c1.49-4.74,2.55-9.57,2.96-14.51c0.68-8.09,1.22-16.19,1.67-24.3c0.56-10.13,1.04-20.27,1.45-30.41
	c0.49-12.3,0.87-24.61,1.3-36.92c0.12-3.31-0.06-6.59-0.75-9.85C203.95,285.76,201.95,282.69,198.94,280.34z"
		/>
		<path
			fill="#172E4B"
			className="st0"
			d="M281.29,363.5c1.25-1.66,2.33-3.4,3.72-4.84c1.39-1.44,1.81-3.02,1.5-4.86c-0.62-3.75-1.24-7.48-2.5-11.11
	c-2.8-8.04-5.86-15.96-9.39-23.7c-2.48-5.42-5-10.83-7.74-16.12c-4.45-8.6-9.82-16.61-16.56-23.61c-3.1-3.22-6.64-5.9-10.6-7.97
	c-1.77-0.93-3.78-1.43-5.71-2.01c-1.15-0.35-1.76,0.09-2.38,1.28c-0.9,1.73-1.11,3.5-0.98,5.49c0.34,5.42,1.95,10.46,4.09,15.37
	c1.06,2.44,2.35,4.77,3.44,7.2c1.01,2.27,1.16,4.9,2.9,6.87c0.15,0.18,0.19,0.47,0.26,0.71c1.59,5.21,3.33,10.35,5.92,15.17
	c0.24,0.45,0.44,0.91,0.64,1.38c2.43,5.85,4.86,11.71,7.29,17.56c0.19,0.47,0.32,0.96,0.49,1.43c1.05,2.99,2.01,6,3.16,8.95
	c1.08,2.76,2.73,5.16,5.31,6.78c1.92,1.21,3.86,2.38,5.83,3.52c0.41,0.24,0.98,0.39,1.43,0.3c1.39-0.25,2.07,0.53,2.73,1.54
	c0.17,0.26,0.66,0.32,1.04,0.48c0.59-0.48,1.16-0.95,1.76-1.44c0.38,0.61,0.7,1.13,1.01,1.64
	C278.98,363.5,279.97,363.5,281.29,363.5z"
		/>
		<path
			fill="#172E4B"
			className="st0"
			d="M119.43,232.84c0.17-1.4,0.2-2.43,0.44-3.4c0.23-0.97,0.1-1.73-0.63-2.41c-0.36-0.34-0.8-0.66-1-1.09
	c-0.86-1.82-2.41-2.61-4.26-2.66c-1.62-0.04-2.93-0.71-4.27-1.42c-0.79-0.41-1.51-1.08-2.34-1.26c-3.21-0.69-6.05-2.39-9.19-3.27
	c-1.32-0.37-2.74-0.58-3.75-1.7c-0.23-0.25-0.7-0.46-1.02-0.42c-1.79,0.23-3.15-0.84-4.65-1.45c-1.64-0.67-3.19-1.64-4.89-2.09
	c-5.74-1.53-11.44-3.26-17.49-3.34c-3.41-0.04-6.87-0.24-10.21-0.91c-5.39-1.07-10.79-1.34-16.24-1.45
	c-4.39-0.09-8.57,0.61-12.67,2.1c-1.2,0.44-2.41,0.76-3.19,1.9c-0.61,0.89-1.57,1.16-2.58,1.42c-2.44,0.62-4.85,1.35-7.25,2.11
	c-0.41,0.13-0.88,0.64-0.96,1.05c-0.08,0.4,0.29,0.89,0.47,1.36c-0.8,0.52-2.05,0.58-2.03,2.12c0.66,1.04,1.39,2.19,2.07,3.27
	c0.71,0.28,1.29,0.56,1.9,0.73c2.65,0.7,4.83,2.08,6.64,4.16c0.64,0.73,1.56,1.33,2.47,1.7c1.52,0.61,3.11,1.1,4.71,1.42
	c8.72,1.72,17.6,2.2,26.42,3.03c7.2,0.68,14.41,1.13,21.62,1.71c1.64,0.13,3.27,0.32,4.89,0.55c4.01,0.58,8.01,1.31,12.03,1.77
	c2.24,0.25,4.54-0.02,6.8,0.1c3.33,0.17,6.54-0.55,9.81-0.96C114.01,235.13,116.7,234.16,119.43,232.84z"
		/>
		<path
			fill="#172E4B"
			className="st0"
			d="M42.75,70.61c-0.84,1.83-0.48,3.25,0.79,4.6c1.21,1.28,2.44,2.59,3.43,4.05c1.13,1.67,2,3.52,2.97,5.3
	c0.24,0.44,0.6,0.91,0.62,1.37c0.1,2.94,1.92,4.94,3.81,6.79c3.26,3.19,6.62,6.29,10.04,9.31c2.37,2.1,5.02,3.88,7.37,6.01
	c5.54,5.03,11.06,10.1,16.42,15.32c6.54,6.38,12.83,13.01,19.37,19.39c9.8,9.57,19.85,18.89,30.46,27.57
	c0.58,0.47,1.19,0.9,1.58,1.2c1.28-0.1,2.3-0.07,3.25-0.31c0.52-0.13,1.02-0.67,1.35-1.15c0.25-0.36,0.08-1.05,0.35-1.37
	c1.39-1.67,0.94-3.24-0.02-4.89c-0.94-1.64-1.74-3.36-2.65-5.01c-0.43-0.77-0.95-1.49-1.48-2.2c-1.21-1.6-2.22-3.47-3.74-4.7
	c-1.62-1.31-1.81-3.69-3.83-4.54c-1.17-2.56-2.99-4.62-5.05-6.5c-0.36-0.32-0.68-0.83-0.76-1.29c-0.21-1.25-1.14-1.91-1.93-2.73
	c-2.19-2.29-4.37-4.59-6.46-6.96c-1.76-2-3.3-4.19-5.12-6.13c-2.77-2.95-5.77-5.68-8.54-8.62c-4.44-4.7-8.79-9.47-13.81-13.57
	c-0.29-0.24-0.58-0.52-0.76-0.84c-1.62-2.82-4.26-4.69-6.57-6.8c-4.77-4.36-9.8-8.43-14.77-12.55c-1.16-0.96-2.49-1.76-3.84-2.46
	c-2.14-1.1-4.35-2.06-6.54-3.07c-2.99-1.39-6.01-2.7-8.95-4.18C47.49,70.53,45.22,70.19,42.75,70.61z"
		/>
		<path
			fill="#172E4B"
			className="st0"
			d="M126.1,182.4c-0.24-3.01-0.33-5.54-2.68-7.25c-0.9-0.65-1.69-1.58-2.27-2.54c-2.92-4.8-7.38-8.34-10.57-12.92
	c-3.53-2.93-6.1-6.75-9.36-9.94c-0.9-0.88-1.62-1.93-2.53-2.8c-2.06-2-3.45-4.65-6.3-5.91c-1.15-0.51-1.99-1.91-2.75-3.05
	c-0.57-0.86-1.01-1.78-1.98-2.22c-3.36-1.53-5.61-4.41-7.83-7.08c-2.7-3.24-5.67-6.14-8.91-8.77c-3.45-2.79-7.03-5.41-10.52-8.16
	c-3.28-2.58-6.34-5.41-9.89-7.7c-3.23-2.08-6.56-3.79-10.18-5.03c-3.83-1.31-7.53-2.96-11.14-4.8c-1.79-0.91-3.74-1.52-5.67-2.1
	c-1.25-0.38-2.38,0.59-2.23,1.86c0.28,2.29,0.85,4.43,2.74,6.07c3.08,2.66,5.76,5.69,8.08,9.06c2.23,3.23,4.58,6.4,7.6,8.98
	c8.59,7.34,16.99,14.9,25.81,21.95c10.44,8.33,20.45,17.08,29.76,26.65c2.3,2.36,4.72,4.62,7.23,6.76c3.56,3.04,7,6.25,11.14,8.58
	c1.63,0.92,3.38,2.07,4.38,3.57c1.19,1.79,3.14,0.51,4.31,1.69c0.07,0.08,0.5-0.09,0.68-0.25
	C124.59,185.66,125.91,184.1,126.1,182.4z"
		/>
		<path
			fill="#172E4B"
			className="st0"
			d="M280.92,58.77c-0.99,0.38-2,0.52-2.35,1.76c-0.2,0.69-0.88,1.23-1.2,1.91c-1.52,3.22-3.31,6.23-5.84,8.78
	c-1.15,1.17-2.05,2.66-3.36,3.58c-2.6,1.82-5.05,3.77-7.26,6.04c-0.18,0.18-0.39,0.33-0.61,0.46c-2.85,1.75-4.18,4.08-3.8,7.62
	c0.24,2.19-0.13,4.76-1.83,6.4c-3.34,3.22-4.7,7.14-4.95,11.58c-0.07,1.34-0.51,2.43-1.29,3.48c-1.13,1.53-2.25,3.08-3.24,4.69
	c-0.93,1.51-1.84,3.14-1.52,5c0.32,1.87-0.43,3.11-1.74,4.31c-1.74,1.58-2.7,3.57-2.94,6c-0.36,3.71-1.28,7.23-4.64,9.55
	c-0.5,0.34-0.9,0.91-1.21,1.45c-0.83,1.49-1.45,3.18-0.4,4.68c1.17,1.69,1.04,3.22,0.4,5c-0.51,1.42-0.73,2.95-1,4.45
	c-0.18,1-0.25,2-1.1,2.75c-0.2,0.17-0.29,0.77-0.15,0.96c0.79,1.06,0.33,1.87-0.37,2.71c-0.69,0.82-0.4,1.68,0.06,2.48
	c1.61,2.82,5.11,3.21,7.3,0.82c2.66-2.92,5.01-6.05,6.99-9.49c4.44-7.7,8.83-15.44,14.05-22.65c6.66-9.17,12.41-18.86,17.34-29.06
	c2.82-5.84,5.23-11.84,6.88-18.12c0.58-2.19,0.73-4.48,1.68-6.6c0.33-0.74,0.38-1.82,0.11-2.58c-1.04-2.87-0.85-5.75-0.26-8.61
	c0.46-2.22-0.03-4.29-0.56-6.37c-0.14-0.57-0.57-1.13-1.02-1.53C282.42,59.66,281.62,59.24,280.92,58.77z"
		/>
		<path
			fill="#172E4B"
			className="st0"
			d="M169.39,121.18c-1.38-0.39-1.74-1.45-1.85-2.62c-0.3-3.31-1.37-6.48-2.58-9.49
	c-1.49-3.74-1.05-8.11-3.82-11.39c-0.15-0.17-0.17-0.48-0.19-0.73c-0.29-3.59-1.72-6.8-3.24-9.99c-0.32-0.68-0.5-1.44-0.66-2.18
	c-0.7-3.36-1.77-6.6-3.26-9.69c-0.56-1.16-1.06-2.3-0.79-3.63c0.07-0.35,0.14-0.95-0.03-1.06c-1.56-0.97-0.69-2.46-0.72-3.59
	c-0.39-0.42-0.62-0.74-0.92-0.96c-1.18-0.87-1.69-1.91-1.87-3.48c-0.2-1.78-1.13-3.53-1.95-5.19c-0.57-1.17-1.14-2.25-0.94-3.59
	c0.18-1.19-0.23-2.23-0.82-3.25c-1.39-2.41-2.73-4.85-4.09-7.28c-1.04-1.87-2.02-3.77-3.12-5.6c-0.38-0.63-1-1.13-1.58-1.6
	c-0.97-0.8-1.97-1.58-3.02-2.29c-1.03-0.7-2.14-1.3-3.15-1.9c-0.71,0.47-1.21,0.79-1.68,1.1c-0.52-0.43-1-0.82-1.54-1.26
	c-0.98,0.52-1.85,0.98-2.72,1.46c-0.08,0.04-0.08,0.22-0.11,0.32c0.46,1.85,1.19,3.66,1.29,5.5c0.13,2.37-0.1,4.76,0.78,6.95
	c-0.75,0.64-1.5,1.01-1.82,1.61c-0.33,0.63-0.38,1.48-0.32,2.22c0.09,0.99,0.33,1.99,0.62,2.94c1.79,5.84,4.41,11.34,7.09,16.79
	c3.03,6.15,5.31,12.59,7.69,18.99c1.32,3.56,2.27,7.3,3.97,10.66c2.72,5.37,4.42,11.07,5.97,16.8c2.05,7.58,4.62,14.99,6.98,22.47
	c0.38,1.2,1.2,2.32,1.33,3.52c0.5,4.5,3.34,8.05,4.71,12.2c0.68,2.07,3.59,2.93,5.1,1.83c1.28-0.93,2.63-1.88,2.51-3.94
	c-0.12-2.01,0.22-4.04,0.34-6.07c0.05-0.75-0.09-1.56,0.13-2.26c0.89-2.84,0.81-5.71,0.34-8.58c-0.45-2.75-1-5.48-1.52-8.22
	c-0.07-0.37-0.09-0.85-0.32-1.08C168.27,124.33,168.75,122.86,169.39,121.18z"
		/>
		<path
			fill="#172E4B"
			className="st0"
			d="M263.38,207.01c2.57,1.22,5.02,1.75,7.57,1.92c3.41,0.24,6.84,0.43,10.22,0.93c4.65,0.69,9.31,1.29,14.01,1.19
	c8.62-0.18,17.25-0.49,25.87-0.85c8.49-0.35,16.97-0.91,25.46-1.23c5.71-0.22,11.39,0.27,17.06,1.12
	c4.41,0.66,8.26-0.39,11.08-4.27c1.63-2.25,3.58-4.26,5.42-6.35c1.74-1.99,1.66-3.75-0.35-5.62c-2.11-1.96-4.67-3.1-7.45-3.54
	c-3.51-0.56-7.05-0.84-10.62-0.65c-4.81,0.26-9.63,0.45-14.44,0.67c-3.17,0.15-6.34,0.27-9.5,0.45c-4.68,0.27-9.37,0.58-14.05,0.88
	c-7.34,0.47-14.68,0.91-22.02,1.41c-3.66,0.25-7.31,0.79-10.98,0.87c-6.63,0.16-13.11,1.14-19.51,2.81
	c-0.72,0.19-1.88,0.41-2.01,0.85c-0.41,1.48-1.92,1.59-2.69,2.58c-0.72,0.93-2.22,1.29-1.98,2.88
	C262.93,203.96,263.52,205.48,263.38,207.01z"
		/>
		<path
			fill="#172E4B"
			className="st0"
			d="M243.43,396.11c0.17,0.43,0.26,0.66,0.36,0.9c0.67,1.61,1.54,2.1,2.8,1.36c0.72-0.43,1.42-1.09,1.83-1.82
	c1.02-1.79,1.45-3.76,1.5-5.84c0.15-6.39-0.2-12.7-2.55-18.75c-0.6-1.54-1.07-3.12-1.58-4.69c-1.28-3.99-2.66-7.94-3.3-12.11
	c-0.77-5.02-1.63-10.02-2.41-15.04c-1.88-12.04-4.14-24.01-6.88-35.89c-1.64-7.13-4.29-13.81-7.68-20.22
	c-1.42-2.68-3.16-5.2-4.91-7.69c-0.9-1.29-2.4-1.15-3.04,0.31c-1.02,2.31-1.74,4.74-2.59,7.13c0.76,3.55-0.82,6.64-1.83,9.87
	c-0.76,2.41-1.23,4.92-1.78,7.4c-0.76,3.4-0.8,6.83,0.16,10.18c0.91,3.17,2.07,6.26,3.09,9.4c1.39,4.27,3.45,8.22,6.24,11.71
	c4.4,5.5,6.88,11.85,8.27,18.61c0.96,4.7,1.34,9.51,1.33,14.33c0,0.99,0.09,2.14,0.58,2.95c0.89,1.48,1.02,3.12,1.14,4.68
	c0.13,1.7,0.45,3.23,1.31,4.67c1.52,2.56,1.84,5.46,2.45,8.32c-0.69,0.57-1.28,1.04-1.83,1.54c-0.8,0.73-1.24,1.66-1.09,2.72
	c0.08,0.57,0.37,1.33,0.81,1.57c1.2,0.68,2.49,1.3,3.82,1.62c0.9,0.21,1.93-0.15,3.05-0.27c0.29,1.21,0.58,2.39,0.88,3.63
	C242.25,396.48,242.71,396.33,243.43,396.11z"
		/>
		<path
			fill="#172E4B"
			className="st0"
			d="M378.98,266.84c-0.68-0.51-1.14-0.92-1.67-1.22c-9.48-5.4-19.34-10.09-29.18-14.79
	c-4.35-2.08-8.74-4.06-13.08-6.15c-4.57-2.2-9.23-4.15-14.04-5.82c-5.76-1.99-11.66-3.43-17.54-4.94c-8.22-2.1-16.32-4.66-24.73-6
	c-6.28-1-12.37-0.37-18.36,1.6c-0.82,0.27-1.62,0.72-2.29,1.26c-1.13,0.91-1.11,2.08,0.13,2.8c2.29,1.34,4.59,2.73,7.03,3.73
	c7.16,2.95,14.64,4.97,22.01,7.27c5.57,1.74,11.16,3.4,16.7,5.2c8.19,2.67,16.37,5.37,24.51,8.19c5.38,1.87,11.04,2.88,16.25,5.3
	c2.17,1.01,4.46,1.78,6.74,2.53c4.43,1.45,8.92,2.73,13.27,4.4c0.45,0.17,0.99,0.2,1.49,0.17c2.89-0.2,5.77-0.43,8.68-0.66
	c0.42-0.47,0.78-1.03,1.29-1.38C377.01,267.82,377.89,267.43,378.98,266.84z"
		/>
		<path
			fill="#172E4B"
			className="st0"
			d="M380.29,234.39c-0.95-0.68-1.61-1.29-2.38-1.68c-3.85-1.94-7.6-4.13-11.61-5.66
	c-9.6-3.66-19.54-6.22-29.66-7.94c-8.36-1.42-16.78-2.56-25.16-3.85c-4.25-0.65-8.48-1.47-12.74-2.03
	c-5.02-0.66-10.05-1.24-15.1-1.64c-3.41-0.27-6.85-0.17-10.27-0.23c-0.63-0.01-1.27-0.02-1.9,0.06c-1.51,0.19-2.11,0.95-2.13,2.59
	c-0.01,0.73,0,1.47,0,2.25c-0.98,0.46-1.96,0.79-2.77,1.35c-0.58,0.39-1.2,1.04-1.33,1.68c-0.22,1.01,0.65,1.62,1.49,1.92
	c1.42,0.51,2.87,0.97,4.35,1.28c2.35,0.5,4.74,0.82,7.1,1.3c6.09,1.22,12.21,2.26,18.42,2.58c5.21,0.26,10.35,0.8,15.4,2.14
	c2.44,0.65,4.91,1.24,7.4,1.7c4.72,0.87,9.47,1.63,14.21,2.44c5.86,1,11.72,2.03,17.59,2.98c5.12,0.82,10.26,1.54,15.39,2.29
	c0.62,0.09,1.36,0.32,1.85,0.09c1.91-0.93,3.87-1.04,5.92-0.83c1.19,0.12,1.28-0.91,1.51-1.47
	C377.12,234.41,378.95,236.61,380.29,234.39z"
		/>
		<path
			fill="#172E4B"
			className="st0"
			d="M239.71,172.56c0.07,0.8,0.14,1.43,0.19,2.05c0.2,2.74,1.67,3.8,4.25,3.07c0.37-0.1,0.75-0.17,1.1-0.32
	c6.39-2.55,12.52-5.55,17.86-10c3.51-2.92,7.09-5.76,10.64-8.62c6.54-5.27,14.07-9.02,21.06-13.61c3.49-2.29,6.57-5.14,10.3-7.09
	c0.83-0.43,1.22-1.67,2.03-2.19c1.61-1.03,3.08-2.14,4.15-3.76c0.25-0.38,0.81-0.63,1.28-0.78c1.71-0.56,2.76-1.68,3.31-3.39
	c0.19-0.58,0.72-1.04,1.03-1.59c1.75-3.18,5.04-5.29,6.2-8.89c0.06-0.18,0.46-0.24,0.61-0.42c0.3-0.36,0.66-0.73,0.8-1.15
	c0.9-2.89,2.19-5.92,3.9-7.47c2.19-1.97,2.76-4.37,2.82-7.12c0.02-1.08-0.12-2-0.94-2.75c-1.31,0.04-2.39,0.53-3.54,1.18
	c-2.76,1.57-5.18,3.6-7.66,5.51c-3,2.3-6.17,4.41-8.66,7.37c-1.62,1.93-3.46,3.71-5.36,5.38c-6.21,5.47-11.46,11.85-17.13,17.84
	c-2.44,2.58-4.92,5.08-7.81,7.15c-3.71,2.66-7.56,5.13-11.18,7.91c-4.42,3.39-8.66,7.03-12.99,10.54
	c-3.13,2.54-6.11,5.25-10.39,5.93c-1.62,0.26-3.28,1.15-4.1,2.97C241.15,171.1,240.41,171.7,239.71,172.56z"
		/>
		<path
			fill="#172E4B"
			className="st0"
			d="M376.01,144.75c-0.61-0.16-1.34-0.6-1.95-0.47c-2.23,0.47-4.4,1.19-6.63,1.71
	c-11.39,2.62-22.44,6.4-33.34,10.5c-12.45,4.69-24.69,9.94-37.01,14.96c-4.1,1.67-8.14,3.51-12.28,5.06
	c-3.79,1.41-7.71,2.48-11.54,3.81c-2.12,0.74-4.2,0.86-6.35,0.26c-0.84-0.24-1.68-0.47-2.73-0.76c-0.57,1.79-1.08,3.49-2.88,4.28
	c-0.24,0.11-0.3,0.65-0.43,1c-0.29,0.78-0.57,1.56-0.77,2.1c1.73,2.78,4.17,2.73,6.77,2.16c2.6-0.57,5.23-1.01,7.81-1.65
	c9.71-2.41,19.43-4.8,29.1-7.34c8.09-2.12,16.05-4.68,23.73-8.06c9.04-3.98,18.16-7.81,27.58-10.85
	c5.98-1.93,11.36-4.99,16.38-8.68c1.08-0.8,1.96-1.96,2.69-3.11c0.24-0.38-0.29-1.25-0.49-1.94
	C374.46,146.88,376.02,146.62,376.01,144.75z"
		/>
		<path
			fill="#172E4B"
			className="st0"
			d="M213.27,0.39c0-0.05,0-0.1,0-0.15c-0.46,0-0.93,0-1.39,0c0,0.05,0,0.1,0,0.15
	C212.34,0.39,212.8,0.39,213.27,0.39z"
		/>
		<path
			fill="#172E4B"
			className="st0"
			d="M228.62,0c-0.12,0.03-0.23,0.07-0.35,0.1c0.07,0.07,0.13,0.2,0.2,0.21c0.11,0.01,0.23-0.06,0.34-0.09
	C228.75,0.15,228.68,0.07,228.62,0z"
		/>
		<path
			fill="#172E4B"
			className="st0"
			d="M225.79,63.42c-0.07-0.09-0.14-0.17-0.22-0.26c-0.08,0.13-0.16,0.27-0.25,0.4c0.1,0.04,0.21,0.14,0.3,0.12
	C225.69,63.67,225.73,63.51,225.79,63.42z"
		/>
		<path
			fill="#172E4B"
			d="M194.71,274.27c-6.17,0.43-11.71-1.3-16.74-4.49c-3.47-2.2-7.11-3.83-11.04-4.96c-3.57-1.02-6.6-3.22-9.83-4.96
	c-1.67-0.9-3.3-1.95-5.06-2.61c-6.47-2.42-10.76-7.09-13.64-13.12c-3.71-7.77-5.69-16-6.07-24.61c-0.03-0.76-0.19-1.59,0.05-2.27
	c1.11-3.12,0.79-6.33,0.4-9.43c-0.61-4.81,0.93-9.04,2.96-13.14c1.8-3.65,4.33-6.87,7.04-9.92c2.28-2.56,4.54-5.14,6.83-7.68
	c0.59-0.65,1.29-1.21,1.94-1.81c1.31-1.2,2.75-2.28,3.9-3.62c2.03-2.37,4.51-4.06,7.26-5.44c5.95-2.99,12.25-4.78,18.82-5.8
	c4.69-0.72,9.36-1.05,14,0.01c2.83,0.65,5.67,1.39,8.39,2.4c10.3,3.83,19.89,9,28.41,15.97c2.97,2.43,6,4.61,9.54,6.17
	c3.18,1.4,5.69,3.71,7.56,6.74c1.95,3.16,3.47,6.49,4.62,9.99c0.68,2.06,0.58,4.24,0.84,6.36c0.27,2.2,0.28,4.22-0.25,6.35
	c-0.98,3.94-1.68,7.94-2.64,11.88c-1.39,5.71-3.72,11.08-6.7,16.13c-4.48,7.61-10.08,14.33-16.87,20.01
	c-6.37,5.33-13.83,8.43-21.82,10.36C202.69,273.72,198.71,274.57,194.71,274.27z"
		/>
		<path
			fill="#172E4B"
			d="M98.73,293.36c-0.4,0.25-0.83,0.48-1.21,0.76c-5.06,3.7-10.68,6.33-16.56,8.44c-13.68,4.91-26.44,11.68-38.8,19.25
	c-4.87,2.99-9.75,5.96-14.99,8.27c-1.26,0.56-2.61,1-3.96,1.26c-1.76,0.34-3.37,0.34-4.86-1.24c-1.38-1.48-3.56-1.74-5.83-1.93
	c0.86-1.88,2.6-1.91,3.7-2.58c-0.15-1.51-1.34-0.43-1.85-1.15c0.02-1.09,1.96-0.1,1.9-1.6c-0.02-0.52,1.16-1.08,1.95-1.76
	c-0.8-0.18-1.46-0.33-2.26-0.51c0.19-0.96,0.22-1.95,0.6-2.78c0.43-0.93,1.03-1.74,0.55-2.99c2.31-1.65,4.28-3.79,7.01-4.99
	c1.6-0.71,2.94-1.99,4.49-2.85c3.43-1.91,6.89-3.77,10.4-5.55c8.04-4.07,16.11-8.06,24.16-12.12c1.7-0.86,3.38-1.77,5-2.76
	c5.36-3.28,11.26-5.22,17.22-7.02c4.8-1.44,9.51-1.23,14.1,0.89c0.8,0.37,1.63,0.67,2.6,1.07c0.53,0.84,1.13,1.8,1.53,2.42
	c0.41,1.31-1.17,2.37,0.15,3.1c0.99,0.54,1.53-0.62,2.13-1.2c5.38-5.23,11.06-10.08,17.48-14.01c0.97-0.6,1.99-1.18,2.81-1.96
	c1.59-1.51,3.39-2.63,5.74-3.4c1.14,0.47,2.51,1.04,3.77,1.57c0.87,1.74,0.11,3.9,2.14,5.03c-0.15,0.48-0.27,0.95-0.45,1.4
	c-0.58,1.48-0.38,3.2-1.21,4.57c-0.78,1.3-1.82,2.44-2.67,3.7c-2.62,3.89-5.16,7.84-7.82,11.7c-1.58,2.29-3.25,4.53-5,6.7
	c-4.54,5.63-9.06,11.26-13.74,16.77c-3.2,3.76-6.76,7.22-9.96,10.98c-4.02,4.73-8.7,8.84-12.54,13.75
	c-1.24,1.59-2.88,2.85-4.26,4.33c-3.02,3.23-5.94,6.55-9.01,9.73c-3.17,3.28-6.9,5.9-10.65,8.47c-0.59,0.41-1.39,0.59-2.12,0.7
	c-2.23,0.35-4.48,0.63-6.82,0.94c0-0.86,0.56-2.01-0.62-2.97c0.87-0.93,1.7-1.83,2.6-2.79c-1-1.49-2.1-0.17-3.07-0.29
	c-0.82-1,0.44-1.52,0.5-2.44c-0.34-0.17-0.75-0.37-1.16-0.57c1.3-3.97,2.31-8.01,2.68-12.16c0.13-1.49,0.56-2.73,1.51-3.79
	c3.12-3.49,5.94-7.21,9.53-10.33c3.86-3.36,8.01-6.5,11.06-10.71c3.99-2.25,5.89-6.51,9.08-9.51c4.55-4.26,8.06-9.44,12.51-13.78
	c1.08-1.05,1.88-2.38,2.81-3.59C98.92,293.69,98.83,293.52,98.73,293.36z M19.69,327.18c-0.02-0.1-0.04-0.2-0.06-0.31
	c-0.16,0.04-0.31,0.08-0.47,0.12c0.07,0.09,0.12,0.21,0.21,0.24C19.46,327.28,19.59,327.21,19.69,327.18z"
		/>
		<path
			fill="#172E4B"
			d="M92.53,391.13c0.47-0.9,0.79-1.51,1.28-2.44c-1.59,0.07-2.91,0.3-4.18,0.71c-0.82-0.85,0.2-1.37,0.27-2.04
	c0.07-0.6,0.43-1.17,0.84-2.2c-0.45-0.21-1.03-0.49-1.68-0.79c0.5-0.96,0.83-1.61,1.2-2.31c-0.05-0.15-0.05-0.51-0.2-0.58
	c-0.59-0.28-1.04-0.59-1.23-1.3c-0.19-0.72-0.38-1.54-0.84-2.08c-2.46-2.86-1.61-5.92-0.62-8.97c0.35-1.07,0.93-2.1,1.54-3.05
	c7.05-11.02,13.06-22.65,19.72-33.9c5.56-9.4,11.48-18.57,17.59-27.62c1.49-2.21,2.86-4.5,4.34-6.71c2.48-3.69,4.95-7.38,7.52-11
	c2.66-3.75,5.84-7.02,9.48-9.84c1.1-0.85,2.19-1.76,3.08-2.82c1.91-2.26,4.68-1.35,6.47-0.02c0.35,0.26,0.65,0.87,0.61,1.29
	c-0.12,1.55,0.84,2.28,2.05,2.97c0.73,4.76-0.31,9.31-2.02,13.7c-1.61,4.13-3.55,8.13-5.21,12.24
	c-4.2,10.39-10.01,19.94-15.53,29.64c-5.02,8.82-10.12,17.59-15.35,26.28c-2.74,4.55-5.85,8.88-8.78,13.32
	c-3.15,4.76-6.36,9.46-10.16,13.74c-1.18,2.74-4.11,3.53-6.03,5.61c-0.68-0.48-1.24-0.99-1.89-1.29
	C94.18,391.39,93.44,391.33,92.53,391.13z M95.43,388.99c0.09,0.04,0.19,0.1,0.28,0.09c0.05-0.01,0.08-0.15,0.11-0.23
	c-0.09-0.04-0.19-0.08-0.28-0.12C95.5,388.82,95.47,388.9,95.43,388.99z"
		/>
		<path
			fill="#172E4B"
			d="M0.6,276.52c0.18-0.97,0.67-1.59,1.72-1.72c1.12-0.14,2.23-0.34,2.92-1.42c-0.64-0.96-1.37-0.24-2.03-0.21
	c-0.74,0.03-1.48,0.17-2.4,0.28c0.54-1.57,2.07-1.36,2.9-2.14c0.06-1.38-1.52-0.62-1.89-1.44c0.46-1.12,0.67-2.47,1.44-3.31
	c1.78-1.97,3.71-3.85,5.81-5.47c1.37-1.06,3.12-1.67,4.75-2.34c5.32-2.18,10.96-3.17,16.54-4.34c8.2-1.72,16.46-3.02,24.78-4.07
	c4.4-0.55,8.73-1.6,13.1-2.38c6.36-1.14,12.72-2.32,19.18-2.86c3.16-0.26,6.29-0.81,9.43-1.21c4.07-0.52,8.07-0.36,12.05,0.83
	c4.19,1.26,6.48,4.34,8.12,8c0.89,1.98,0.46,4.12-1.3,5.55c-1.46,1.18-3.08,2.34-4.82,2.97c-10.86,3.9-21.77,7.66-32.86,10.82
	c-5.48,1.56-11.09,2.69-16.61,4.13c-5.52,1.44-11.04,2.91-16.5,4.54c-10.07,3.01-20.39,4.01-30.84,4.18
	c-3.9,0.06-7.34-1.39-11.3-2.85c1.31-1.13,2.3-1.99,3.52-3.04c-2.11-0.49-4.28-0.18-5.74-1.82l-0.1,0.1
	c0.8-0.05,1.59-0.11,2.72-0.19c-0.54-0.3-0.73-0.48-0.94-0.51c-0.58-0.09-1.18-0.12-1.77-0.17L0.6,276.52z M8.52,277.1
	c-0.03-0.14-0.06-0.28-0.09-0.42c-0.45,0.06-0.9,0.12-1.35,0.17c0.06,0.21,0.12,0.41,0.17,0.62C7.68,277.34,8.1,277.22,8.52,277.1z
	"
		/>
		<path
			fill="#172E4B"
			d="M146.68,406.01c-2.45-1.07-4.12-2.72-6.49-2.21c-0.65-1.16-2.1-1.28-2.89-2.2c-1.03-1.2-2.35-2.2-2.17-4.17
	c0.11-1.21-0.32-2.5-0.68-3.71c-0.86-2.94-0.34-5.77,0.45-8.62c1.16-4.17,2.74-8.21,4.74-12.02c4.81-9.19,7.73-19,10.13-29.02
	c1-4.19,2.15-8.35,3.17-12.54c0.99-4.06,2.04-8.12,2.8-12.23c1.51-8.17,4.35-15.87,7.45-23.53c2.03-5.03,5.13-9.29,8.28-13.58
	c0.15-0.2,0.31-0.4,0.48-0.59c2.38-2.68,4.23-2.49,6.24,0.64c0.27,0.43,0.48,0.93,0.84,1.26c2.16,2.01,2.35,4.66,2.44,7.34
	c0.18,5.6-0.5,11.16-1.34,16.67c-0.92,6.01-2.22,11.97-3.29,17.96c-1.27,7.11-2.38,14.26-3.72,21.36
	c-1.62,8.6-3.39,17.16-5.96,25.54c-0.63,2.06-1.13,4.16-1.68,6.24c-1.27,4.79-3.42,9.26-5.29,13.82c-1.7,4.13-4.01,7.95-7.95,10.42
	C150.43,403.93,148.55,404.93,146.68,406.01z"
		/>
		<path
			fill="#172E4B"
			d="M198.94,280.34c3.01,2.36,5.01,5.43,5.69,8.59c0.69,3.25,0.86,6.54,0.75,9.85c-0.43,12.31-0.81,24.61-1.3,36.92
	c-0.41,10.14-0.88,20.28-1.45,30.41c-0.45,8.11-1,16.21-1.67,24.3c-0.41,4.93-1.47,9.76-2.96,14.51c-1,3.17-3.12,5.47-5.27,7.8
	c-0.33,0.36-0.8,0.77-1.25,0.84c-1.96,0.29-2.98,1.77-4.13,3.36c-1.9,0-3.8-0.04-5.69,0.01c-1.8,0.05-2.97-0.86-3.46-2.43
	c-1.16-3.73-2.39-7.38-1.69-11.51c0.99-5.85,3.15-11.23,5.73-16.47c0.92-1.86,1.62-3.73,1.95-5.72c0.93-5.64,1.62-11.31,0.95-17.05
	c-0.21-1.78-0.2-3.55,0.61-5.22c0.11-0.22,0.17-0.48,0.2-0.73c1.18-9.07,2.43-18.15,1.32-27.31c-0.63-5.2-0.47-10.39-0.53-15.59
	c-0.03-2.41,0.11-4.83-0.03-7.23c-0.4-6.99,1.27-13.62,3.55-20.12C191.47,284.13,195.07,281.27,198.94,280.34z"
		/>
		<path
			fill="#172E4B"
			d="M281.29,363.5c-1.33,0-2.32,0-3.35,0c-0.32-0.51-0.64-1.03-1.01-1.64c-0.6,0.49-1.17,0.96-1.76,1.44
	c-0.38-0.16-0.87-0.22-1.04-0.48c-0.66-1.01-1.33-1.8-2.73-1.54c-0.45,0.08-1.03-0.07-1.43-0.3c-1.97-1.14-3.91-2.31-5.83-3.52
	c-2.58-1.62-4.23-4.02-5.31-6.78c-1.15-2.95-2.12-5.96-3.16-8.95c-0.17-0.48-0.3-0.97-0.49-1.43c-2.42-5.86-4.86-11.71-7.29-17.56
	c-0.19-0.47-0.4-0.94-0.64-1.38c-2.58-4.82-4.33-9.96-5.92-15.17c-0.07-0.24-0.1-0.53-0.26-0.71c-1.74-1.97-1.88-4.61-2.9-6.87
	c-1.08-2.43-2.38-4.76-3.44-7.2c-2.14-4.91-3.74-9.95-4.09-15.37c-0.13-1.99,0.08-3.76,0.98-5.49c0.62-1.19,1.24-1.63,2.38-1.28
	c1.93,0.58,3.94,1.09,5.71,2.01c3.95,2.06,7.5,4.75,10.6,7.97c6.75,7.01,12.11,15.01,16.56,23.61c2.74,5.29,5.26,10.7,7.74,16.12
	c3.53,7.74,6.59,15.66,9.39,23.7c1.26,3.63,1.88,7.36,2.5,11.11c0.3,1.84-0.11,3.42-1.5,4.86
	C283.62,360.11,282.54,361.85,281.29,363.5z"
		/>
		<path
			fill="#172E4B"
			d="M119.43,232.84c-2.73,1.31-5.42,2.29-8.36,2.66c-3.26,0.41-6.48,1.13-9.81,0.96c-2.26-0.12-4.56,0.15-6.8-0.1
	c-4.03-0.45-8.02-1.19-12.03-1.77c-1.62-0.23-3.26-0.42-4.89-0.55c-7.21-0.58-14.42-1.03-21.62-1.71
	c-8.83-0.84-17.7-1.31-26.42-3.03c-1.6-0.32-3.19-0.81-4.71-1.42c-0.91-0.36-1.83-0.96-2.47-1.7c-1.81-2.08-3.99-3.46-6.64-4.16
	c-0.61-0.16-1.19-0.45-1.9-0.73c-0.68-1.08-1.42-2.24-2.07-3.27c-0.01-1.54,1.23-1.6,2.03-2.12c-0.18-0.46-0.55-0.96-0.47-1.36
	c0.08-0.41,0.55-0.92,0.96-1.05c2.4-0.77,4.81-1.49,7.25-2.11c1.02-0.26,1.97-0.53,2.58-1.42c0.78-1.14,1.99-1.46,3.19-1.9
	c4.1-1.49,8.28-2.19,12.67-2.1c5.46,0.11,10.86,0.38,16.24,1.45c3.33,0.66,6.8,0.86,10.21,0.91c6.05,0.08,11.75,1.81,17.49,3.34
	c1.69,0.45,3.24,1.42,4.89,2.09c1.5,0.61,2.87,1.68,4.65,1.45c0.32-0.04,0.79,0.17,1.02,0.42c1.01,1.12,2.43,1.33,3.75,1.7
	c3.14,0.88,5.98,2.58,9.19,3.27c0.83,0.18,1.55,0.84,2.34,1.26c1.34,0.7,2.65,1.37,4.27,1.42c1.85,0.05,3.4,0.84,4.26,2.66
	c0.2,0.43,0.64,0.75,1,1.09c0.72,0.68,0.86,1.45,0.63,2.41C119.64,230.42,119.6,231.44,119.43,232.84z"
		/>
		<path
			fill="#172E4B"
			d="M42.75,70.61c2.47-0.42,4.74-0.09,6.98,1.05c2.94,1.48,5.96,2.79,8.95,4.18c2.19,1.01,4.4,1.97,6.54,3.07
	c1.35,0.69,2.68,1.49,3.84,2.46c4.98,4.12,10,8.2,14.77,12.55c2.31,2.11,4.95,3.98,6.57,6.8c0.18,0.32,0.47,0.61,0.76,0.84
	c5.02,4.11,9.37,8.88,13.81,13.57c2.78,2.94,5.77,5.67,8.54,8.62c1.82,1.94,3.36,4.14,5.12,6.13c2.09,2.37,4.27,4.68,6.46,6.96
	c0.79,0.82,1.71,1.48,1.93,2.73c0.08,0.46,0.4,0.97,0.76,1.29c2.07,1.87,3.88,3.93,5.05,6.5c2.03,0.85,2.21,3.23,3.83,4.54
	c1.52,1.22,2.53,3.09,3.74,4.7c0.53,0.7,1.05,1.43,1.48,2.2c0.91,1.65,1.71,3.37,2.65,5.01c0.95,1.66,1.41,3.23,0.02,4.89
	c-0.27,0.32-0.09,1.01-0.35,1.37c-0.33,0.48-0.83,1.01-1.35,1.15c-0.95,0.24-1.97,0.2-3.25,0.31c-0.39-0.3-1-0.73-1.58-1.2
	c-10.61-8.68-20.65-18-30.46-27.57c-6.54-6.38-12.83-13.01-19.37-19.39c-5.36-5.22-10.88-10.29-16.42-15.32
	c-2.34-2.13-4.99-3.91-7.37-6.01c-3.42-3.02-6.78-6.12-10.04-9.31c-1.89-1.86-3.71-3.86-3.81-6.79c-0.02-0.47-0.38-0.93-0.62-1.37
	c-0.97-1.78-1.84-3.63-2.97-5.3c-0.98-1.46-2.21-2.76-3.43-4.05C42.27,73.87,41.91,72.45,42.75,70.61z"
		/>
		<path
			fill="#172E4B"
			d="M369.42,314.1c-0.64,0.36-1.26,0.24-1.75-0.22c-0.72-0.68-1.37-1.43-1.98-2.08c-1.86-0.07-1.76,1.64-2.71,2.68
	c-0.77-0.48-1.62-1.45-2.32-1.36c-1.13,0.15-1.57-0.42-2.26-0.96c-0.79-0.62-1.73-1.05-2.62-1.53c-0.88-0.47-1.78-0.88-2.66-1.35
	c-0.78-0.41-1.71-0.7-2.28-1.31c-1.13-1.22-2.37-2.11-3.91-2.79c-1.77-0.79-2.57-2.85-4.78-3.44c-1.7-0.46-3.07-2.14-4.59-3.27
	c-0.3-0.22-0.61-0.45-0.96-0.59c-8.84-3.51-17.26-7.94-25.64-12.39c-4.35-2.31-8.34-5.29-12.55-7.89
	c-8.31-5.13-16.65-10.21-24.98-15.3c-6.71-4.1-13.46-8.13-20.14-12.29c-1.91-1.19-3.83-2.47-5.03-4.5
	c0.97-3.22,3.77-3.68,6.31-4.06c3.52-0.53,7.02-0.17,10.51,0.89c4.98,1.52,9.78,3.47,14.61,5.37c6.63,2.61,13,5.7,18.89,9.72
	c5.57,3.81,11.75,6.53,17.7,9.63c8.11,4.23,16.01,8.74,23.51,14c7.47,5.25,15.04,10.37,22.14,16.12c2.56,2.07,4.95,4.35,7.3,6.66
	c1.62,1.59,3.05,3.38,4.1,5.71c-0.81,0.74-1.6,1.48-2.39,2.21c0.16,0.49,0.31,0.94,0.51,1.52c-0.72,0.32-1.4,0.61-2.06,0.9
	c-0.07-0.81-0.15-1.61-0.23-2.41c-0.1-0.26-0.2-0.74-0.31-0.75c-0.61-0.02-0.98,0.51-0.63,0.88c0.12,0.13,0.61-0.08,0.93-0.13
	C369.24,312.54,369.33,313.32,369.42,314.1z"
		/>
		<path
			fill="#172E4B"
			d="M126.1,182.4c-0.19,1.7-1.51,3.26-3.08,4.66c-0.17,0.16-0.61,0.32-0.68,0.25c-1.17-1.17-3.12,0.1-4.31-1.69
	c-1-1.51-2.75-2.66-4.38-3.57c-4.14-2.33-7.57-5.54-11.14-8.58c-2.51-2.14-4.93-4.4-7.23-6.76c-9.31-9.57-19.32-18.32-29.76-26.65
	c-8.82-7.04-17.22-14.61-25.81-21.95c-3.02-2.58-5.37-5.75-7.6-8.98c-2.32-3.37-5.01-6.39-8.08-9.06
	c-1.89-1.64-2.46-3.78-2.74-6.07c-0.16-1.28,0.97-2.24,2.23-1.86c1.93,0.58,3.88,1.19,5.67,2.1c3.62,1.84,7.31,3.49,11.14,4.8
	c3.62,1.24,6.95,2.95,10.18,5.03c3.54,2.28,6.61,5.11,9.89,7.7c3.49,2.75,7.07,5.37,10.52,8.16c3.24,2.63,6.21,5.52,8.91,8.77
	c2.23,2.67,4.48,5.55,7.83,7.08c0.97,0.44,1.41,1.36,1.98,2.22c0.76,1.14,1.6,2.54,2.75,3.05c2.86,1.27,4.24,3.92,6.3,5.91
	c0.9,0.87,1.63,1.92,2.53,2.8c3.26,3.19,5.83,7.01,9.36,9.94c3.18,4.58,7.64,8.12,10.57,12.92c0.58,0.96,1.37,1.88,2.27,2.54
	C125.77,176.86,125.86,179.39,126.1,182.4z"
		/>
		<path
			fill="#172E4B"
			d="M280.92,58.77c0.71,0.46,1.5,0.88,2.16,1.46c0.45,0.39,0.88,0.96,1.02,1.53c0.53,2.08,1.02,4.15,0.56,6.37
	c-0.59,2.86-0.78,5.74,0.26,8.61c0.28,0.76,0.22,1.84-0.11,2.58c-0.94,2.12-1.1,4.41-1.68,6.6c-1.65,6.29-4.06,12.28-6.88,18.12
	c-4.92,10.2-10.68,19.89-17.34,29.06c-5.23,7.2-9.61,14.95-14.05,22.65c-1.98,3.43-4.33,6.57-6.99,9.49c-2.19,2.39-5.69,2-7.3-0.82
	c-0.46-0.8-0.75-1.66-0.06-2.48c0.7-0.84,1.16-1.65,0.37-2.71c-0.14-0.19-0.04-0.79,0.15-0.96c0.85-0.75,0.92-1.75,1.1-2.75
	c0.27-1.5,0.49-3.03,1-4.45c0.64-1.78,0.77-3.31-0.4-5c-1.05-1.51-0.44-3.19,0.4-4.68c0.3-0.54,0.71-1.11,1.21-1.45
	c3.36-2.31,4.28-5.83,4.64-9.55c0.24-2.43,1.2-4.41,2.94-6c1.31-1.2,2.06-2.44,1.74-4.31c-0.31-1.86,0.59-3.48,1.52-5
	c1-1.62,2.11-3.17,3.24-4.69c0.78-1.05,1.22-2.14,1.29-3.48c0.24-4.44,1.61-8.36,4.95-11.58c1.7-1.64,2.06-4.2,1.83-6.4
	c-0.38-3.54,0.95-5.86,3.8-7.62c0.22-0.13,0.43-0.28,0.61-0.46c2.21-2.27,4.66-4.22,7.26-6.04c1.31-0.92,2.21-2.41,3.36-3.58
	c2.52-2.55,4.32-5.57,5.84-8.78c0.32-0.68,1.01-1.22,1.2-1.91C278.92,59.29,279.93,59.15,280.92,58.77z M239.59,136.54
	c-0.27-0.11-0.49-0.26-0.58-0.21c-0.16,0.1-0.27,0.31-0.36,0.49c-0.03,0.05,0.09,0.18,0.14,0.27
	C239.03,136.93,239.28,136.76,239.59,136.54z"
		/>
		<path
			fill="#172E4B"
			d="M329.62,346.18c2.05,2.28,2.05,2.28-0.33,4.56c-1.86-1.09-3.77-2.24-5.7-3.32c-0.76-0.42-1.57-0.86-2.41-1
	c-0.88-0.16-1.16-0.69-1.64-1.31c-0.66-0.84-1.76-1.33-2.55-2.09c-0.72-0.69-1.12-1.84-1.94-2.28c-2.69-1.46-3.61-4.43-5.71-6.37
	c-0.32-0.29-0.4-0.91-0.47-1.39c-0.1-0.72-0.45-1.17-1.15-1.31c-1.49-0.3-2.37-1.38-3.27-2.46c-1.29-1.54-2.61-3.03-4.27-4.25
	c-0.82-0.61-1.89-1.2-2.18-2.5c-0.15-0.65-0.85-1.27-1.44-1.71c-3.02-2.29-5.14-5.55-8.35-7.63c-0.21-0.13-0.46-0.33-0.52-0.54
	c-0.69-2.65-3.14-3.85-4.76-5.72c-1.57-1.82-3.31-3.49-5.06-5.13c-1.11-1.04-2.22-2.02-3.02-3.37c-0.56-0.94-1.54-1.65-2.39-2.41
	c-1.12-1-2.55-1.69-3.04-3.29c-0.1-0.32-0.46-0.62-0.77-0.81c-2.32-1.43-3.82-3.67-5.66-5.59c-5.71-5.96-11.01-12.23-15.51-19.16
	c-0.55-0.85-1.22-1.63-1.74-2.5c-0.38-0.63-0.62-1.34-0.93-2.02c0.8-1.1,1.17-2.51,2.52-2.8c1.79-0.38,3.3-1.75,5.43-1.07
	c2.02,0.65,4.22,0.72,6.33,1.12c2.56,0.49,4.74,1.71,6.61,3.54c3.53,3.47,7.18,6.81,10.64,10.35c4.61,4.71,9.06,9.57,13.61,14.34
	c3.83,4.02,7.79,7.94,11.53,12.04c3.57,3.92,6.92,8.05,10.41,12.05c1.33,1.53,2.78,2.94,4.13,4.45c0.5,0.56,1,1.17,1.29,1.85
	c0.85,1.97,1.44,2.74,2.98,3.82c0.7,0.5,1.31,1.14,1.95,1.72c-0.34,0.07-0.79,0.04-0.98,0.24c-0.15,0.15,0.03,0.62,0.07,0.94
	c0.21-0.09,0.54-0.12,0.6-0.27c0.14-0.32,0.13-0.69,0.19-1.04c0.78,0.97,1.55,1.94,2.34,2.9c0.62,0.76,0.55,1.6,0.12,2.52
	c1.07,0.36,2.15,0.45,2.82,1.02c0.83,0.7,1.49,1.72,1.9,2.74c0.36,0.89,1.03,1.26,1.63,1.85c1.05,1.03,1.82,2.34,2.71,3.54
	c-0.19,0.43-0.45,0.84-0.53,1.29c-0.04,0.23,0.22,0.52,0.35,0.79c0.11-0.03,0.23-0.07,0.34-0.1c-0.1-0.69-0.2-1.38-0.29-2.06
	c2.64,3.73,5.19,7.51,6.52,11.96l0.09-0.07c-1.07,0.33-2.22,0.51-3.17,1.04c-0.77,0.44-1.17-0.09-1.73-0.22l0.11,0.11
	c-0.44-4.01-1.07-4.97-4.29-6.36c-0.45,0.44-0.95,0.95-1.44,1.44c0.03-0.26,0.04-0.5,0.06-0.75
	C329.63,345.71,329.62,345.95,329.62,346.18z M330.75,341.79c-0.19-0.49-0.3-0.89-0.34-0.89c-0.43,0.08-0.85,0.23-1.27,0.36
	c0.1,0.18,0.17,0.49,0.29,0.51C329.83,341.84,330.24,341.79,330.75,341.79z"
		/>
		<path
			fill="#172E4B"
			d="M169.39,121.18c-0.64,1.68-1.12,3.15,0.25,4.45c0.24,0.22,0.25,0.7,0.32,1.08c0.52,2.74,1.07,5.47,1.52,8.22
	c0.47,2.87,0.55,5.74-0.34,8.58c-0.22,0.7-0.09,1.5-0.13,2.26c-0.13,2.02-0.46,4.06-0.34,6.07c0.12,2.06-1.23,3-2.51,3.94
	c-1.52,1.1-4.42,0.24-5.1-1.83c-1.37-4.15-4.21-7.7-4.71-12.2c-0.13-1.21-0.95-2.32-1.33-3.52c-2.36-7.48-4.92-14.89-6.98-22.47
	c-1.55-5.73-3.26-11.43-5.97-16.8c-1.7-3.36-2.65-7.1-3.97-10.66c-2.38-6.4-4.65-12.84-7.69-18.99
	c-2.69-5.45-5.31-10.95-7.09-16.79c-0.29-0.96-0.54-1.95-0.62-2.94c-0.06-0.74-0.01-1.59,0.32-2.22c0.32-0.6,1.07-0.97,1.82-1.61
	c-0.88-2.19-0.65-4.58-0.78-6.95c-0.1-1.84-0.83-3.65-1.29-5.5c0.03-0.09,0.03-0.27,0.11-0.32c0.87-0.48,1.74-0.94,2.72-1.46
	c0.54,0.44,1.01,0.83,1.54,1.26c0.48-0.31,0.97-0.63,1.68-1.1c1.01,0.6,2.11,1.2,3.15,1.9c1.04,0.71,2.04,1.49,3.02,2.29
	c0.58,0.48,1.2,0.98,1.58,1.6c1.1,1.83,2.08,3.73,3.12,5.6c1.35,2.43,2.69,4.87,4.09,7.28c0.59,1.02,1,2.06,0.82,3.25
	c-0.2,1.35,0.37,2.43,0.94,3.59c0.81,1.66,1.75,3.41,1.95,5.19c0.18,1.58,0.68,2.61,1.87,3.48c0.3,0.22,0.53,0.54,0.92,0.96
	c0.03,1.13-0.84,2.62,0.72,3.59c0.17,0.1,0.1,0.71,0.03,1.06c-0.27,1.34,0.23,2.48,0.79,3.63c1.49,3.09,2.56,6.33,3.26,9.69
	c0.15,0.74,0.33,1.5,0.66,2.18c1.53,3.19,2.95,6.4,3.24,9.99c0.02,0.25,0.04,0.55,0.19,0.73c2.77,3.28,2.33,7.65,3.82,11.39
	c1.2,3.01,2.27,6.18,2.58,9.49C167.65,119.73,168.01,120.79,169.39,121.18z"
		/>
		<path
			fill="#172E4B"
			d="M3.12,156.36c-0.09-0.6-0.17-1.21-0.28-1.98c2.75-0.8,5.37-0.68,8-0.36c1.13,0.14,2.25,0.34,3.38,0.44
	c2.01,0.18,4,0.28,5.92,1.11c1.31,0.57,3.06,0.27,4.21,1c1.32,0.84,2.71,0.52,3.97,0.99c2.61,0.98,5.24,1.95,7.73,3.19
	c5.55,2.78,11.04,5.66,16.5,8.61c4.44,2.39,9.05,4.46,13.3,7.27c2.69,1.78,5.96,2.68,8.94,4.02c1.14,0.51,2.22,1.19,3.35,1.74
	c1.47,0.71,2.98,1.37,4.46,2.06c1.15,0.53,2.31,1.03,3.42,1.63c3.45,1.88,6.98,3.56,10.68,4.88c1.77,0.63,3.42,1.62,5.1,2.5
	c2.91,1.52,6.19,2.19,9,4.01c1.11,0.72,2.67,0.75,4,1.16c1.34,0.41,2.64,0.85,3.15,2.45c0.16,0.5,0.82,1.04,1.36,1.18
	c2.21,0.6,3.39,2.08,4,4.18c0.14,0.47,0.47,0.89,0.74,1.39c-0.2,1.07-0.34,2.18-0.63,3.26c-0.62,2.31-1.79,3.24-4.17,2.89
	c-3.13-0.46-6.24-1.09-9.3-1.88c-3.53-0.91-6.95-2.28-10.51-3.04c-2.41-0.51-4.52-1.65-6.72-2.53c-2.11-0.84-4.29-1.49-6.37-2.38
	c-1.85-0.8-3.69-1.65-5.54-2.45c-2.09-0.91-4.22-1.74-6.28-2.7c-3.09-1.45-6.09-3.09-9.21-4.47c-3.11-1.39-6.32-2.54-9.47-3.84
	c-1.28-0.53-2.49-1.2-3.76-1.76c-1.96-0.86-3.95-1.68-5.92-2.53c-0.93-0.4-1.86-0.8-2.75-1.28c-2.34-1.25-4.61-2.59-7.2-3.39
	c-1.66-0.52-3.12-1.65-4.65-2.55c-3.06-1.79-6.21-3.46-9.14-5.44c-2.3-1.55-4.48-3.35-6.44-5.32c-2.35-2.36-5.05-4.14-7.78-5.98
	c-1.96-1.32-3.59-3.17-5.3-4.84c-0.33-0.32-0.41-0.94,0.29-1.22c0.21-0.02,0.4-0.03,0.6-0.04C3.56,156.34,3.34,156.35,3.12,156.36z
	"
		/>
		<path
			fill="#172E4B"
			d="M263.38,207.01c0.14-1.53-0.45-3.05,1.1-3.96c-0.25-1.6,1.26-1.96,1.98-2.88c0.77-0.99,2.28-1.1,2.69-2.58
	c0.12-0.44,1.28-0.66,2.01-0.85c6.4-1.67,12.88-2.65,19.51-2.81c3.66-0.09,7.31-0.62,10.98-0.87c7.34-0.5,14.68-0.95,22.02-1.41
	c4.68-0.3,9.36-0.61,14.05-0.88c3.16-0.18,6.33-0.3,9.5-0.45c4.81-0.22,9.63-0.41,14.44-0.67c3.57-0.19,7.11,0.09,10.62,0.65
	c2.79,0.45,5.35,1.58,7.45,3.54c2.01,1.87,2.09,3.63,0.35,5.62c-1.83,2.09-3.79,4.11-5.42,6.35c-2.81,3.88-6.67,4.94-11.08,4.27
	c-5.66-0.85-11.34-1.33-17.06-1.12c-8.49,0.32-16.97,0.88-25.46,1.23c-8.62,0.36-17.24,0.67-25.87,0.85
	c-4.69,0.1-9.36-0.5-14.01-1.19c-3.38-0.5-6.81-0.7-10.22-0.93C268.39,208.76,265.95,208.23,263.38,207.01z"
		/>
		<path
			fill="#172E4B"
			d="M243.43,396.11c-0.72,0.22-1.19,0.36-1.85,0.56c-0.3-1.24-0.59-2.42-0.88-3.63c-1.12,0.12-2.15,0.48-3.05,0.27
	c-1.33-0.31-2.62-0.94-3.82-1.62c-0.44-0.25-0.73-1.01-0.81-1.57c-0.15-1.06,0.3-1.99,1.09-2.72c0.55-0.5,1.15-0.97,1.83-1.54
	c-0.61-2.86-0.93-5.76-2.45-8.32c-0.86-1.44-1.18-2.98-1.31-4.67c-0.12-1.56-0.25-3.2-1.14-4.68c-0.49-0.81-0.59-1.96-0.58-2.95
	c0.01-4.82-0.36-9.63-1.33-14.33c-1.39-6.77-3.87-13.11-8.27-18.61c-2.79-3.49-4.85-7.43-6.24-11.71c-1.02-3.14-2.18-6.23-3.09-9.4
	c-0.96-3.35-0.92-6.78-0.16-10.18c0.55-2.48,1.02-4.98,1.78-7.4c1.01-3.23,2.59-6.32,1.83-9.87c0.85-2.38,1.57-4.82,2.59-7.13
	c0.64-1.46,2.14-1.59,3.04-0.31c1.74,2.49,3.49,5.01,4.91,7.69c3.39,6.41,6.04,13.08,7.68,20.22c2.74,11.89,5,23.85,6.88,35.89
	c0.78,5.02,1.64,10.02,2.41,15.04c0.64,4.17,2.02,8.12,3.3,12.11c0.51,1.57,0.98,3.16,1.58,4.69c2.35,6.05,2.7,12.36,2.55,18.75
	c-0.05,2.07-0.48,4.05-1.5,5.84c-0.41,0.73-1.11,1.39-1.83,1.82c-1.26,0.74-2.13,0.25-2.8-1.36
	C243.7,396.78,243.61,396.54,243.43,396.11z"
		/>
		<path
			fill="#172E4B"
			d="M133.15,116.36c0.57,1.47,1.33,2.61,3.08,3.02c1.09,0.25,2.14,1.29,1.8,2.55c-0.48,1.8,0.66,2.91,1.41,4.14
	c1.12,1.84,2.45,3.54,3.71,5.29c2,2.78,4.02,5.55,6.03,8.32c0.45,0.62,0.8,1.3,1.8,1.02c0.26-0.07,0.75,0.21,0.94,0.48
	c1.13,1.52,2.19,3.01,2.43,5.04c0.37,3.23,1.04,6.43,1.61,9.83c-0.63,0.86-1.35,1.85-2.23,3.05c-2.6-1.82-5.25-3.15-7.01-6.06
	c-2.82-4.64-6.22-8.92-9.73-13.1c-2.85-3.4-5.35-7.08-8.16-10.52c-2.64-3.24-5.32-6.48-8.27-9.43c-4.06-4.04-7.89-8.26-11.13-12.98
	c-4.81-7.01-9.5-14.09-14.26-21.13c-0.99-1.47-2.15-2.83-3.12-4.32c-2.35-3.61-4.66-7.25-6.92-10.92c-0.52-0.84-1-1.86-1.03-2.81
	c-0.1-4.06-1.9-7.56-3.39-11.18c-1.11-2.69-2.03-5.45-3.01-8.19c-0.13-0.35-0.24-0.77-0.16-1.12c0.09-0.45,0.27-1.05,0.6-1.25
	c0.35-0.2,1.16-0.2,1.38,0.05c1.63,1.85,3.88,2.81,5.85,4.15c0.31,0.21,0.59,0.48,0.85,0.75c5.24,5.32,10.48,10.63,15.71,15.95
	c4.01,4.08,7.58,8.54,10.77,13.27c2.76,4.09,5.15,8.44,7.58,12.74c2.18,3.85,4.06,7.86,6.73,11.45c2.18,2.94,3.94,6.21,5.85,9.34
	c0.19,0.3,0.18,0.72,0.26,1.09l0.11-0.07c-1.2,0.29-1.23,0.34-0.57,1.2c0.14,0.18,0.37,0.3,0.56,0.45L133.15,116.36z"
		/>
		<path
			fill="#172E4B"
			d="M378.98,266.84c-1.09,0.58-1.97,0.97-2.76,1.51c-0.51,0.35-0.86,0.91-1.29,1.38c-2.91,0.22-5.8,0.46-8.68,0.66
	c-0.49,0.03-1.03,0.01-1.49-0.17c-4.36-1.68-8.85-2.95-13.27-4.4c-2.28-0.75-4.57-1.52-6.74-2.53c-5.21-2.42-10.86-3.43-16.25-5.3
	c-8.14-2.82-16.32-5.52-24.51-8.19c-5.54-1.81-11.14-3.46-16.7-5.2c-7.38-2.3-14.85-4.33-22.01-7.27c-2.44-1.01-4.74-2.4-7.03-3.73
	c-1.24-0.72-1.26-1.89-0.13-2.8c0.67-0.54,1.47-1,2.29-1.26c5.99-1.97,12.08-2.6,18.36-1.6c8.41,1.34,16.51,3.89,24.73,6
	c5.88,1.51,11.78,2.95,17.54,4.94c4.81,1.66,9.46,3.61,14.04,5.82c4.34,2.09,8.73,4.07,13.08,6.15c9.84,4.7,19.69,9.39,29.18,14.79
	C377.83,265.92,378.29,266.34,378.98,266.84z M373.23,267.76c-0.07-0.19-0.12-0.39-0.22-0.56c-0.03-0.04-0.3-0.02-0.33,0.03
	c-0.08,0.18-0.09,0.38-0.13,0.57C372.78,267.79,373.01,267.78,373.23,267.76z"
		/>
		<path
			fill="#172E4B"
			d="M177.87,42.79c-0.34-1.6-0.74-3.18-1-4.79c-0.12-0.74-0.02-1.66,0.81-1.92c0.65-0.2,1.5-0.17,2.14,0.08
	c1.62,0.63,2.64,2.07,3.23,3.54c0.92,2.3,2.38,4.45,2.3,7.11c-0.02,0.85,0.22,1.78,0.6,2.55c0.79,1.6,1.38,3.15,1.04,5
	c-0.11,0.59,0.37,1.28,0.9,1.83c-0.04-0.37-0.08-0.73-0.12-1.1l0.01,0.04c1.07,0.47,1.45,1.39,1.49,2.46
	c0.14,3.55,0.18,7.1,0.38,10.65c0.17,3.01,0.51,6,0.74,9.01c0.04,0.47,0.08,1.2-0.18,1.39c-1.24,0.89-0.81,2.03-0.65,3.13
	c0.84,5.64,1.63,11.3,2.6,16.92c0.49,2.85,0.81,5.73,1.76,8.53c0.67,2,0.74,4.24,0.83,6.39c0.17,3.91,0.15,7.84,0.22,11.76
	c0.01,0.5-0.06,1.04,0.11,1.49c0.94,2.57,0.33,4.97-0.57,7.41c-1.23,3.32-2.25,6.72-3.46,10.05c-0.97,2.68-2.63,4.91-4.94,6.62
	c-1.73,1.27-3.73,0.59-4.06-1.47c-0.23-1.48-0.19-3.02-0.19-4.53c-0.01-2.89,0.3-5.77-0.45-8.67c-0.4-1.54-0.21-3.3,0.04-4.91
	c0.2-1.29,0.16-2.38-0.21-3.67c-0.35-1.23,0.23-2.71-1.09-3.7c-0.08-0.06-0.12-0.25-0.09-0.36c0.55-2.17-0.46-4.19-0.58-6.28
	c-0.11-2.01,0.06-4.03,0.1-6.04c0.01-0.51,0.04-1.02,0.02-1.52c-0.12-3.41-0.25-6.82-0.36-10.23c-0.02-0.51-0.06-1.03,0.05-1.52
	c0.52-2.19,0.32-4.27-0.74-6.28c-0.28-0.54-0.46-1.22-0.43-1.82c0.13-2.62-1.4-4.86-1.65-7.39c-0.02-0.24-0.11-0.54-0.28-0.69
	c-2.15-1.96-1.81-4.6-2.01-7.1c-0.07-0.88-0.04-1.79-0.22-2.65c-0.9-4.25-0.35-8.32,1.51-12.21c1.71-3.55,2.14-7.22,1.41-11.08
	c-0.28-1.48-0.42-2.98-0.64-4.65c0.5-0.43,1.06-0.92,1.62-1.39c-0.11,0.27-0.21,0.53-0.31,0.79c0.03,0.01,0.06,0.02,0.09,0.04
	C177.72,43.32,177.8,43.05,177.87,42.79z"
		/>
		<path
			fill="#172E4B"
			d="M380.29,234.39c-1.34,2.22-3.17,0.02-4.45,1.31c-0.23,0.56-0.32,1.59-1.51,1.47c-2.05-0.21-4.02-0.1-5.92,0.83
	c-0.49,0.24-1.23,0-1.85-0.09c-5.13-0.75-10.27-1.47-15.39-2.29c-5.87-0.94-11.73-1.98-17.59-2.98c-4.74-0.81-9.48-1.57-14.21-2.44
	c-2.49-0.46-4.95-1.05-7.4-1.7c-5.05-1.34-10.2-1.88-15.4-2.14c-6.21-0.31-12.33-1.36-18.42-2.58c-2.36-0.47-4.74-0.8-7.1-1.3
	c-1.47-0.31-2.93-0.77-4.35-1.28c-0.85-0.3-1.71-0.92-1.49-1.92c0.14-0.64,0.76-1.29,1.33-1.68c0.82-0.56,1.79-0.89,2.77-1.35
	c0-0.78-0.01-1.51,0-2.25c0.02-1.64,0.63-2.4,2.13-2.59c0.63-0.08,1.27-0.07,1.9-0.06c3.42,0.06,6.86-0.04,10.27,0.23
	c5.05,0.4,10.08,0.98,15.1,1.64c4.26,0.56,8.49,1.37,12.74,2.03c8.39,1.29,16.8,2.43,25.16,3.85c10.13,1.72,20.07,4.28,29.66,7.94
	c4.01,1.53,7.76,3.72,11.61,5.66C378.68,233.1,379.34,233.71,380.29,234.39z"
		/>
		<path
			fill="#172E4B"
			d="M239.71,172.56c0.71-0.86,1.44-1.46,1.78-2.23c0.81-1.83,2.47-2.71,4.1-2.97c4.28-0.69,7.26-3.39,10.39-5.93
	c4.33-3.52,8.57-7.15,12.99-10.54c3.62-2.78,7.47-5.25,11.18-7.91c2.89-2.07,5.37-4.57,7.81-7.15
	c5.67-5.98,10.91-12.37,17.13-17.84c1.9-1.67,3.74-3.45,5.36-5.38c2.48-2.96,5.66-5.07,8.66-7.37c2.49-1.91,4.9-3.94,7.66-5.51
	c1.15-0.65,2.22-1.14,3.54-1.18c0.82,0.75,0.96,1.67,0.94,2.75c-0.05,2.74-0.63,5.14-2.82,7.12c-1.72,1.55-3,4.58-3.9,7.47
	c-0.13,0.43-0.49,0.8-0.8,1.15c-0.16,0.18-0.55,0.23-0.61,0.42c-1.16,3.6-4.45,5.71-6.2,8.89c-0.3,0.55-0.84,1.01-1.03,1.59
	c-0.55,1.71-1.6,2.83-3.31,3.39c-0.47,0.15-1.03,0.4-1.28,0.78c-1.07,1.62-2.54,2.73-4.15,3.76c-0.81,0.52-1.2,1.76-2.03,2.19
	c-3.73,1.94-6.82,4.8-10.3,7.09c-6.99,4.59-14.52,8.34-21.06,13.61c-3.56,2.86-7.14,5.7-10.64,8.62c-5.34,4.44-11.47,7.45-17.86,10
	c-0.35,0.14-0.73,0.21-1.1,0.32c-2.58,0.73-4.04-0.33-4.25-3.07C239.85,173.98,239.78,173.36,239.71,172.56z"
		/>
		<path
			fill="#172E4B"
			d="M376.01,144.75c0,1.87-1.55,2.12-2.32,2.97c0.19,0.69,0.73,1.56,0.49,1.94c-0.72,1.15-1.6,2.32-2.69,3.11
	c-5.03,3.69-10.4,6.75-16.38,8.68c-9.42,3.04-18.53,6.87-27.58,10.85c-7.68,3.38-15.64,5.94-23.73,8.06
	c-9.68,2.54-19.39,4.93-29.1,7.34c-2.58,0.64-5.21,1.08-7.81,1.65c-2.61,0.58-5.04,0.62-6.77-2.16c0.2-0.55,0.48-1.33,0.77-2.1
	c0.13-0.35,0.19-0.9,0.43-1c1.8-0.78,2.3-2.49,2.88-4.28c1.05,0.29,1.89,0.53,2.73,0.76c2.14,0.6,4.22,0.48,6.35-0.26
	c3.82-1.33,7.75-2.39,11.54-3.81c4.15-1.55,8.18-3.39,12.28-5.06c12.32-5.02,24.56-10.27,37.01-14.96
	c10.9-4.11,21.95-7.89,33.34-10.5c2.22-0.51,4.4-1.24,6.63-1.71C374.67,144.15,375.4,144.59,376.01,144.75z"
		/>
		<path
			fill="#172E4B"
			d="M213.9,115.13c0.44-2.79,0.87-5.59,1.32-8.38c0.01-0.09,0.16-0.18,0.26-0.22c0.05-0.02,0.14,0.11,0.21,0.17
	c0,1.28,0,2.56,0,4.42c0.87-1.91,0.96-3.2-0.02-4.42c0.75-0.23,1.55-0.54,1.27-1.49c-0.15-0.5-0.76-0.87-1.2-1.33
	c0.44-2.04,0.88-4.1,1.35-6.26c1.06,0.48,0.5,1.08,0.4,1.62c0.27,0.68-0.87,1.45,0.38,2.2c-0.17-0.88-0.3-1.58-0.43-2.28
	c0.29-0.24,0.75-0.43,0.83-0.72c0.32-1.22,0.52-2.47,0.78-3.71c0.14-0.66,0.07-1.21-0.51-1.7c-0.23-0.19-0.44-0.83-0.33-0.96
	c1.34-1.47,0.32-3.31,0.85-4.93c0.55-1.66,0.57-3.49,1.02-5.2c0.67-2.49,0.46-5.03,0.57-7.55c0.05-1.06,0.4-1.81,1.29-2.57
	c2.34-1.99,3.94-4.58,4.8-7.51c0.42-1.43,0.38-2.99,0.55-4.56c0.47-0.22,1-0.47,1.73-0.82c-1.05-2.43-0.59-4.69,1.04-6.97
	c0.44-0.03,1.13-0.29,1.65-0.08c1.19,0.47,2.15,1.31,2.72,2.52c0.91,1.96,1.66,3.96,2,6.12c0.29,1.84,0.39,3.75,1.81,5.3
	c0.47,0.51,0.37,1.69,0.27,2.54c-0.61,5.04-1.42,10.04-3.23,14.82c-0.54,1.42-1.05,2.86-1.65,4.25c-2.99,6.9-4.55,14.24-6.4,21.47
	c-2.46,9.57-4.66,19.21-7.03,28.81c-1.16,4.7-3.09,9.11-5.35,13.39c-1.05,1.99-2.91,3.11-4.35,4.56c-0.93,0.11-1.8,0.27-2.66,0.31
	c-0.85,0.04-1.63-1.06-1.4-1.88c0.07-0.24,0.15-0.49,0.29-0.7c1.39-2.07,1.68-4.49,2.15-6.85l-0.07,0.12
	c0.38-0.79,0.91-1.55,1.11-2.39c0.85-3.57,1.61-7.15,2.36-10.74c0.06-0.3-0.19-0.67-0.33-1.1c-1.22,0.48-0.74,1.53-0.94,2.29
	c-0.26,0.97-0.53,1.94-0.63,2.93c-0.09,0.86-0.03,1.7-1.43,1.81c0.41-3.79,0.77-7.37,1.74-10.9c0.83-3.04,1.23-6.19,1.93-9.26
	c0.33-1.46,0.91-2.86,1.39-4.29c0.02,0.62,0.08,1.25,0.06,1.88c-0.08,3.2-1.19,6.18-1.95,9.24c-0.33,1.33-0.67,2.62,0.16,4.07
	c0.32-0.38,0.71-0.62,0.75-0.91c0.62-4.94,2.43-9.71,2.36-15.2C214.66,114.59,214.28,114.86,213.9,115.13z"
		/>
		<path
			fill="#172E4B"
			d="M208.87,146.55c-0.66,1.46-1.32,2.91-1.96,4.33c-0.92-0.11-1.41-0.63-1.07-1.27c1.33-2.43,2.12-5.02,2.4-7.69
	c0.94-0.32,0.99,0.24,0.96,0.71c-0.1,1.35-0.27,2.7-0.41,4.04C208.79,146.67,208.87,146.55,208.87,146.55z"
		/>
		<path
			fill="#172E4B"
			d="M335.21,351.04c-0.08,0.72-0.16,1.44-0.24,2.13c-1,0.2-1.25-0.39-1.27-1.03c-0.03-1.18,1.07-0.65,1.62-0.98
	C335.32,351.15,335.21,351.04,335.21,351.04z"
		/>
		<path
			fill="#172E4B" d="M213.27,0.39c-0.46,0-0.93,0-1.39,0c0-0.05,0-0.1,0-0.15c0.46,0,0.93,0,1.39,0C213.27,0.29,213.27,0.34,213.27,0.39z" />
		<path
			fill="#172E4B"
			className="st0"
			d="M322.11,323.84c-0.06,0.35-0.05,0.72-0.19,1.04c-0.06,0.15-0.39,0.18-0.6,0.27c-0.03-0.32-0.21-0.79-0.07-0.94
	c0.2-0.21,0.64-0.17,0.98-0.24C322.24,323.97,322.11,323.84,322.11,323.84z"
		/>
		<path
			fill="#172E4B"
			className="st0"
			d="M333.49,338.33c0.1,0.69,0.2,1.38,0.29,2.06c-0.11,0.03-0.23,0.07-0.34,0.1c-0.13-0.26-0.39-0.55-0.35-0.79
	c0.08-0.45,0.34-0.86,0.53-1.29C333.63,338.41,333.49,338.33,333.49,338.33z"
		/>
		<path
			fill="#172E4B"
			d="M228.62,0c0.07,0.07,0.13,0.15,0.2,0.22c-0.12,0.03-0.23,0.1-0.34,0.09c-0.07-0.01-0.13-0.13-0.2-0.21
	C228.39,0.07,228.5,0.03,228.62,0z"
		/>
		<path
			fill="#172E4B"
			d="M133.16,114.9c0.21,0.1,0.52,0.14,0.61,0.3c0.19,0.36,0.27,0.79,0.4,1.19c-0.34-0.01-0.68-0.02-1.02-0.03
	c0,0,0.11,0.12,0.11,0.12c0-0.55,0-1.1,0-1.65L133.16,114.9z"
		/>
		<path
			fill="#172E4B"
			d="M225.79,63.42c-0.05,0.09-0.09,0.25-0.16,0.26c-0.09,0.02-0.2-0.07-0.3-0.12c0.08-0.13,0.16-0.27,0.25-0.4
	C225.64,63.25,225.71,63.34,225.79,63.42z"
		/>
		<path
			fill="#172E4B"
			d="M0.6,277.2c-0.2-0.05-0.4-0.11-0.6-0.16c0.2-0.17,0.4-0.35,0.6-0.52c0,0-0.1-0.08-0.1-0.08c0,0.29,0,0.58-0.01,0.86
	L0.6,277.2z"
		/>
		<path
			fill="#172E4B" d="M187.77,55.09c0.06-0.19,0.13-0.38,0.19-0.57c-0.06,0.2-0.12,0.39-0.18,0.59C187.79,55.13,187.77,55.09,187.77,55.09z" />
		<path
			fill="#172E4B" d="M340.02,350.28c0.09,0.22,0.17,0.44,0.26,0.66c-0.65-0.1-0.3-0.44-0.17-0.73C340.11,350.21,340.02,350.28,340.02,350.28z" />
		<path
			fill="#172E4B"
			className="st0"
			d="M19.69,327.18c-0.11,0.02-0.23,0.09-0.32,0.06c-0.09-0.03-0.14-0.16-0.21-0.24c0.16-0.04,0.31-0.08,0.47-0.12
	C19.66,326.98,19.67,327.08,19.69,327.18z"
		/>
		<path
			fill="#172E4B"
			className="st0"
			d="M95.43,388.99c0.04-0.09,0.07-0.17,0.11-0.26c0.09,0.04,0.19,0.08,0.28,0.12c-0.04,0.08-0.07,0.22-0.11,0.23
	C95.62,389.09,95.52,389.02,95.43,388.99z"
		/>
		<path
			fill="#172E4B"
			className="st0"
			d="M0.49,277.3c0-0.29,0-0.58,0.01-0.86c0.59,0.05,1.18,0.08,1.77,0.17c0.21,0.03,0.4,0.21,0.94,0.51
	C2.08,277.19,1.29,277.24,0.49,277.3z"
		/>
		<path
			fill="#172E4B"
			className="st0"
			d="M8.52,277.1c-0.42,0.12-0.84,0.25-1.26,0.37c-0.06-0.21-0.12-0.41-0.17-0.62c0.45-0.06,0.9-0.12,1.35-0.17
	C8.46,276.82,8.49,276.96,8.52,277.1z"
		/>
		<path
			fill="#172E4B"
			className="st0"
			d="M369.15,311.75c-0.32,0.06-0.81,0.27-0.93,0.14c-0.34-0.36,0.03-0.9,0.63-0.88
	C368.96,311.02,369.05,311.5,369.15,311.75C369.16,311.77,369.15,311.75,369.15,311.75z"
		/>
		<path
			fill="#172E4B"
			className="st0"
			d="M369.42,314.1c-0.09-0.78-0.18-1.56-0.27-2.34c0,0,0.01,0.01,0.01,0.01c0.08,0.8,0.16,1.6,0.23,2.41
	C369.38,314.18,369.42,314.1,369.42,314.1z"
		/>
		<path
			fill="#172E4B"
			className="st0"
			d="M239.59,136.54c-0.32,0.22-0.56,0.38-0.8,0.55c-0.05-0.09-0.16-0.21-0.14-0.27c0.09-0.18,0.2-0.4,0.36-0.49
	C239.11,136.28,239.32,136.44,239.59,136.54z"
		/>
		<path
			fill="#172E4B"
			className="st0"
			d="M330.75,341.79c-0.51,0-0.92,0.04-1.32-0.02c-0.12-0.02-0.2-0.33-0.29-0.51c0.42-0.13,0.84-0.27,1.27-0.36
	C330.45,340.9,330.57,341.3,330.75,341.79z"
		/>
		<path
			fill="#172E4B"
			className="st0"
			d="M329.62,346.18c0.01-0.23,0.02-0.47,0.02-0.7c-0.02,0.25-0.03,0.49-0.06,0.75
	C329.57,346.24,329.62,346.18,329.62,346.18z"
		/>
		<path
			fill="#172E4B"
			className="st0"
			d="M3.12,156.36c0.22-0.01,0.44-0.02,0.65-0.03c-0.19,0.01-0.39,0.02-0.6,0.04
	C3.17,156.37,3.12,156.36,3.12,156.36z"
		/>
		<path
			fill="#172E4B"
			className="st0"
			d="M133.27,114.83c0,0.55,0,1.1,0,1.65c-0.19-0.15-0.42-0.26-0.56-0.45
	C132.04,115.17,132.07,115.12,133.27,114.83z"
		/>
		<path
			fill="#172E4B"
			className="st0"
			d="M373.23,267.76c-0.23,0.01-0.46,0.03-0.68,0.04c0.04-0.19,0.05-0.4,0.13-0.57c0.02-0.05,0.3-0.08,0.33-0.03
	C373.11,267.37,373.16,267.57,373.23,267.76z"
		/>
		<path
			fill="#172E4B"
			className="st0"
			d="M177.87,42.79c-0.07,0.26-0.15,0.53-0.22,0.79c-0.03-0.01-0.06-0.02-0.09-0.04c0.1-0.26,0.2-0.52,0.31-0.79
	C177.88,42.75,177.87,42.79,177.87,42.79z"
		/>
		<path
			fill="#172E4B"
			className="st0"
			d="M213.9,115.13c0.38-0.27,0.77-0.54,1.49-1.05c0.07,5.49-1.74,10.26-2.36,15.2c-0.04,0.29-0.43,0.53-0.75,0.91
	c-0.83-1.45-0.5-2.74-0.16-4.07c0.76-3.05,1.87-6.04,1.95-9.24c0.01-0.63-0.04-1.26-0.06-1.88
	C213.99,115.01,213.9,115.13,213.9,115.13z"
		/>
		<path
			fill="#172E4B"
			className="st0"
			d="M215.68,106.7c0.98,1.22,0.89,2.51,0.02,4.42c0-1.86,0-3.14,0-4.42C215.7,106.7,215.68,106.7,215.68,106.7z"
		/>
		<path
			fill="#172E4B"
			className="st0"
			d="M217.45,99.16c0.13,0.7,0.26,1.4,0.43,2.28c-1.25-0.76-0.11-1.52-0.38-2.2
	C217.49,99.22,217.45,99.16,217.45,99.16z"
		/>
	</g>
</svg>