<svg
	version="1.1"
	id="Layer_1"
	xmlns="http://www.w3.org/2000/svg"
	x="0px"
	y="0px"
	viewBox="0 0 374.56 312.55"
	xmlSpace="preserve"
>
	<g>
		<path
			fill="#172E4B"
			d="M267.35,253.56c-0.98,1.23-2,2.41-3.77,2.28c-5.14-0.39-9.79,1.4-14.41,3.2c-1-0.45-1.97-0.88-2.92-1.31
	c-2.19,3.53-2.19,3.53-5.44,2.44c-0.47,0.67-0.95,1.36-1.43,2.05c-2.38,0.85-5.25-0.47-7.36,2.2c-0.85,1.07-3.47,1.58-4.93,1.14
	c-2.51-0.75-3.48,1.49-5.29,1.83c-1.71,0.32-3.63,0.12-5.13,0.84c-6.61,3.16-14.03,3.1-20.84,5.42c-1.03,0.35-2.46-0.62-3.59-0.39
	c-0.93,0.19-1.7,1.87-2.49,1.83c-3.59-0.19-6.64,2.09-10.3,1.76c-3.96-0.36-7.81,0.83-11.36,2.58c-1.91,0.94-3.84,1.43-5.72,0.71
	c-3.47-1.32-6.89-0.31-10.26-0.53c-0.46,1.05-0.82,1.85-1.17,2.65c-4.12,2.97-7.24-1.27-11.04-1.53c-0.52,0.82-1.07,1.7-1.61,2.55
	c-1.23,0.45-2.27-2.52-3.59-0.17c-0.07,0.13-0.43,0.21-0.6,0.15c-7.19-2.68-13.77,1.08-20.62,1.95c-0.85,0.11-1.62,0.75-2.47,0.89
	c-1.6,0.26-1.64,3.22-3.29,2.39c-1.89-0.95-2.87,0.52-4.27,0.74c-5.77,0.88-11.33,2.7-17.07,3.8c-6.4,1.23-13.03,1.94-19,5.07
	c-2.73,1.43-5.86,1.27-9.08,0.57c-0.74,0.95-1.54,1.99-2.1,2.71c-1.22,0-1.89,0.09-2.53-0.02c-1.74-0.28-3.45-0.76-5.2-0.93
	c-3.19-0.32-5.85,0.88-6.36,3.39c-0.59,2.87-2.03,4.93-4.38,6.28c-2.46,1.41-5.14,2.42-8.09,2.43c-6.68,0.03-11.44-3.18-14.24-9
	c-3.44-7.14-6.57-14.44-9.64-21.75c-2.27-5.4-2.54-11.14-1.96-16.91c0.22-2.19,0.18-4.17-0.77-6.35c-1.21-2.76-1.44-5.76-0.32-8.91
	c1.31-3.7,2.11-7.61,2.82-11.49c0.53-2.89,2.21-4.69,4.47-6.22c3.17-2.15,6.79-3.16,10.45-3.93c4.52-0.96,9.07-1.78,13.63-2.51
	c5.48-0.88,10.88-1.01,16.26,1.11c3.04,1.2,6.4,1.56,9.62,2.31c6,1.4,11.99,2.85,18,4.19c3.42,0.76,6.87,1.39,10.32,2
	c0.59,0.1,1.59,0,1.82-0.37c1.45-2.34,3.98-1.69,5.95-2.02c15.23-2.55,30.04-6.57,44.61-11.62c3.92-1.36,8.06-2.1,12.05-3.28
	c18.8-5.55,37.6-11.1,56.37-16.75c12.86-3.87,25.79-7.32,39.06-9.63c8.6-1.49,17.3-3.05,25.37-6.85c2.12-1,4.63-1.2,6.98-1.69
	c7.88-1.66,15.77-3.29,24.01-5.01c-1.39-4.21-2.68-8.12-3.96-12c-4.33-0.73-8.46-0.51-12.55-1.57
	c-7.07-1.82-11.59-5.92-13.62-12.77c-0.81-2.73-1.07-5.61-1.61-8.42c-0.45-2.35-0.95-4.7-1.49-7.35c-1.85-0.19-3.56-0.48-5.27-0.5
	c-3.04-0.04-6.06,1.19-9.14,0.03c-0.52-0.2-1.35,0.04-1.88,0.34c-3.06,1.77-5.41,0.39-7.81-1.48c-3.47-2.71-7.08-5.29-8.45-9.78
	c-0.76-2.51-1.37-5.06-2.3-8.59c-5.39-4.05-7.71-11.4-11.5-17.94c-2.88,1.5-5.32,2.99-7.93,4.06c-2.57,1.06-5.28,1.89-8,2.42
	c-1.15,0.22-2.52-0.52-3.75-0.94c-5.98-2-10.4-5.48-11.6-12.11c-1.03-5.68-1.44-11.35-0.69-17.1c2.74-20.92,9.13-40.76,17.04-60.24
	c1.72-4.23,5.32-6.13,7.83-9.28C222.84,4.24,226.61,0,231.86,0c2.14,0,3.96,0.42,5.43,1.86c3.5,3.43,7.55,5.91,11.95,8.04
	c2.53,1.23,4.85,3.06,6.95,4.96c7.36,6.66,14.52,13.53,21.87,20.19c8.33,7.54,16.87,14.8,25.96,21.45
	c4.41,3.23,8.73,6.89,12.12,11.14c6.4,8.01,13.92,14.72,21.78,21.13c5.63,4.6,10.5,10.04,16.47,14.3c2.18,1.55,3.8,4.37,4.82,6.95
	c3,7.56,6.26,15.08,7.52,23.21c0.51,3.27,0.94,6.55,1.26,9.84c0.65,6.8,1.26,13.6,1.77,20.41c0.16,2.19,0.09,4.42-0.16,6.6
	c-0.96,8.52-2.1,17.03-3.06,25.55c-0.76,6.76-1.37,13.54-2.02,20.04c3.05,2.9,6.96-0.03,10.04,2.67c-1.38,1.95-2.82,3.7-4.82,4.91
	c-4.13,2.48-8.32,4.87-12.47,7.33c-6.25,3.71-12.82,6.52-19.96,8.2c-3.34,0.78-6.94,1.31-9.78,3.7c-0.58,0.48-1.55,0.59-2.36,0.68
	c-10.02,1.18-20.02,2.62-30.07,3.3c-3.58,0.24-6.88,0.89-9.81,2.56c-4.26,2.42-9.13,2.63-13.53,4.44
	c-1.27,0.52-2.95,0.05-4.45,0.03c-0.34,0.06-0.67,0.11-1,0.17C266.66,253.63,267.01,253.6,267.35,253.56z M148.82,281.29
	c-0.03-0.13-0.02-0.33-0.11-0.39c-0.13-0.09-0.32-0.08-0.49-0.11c0.05,0.23,0.1,0.46,0.15,0.68
	C148.51,281.42,148.66,281.36,148.82,281.29z"
		/>
		<path
			fill="#172E4B"
			d="M187.41,47.46c-5,11.12-12.71,20.67-19.69,31.06c9.36,5.43,15.32,14.05,22.43,21.5c1.83,1.91,3.59,3.89,5.45,5.77
	c4.36,4.42,8.12,9.31,10.98,14.83c3.8,7.34,8.68,13.75,15.19,18.91c4.58,3.63,7.86,8.28,10.13,13.67c1.44,3.42,3.04,6.78,4.49,9.99
	c-1.2,1.96-1.96,3.83-3.27,5.15c-1.26,1.27-3.1,1.98-5,3.13c3.57,0.68,4.12,0.45,7.78-0.44c3.83-0.94,7.74-1.66,11.65-2.12
	c1.91-0.23,3.95,0.2,5.87,0.63c0.94,0.21,1.73,1.11,2.74,1.8c-1.03,2.24-1.89,4.22-2.84,6.15c-0.28,0.56-0.69,1.27-1.22,1.47
	c-5.23,1.98-9.06,6.73-15.21,7.11c-3.18,0.19-6.35,1.71-9.37,2.98c-5.85,2.45-12.3,3.1-17.91,6.39c-2.57,1.51-5.82,2.1-8.84,2.55
	c-4.14,0.62-8.11,1.69-12.04,3.04c-1.25,0.43-2.51,0.84-3.8,1.14c-8.34,1.98-16.69,3.94-25.04,5.88c-2.13,0.49-4.29,0.86-6.43,1.33
	c-9.88,2.16-19.9,3.02-29.98,3.49c-9.88,0.46-19.76,0.89-29.62,1.54c-10.3,0.68-20.57,1.81-30.88,2.31
	c-5.06,0.25-10.04,0.93-15.06,1.45c-3.44,0.35-6.95,0.07-11.91,0.07c2.18-1.12,3.01-1.54,3.85-1.97c-2.7-0.82-5.26-1.45-8.25-0.81
	c-4.49,0.97-9.16,1.07-13.73,1.72c-1.94,0.28-3.81,1.03-5.72,1.56c-2.53,0.7-5.1,1.28-7.57,2.15c-1.36,0.48-2.54,1.45-3.81,2.2
	c-1.21-0.47-0.7-1.37-0.41-2.09c0.88-2.24,1.61-4.59,2.83-6.64c1.91-3.21,4.15-6.19,5.23-9.89c0.32-1.11,1.57-2.06,2.58-2.84
	c3.83-2.96,7.85-5.69,11.59-8.75c3.23-2.64,6.37-5.44,9.21-8.49c4.38-4.71,9.06-9,14.66-12.22c0.76-0.44,1.61-0.78,2.25-1.36
	c7.88-7.09,17.4-11.91,25.67-18.45c2.42-1.91,4.9-3.74,7.29-5.69c5.12-4.18,10.12-8.52,15.31-12.61
	c6.97-5.48,13.2-11.71,18.98-18.37c3.86-4.45,8.52-8.21,11.18-13.78c1.02-2.14,3.82-3.58,6.06-4.93c3.09-1.87,5.55-4.24,7.6-7.19
	c9.14-13.16,20.05-24.53,33.35-33.61c3.61-2.46,6.67-5.74,10-8.61C184.98,46.87,185.91,46.19,187.41,47.46z M31.86,212.33
	c0,0.08,0.01,0.16,0.01,0.24c0.56-0.03,1.11-0.05,1.67-0.08c0-0.05,0-0.11-0.01-0.16C32.98,212.33,32.42,212.33,31.86,212.33z
		M13.95,216.66l0.03-0.41l-0.45,0.17L13.95,216.66z M8.74,217.72l-0.51-0.28l-0.08,0.42L8.74,217.72z"
		/>
		<path
			fill="#172E4B"
			className="st0"
			d="M267.35,253.56c-0.35,0.04-0.69,0.07-1.04,0.11c0.33-0.06,0.67-0.11,1-0.17
	C267.32,253.5,267.35,253.56,267.35,253.56z"
		/>
		<path
			fill="#172E4B"
			className="st0"
			d="M148.82,281.29c-0.15,0.06-0.3,0.13-0.45,0.19c-0.05-0.23-0.1-0.46-0.15-0.68c0.17,0.03,0.36,0.02,0.49,0.11
	C148.79,280.96,148.78,281.16,148.82,281.29z"
		/>
		<path
			fill="#172E4B"
			className="st0"
			d="M31.86,212.33c0.56,0,1.11,0,1.67,0c0,0.05,0,0.11,0.01,0.16c-0.56,0.03-1.11,0.05-1.67,0.08
	C31.87,212.49,31.86,212.41,31.86,212.33z"
		/>
		<polygon
			className="st0"
			points="13.95,216.66 13.53,216.43 13.98,216.26 	"
		/>
		<polygon
			className="st0"
			points="8.74,217.72 8.15,217.86 8.23,217.44 	"
		/>
	</g>
</svg>