<?xml version="1.0" encoding="utf-8"?>
<!-- Generator: Adobe Illustrator 26.1.0, SVG Export Plug-In . SVG Version: 6.00 Build 0)  -->
<svg version="1.1" id="Layer_1" xmlns="http://www.w3.org/2000/svg" xmlns:xlink="http://www.w3.org/1999/xlink" x="0px" y="0px"
	 viewBox="0 0 371.31 303.6" style="enable-background:new 0 0 371.31 303.6;" xml:space="preserve">
<g>
	<path d="M195.15,159.65c1.24,0.96,1.24,0.98,2.27,0.87c1.36-0.14,2.72-0.48,4.06-0.43c2.37,0.08,4.6-0.41,6.69-1.42
		c2.23-1.08,4.3-2.44,5.97-4.32c0.73-0.83,1.31-1.8,2.08-2.59c2.07-2.11,3.53-4.57,4.7-7.26c1.51-3.49,2.55-7.05,2.38-10.9
		c-0.15-3.17,0.21-6.3,0.74-9.42c0.37-2.18,0.68-4.38,0.51-6.62c-0.06-0.84,0.09-1.7,0.14-2.55c0.08-1.23,0.52-2.3,1.24-3.3
		c1.1-1.52,2.14-3.08,3.13-4.68c1.85-2.99,3.49-6.11,4.16-9.58c1.19-6.2,1.2-12.39-0.62-18.49c-0.26-0.86-0.23-1.62,0.06-2.48
		c0.6-1.77,1.14-3.58,1.52-5.41c0.46-2.17,0.67-4.38,1.1-6.56c0.73-3.68,1.54-7.34,1.69-11.11c0.05-1.34,0.31-2.67,0.46-3.98
		c1.04-0.09,1.6,0.51,2.23,0.91c1.67,1.08,3.48,1.85,5.4,2.27c2.58,0.57,5.18,1.04,7.78,1.48c2.65,0.45,5.28,0.48,7.73-0.9
		c0.3-0.17,0.62-0.28,0.93-0.42c0.67-0.3,1.32-0.27,1.97,0.07c0.83,0.44,1.65,0.9,2.49,1.31c2.18,1.06,4.41,1.86,6.89,1.29
		c1.34,0.42,2.26,0,2.92-1.27c0.19-0.37,0.8-0.57,1.26-0.73c0.4-0.13,0.52-0.34,0.54-0.72c0.01-0.25,0.02-0.6,0.17-0.71
		c1.15-0.84,1.9-2.11,3.42-2.57c2.31-0.7,3.68-2.38,4.05-4.82c0.13-0.84,0.29-1.68,0.38-2.52c0.11-1.02,0.08-2.06,0.26-3.06
		c0.47-2.71,0.38-5.44,0.42-8.17c0.02-1.39-0.29-2.71-0.91-3.96c-2.73-5.52-6.31-10.3-11.66-13.61
		c-7.46-4.61-15.29-8.21-23.93-10.04c-4.77-1.01-9.57-1.75-14.38-2.43c-5.25-0.74-10.53-1.13-15.82-0.51
		c-2.37,0.28-4.72,0.73-7.09,1.01c-3.82,0.45-7.58,1.2-11.26,2.32c-1.39,0.42-2.79,0.81-4.2,1.14c-8.08,1.92-15.86,4.63-23.32,8.33
		c-5.39,2.67-10.28,6.05-14.96,9.77c-1.08,0.86-1.93,1.9-2.63,3.1c-1.65,2.84-2.59,5.94-3.47,9.05c-0.4,1.39-0.68,2.82-0.89,4.25
		c-0.27,1.82,0.41,3.44,1.72,4.62c1.59,1.43,3.35,2.67,5.67,2.62c0.32-0.01,0.65,0.13,0.92,0.19c0.21,0.29,0.38,0.48,0.5,0.7
		c1.2,2.16,3.13,3.11,5.5,3.13c2.56,0.01,5.12-0.13,7.59-0.92c3.34-1.07,6.75-0.78,10.15-0.41c0.41,0.04,0.82,0.24,1.21,0.4
		c2.88,1.15,5.63,2.49,7.36,5.26c0.04,0.07,0.11,0.13,0.16,0.2c2,2.28,4.44,3.69,7.53,3.83c0.48,0.02,0.95,0.15,1.5,0.25
		c-0.03,0.64-0.02,1.14-0.09,1.64c-0.44,3.04-0.86,6.08-1.63,9.06c-0.91,3.49-1.27,7.07-1.31,10.65c-0.07,4.96-0.21,9.9-0.73,14.83
		c-0.54,5.1-1.34,10.16-2.97,15.04c-0.57,1.7-1.2,3.35-2.28,4.84c-0.75,1.03-1.27,2.22-1.87,3.35c-1.59,3.02-3.22,6.02-5.18,8.82
		c-1.19,1.7-2.6,3.12-4.4,4.21c-1.53,0.92-2.93,2.05-4.33,3.17c-1.16,0.93-1.97,2.18-2.34,3.6c-0.61,2.4-0.95,4.85-0.67,7.36
		c0.32,2.98,1.4,5.6,3.53,7.76c1.62,1.64,3.28,3.21,5.35,4.31C186.52,159.86,190.56,160.81,195.15,159.65z"/>
	<path d="M357.85,170.84c0.78-0.23,1.48-0.31,2.03-0.64c1.97-1.19,3.93-2.41,5.82-3.72c1.48-1.02,2.8-2.25,3.67-3.87
		c2.52-4.71,2.53-9.52,0.26-14.26c-1.87-3.91-4.58-7.19-8.18-9.67c-6.74-4.66-13.47-9.34-20.24-13.96
		c-1.12-0.76-2.37-1.36-3.63-1.85c-1.59-0.62-3.23-1.09-4.87-1.57c-6.25-1.83-12.29-1.51-18.01,1.86c-0.69,0.41-1.37,0.59-2.17,0.59
		c-3.76,0.02-7.52,0.06-11.27,0.15c-3.59,0.09-7.13,0.62-10.62,1.51c-4.24,1.08-8.22,2.85-12.19,4.61c-1.55,0.69-3,1.6-4.48,2.43
		c-1.11,0.63-2.17,1.38-3.32,1.91c-2.7,1.26-5.45,2.42-8.17,3.62c-0.31,0.14-0.61,0.31-0.91,0.48c-4.01,2.24-8.06,4.43-12.02,6.76
		c-1.98,1.16-3.88,2.49-5.68,3.92c-4.28,3.38-8.3,7.09-12.73,10.3c-3.25,2.36-5.94,5.35-8.09,8.8c-0.85,1.37-1.73,2.71-2.99,3.8
		c-1.15,1-1.64,2.46-1.25,3.97c0.56,2.14,1.3,4.23,1.99,6.33c0.1,0.3,0.38,0.56,0.62,0.8c2.32,2.4,4.86,4.49,7.78,6.17
		c2.68,1.55,5.46,2.33,8.52,2.32c1.27,0,2.55,0.17,3.82,0.31c1.69,0.19,3.38,0.59,5.07,0.6c5.98,0.05,11.95-0.01,17.93-0.07
		c3.03-0.03,5.92-0.68,8.64-2.06c0.84-0.42,1.69-0.83,2.57-1.13c0.72-0.24,1.51-0.49,2.23-0.42c1.73,0.19,3.4-0.09,5.09-0.36
		c0.56-0.09,1.13-0.14,1.82-0.23c-0.07,0.44-0.03,0.72-0.15,0.9c-0.88,1.34-1.04,2.84-1.12,4.4c-0.13,2.39-0.23,4.79-0.65,7.14
		c-0.72,4.06-1.03,8.14-0.77,12.24c0.13,2.11,0.4,4.29,1.05,6.29c1.03,3.12,2.71,5.91,5.71,7.62c1,0.57,1.77,1.34,2.34,2.31
		c0.73,1.25,1.39,2.55,2.08,3.83c0.85,1.58,1.7,3.15,2.55,4.73c1.01,1.88,2.6,3.14,4.43,4.13c0.44,0.24,0.94,0.46,1.43,0.52
		c2.34,0.28,4.6,0.04,6.62-1.29c1.06-0.7,2.14-1.43,3.04-2.33c1.32-1.32,2.73-2.72,2.93-4.68c0.15-1.57,0.62-2.98,1.17-4.42
		c0.3-0.79,0.53-1.63,0.65-2.47c0.34-2.36,0.63-4.73,0.92-7.1c0.17-1.35,0.43-2.71,0.42-4.06c0-1.32,0.09-2.52,0.97-3.6
		c0.27-0.34,0.42-1.02,0.27-1.41c-0.58-1.49-0.46-3.02-0.53-4.54c-0.08-1.71-0.12-3.42-0.29-5.11c-0.24-2.4-1.13-4.63-1.86-6.9
		c-0.69-2.12-1.11-4.26-0.23-6.51c2.16-0.22,4.12-1.41,6.32-0.61c0.28,0.1,0.66-0.08,0.99-0.14c0.58-0.1,1.16-0.27,1.75-0.3
		c2.64-0.16,5.28-0.3,7.92-0.41c4.58-0.18,8.93-1.31,13.08-3.23c1.71-0.79,3.31-1.78,4.67-3.11c1.35-1.31,2.65-2.67,3.95-4.01
		C356.05,174.6,357.39,172.95,357.85,170.84z"/>
	<path d="M131.94,27.43c0.3-1.65,0.2-3.1,1.39-4.25c0.48-0.46,0.56-1.4,0.72-2.15c0.41-1.93-0.18-3.69-0.93-5.45
		c-1.41-3.33-3.87-5.36-7.41-6c-1.67-0.3-3.38-0.43-5.08-0.56c-4.79-0.35-9.56,0.11-14.32,0.6c-4.58,0.48-9.16,0.99-13.62,2.22
		c-6.9,1.9-13.81,3.79-20.69,5.78c-6.15,1.78-12.25,3.69-18.37,5.55c-2.2,0.67-4.42,1.3-6.6,2.04c-2.42,0.82-4.78,1.86-7.23,2.57
		c-1.68,0.49-2.97,1.32-3.75,2.84c-0.5,0.97-1.29,1.2-2.25,1.41c-3.98,0.9-8.03,1.52-11.86,3.04c-1.34,0.54-2.69,1.09-4.07,1.52
		C11.14,38.75,5.82,42.88,1.4,48.28c-0.53,0.65-0.94,1.4-1.4,2.12c0.54,2.59,1.03,5.08,1.6,7.56c0.56,2.42,1.83,4.44,3.94,5.77
		c2.77,1.75,5.81,2.88,9.08,3.25c2.54,0.28,5.1,0.47,7.65,0.61c1.89,0.1,3.73,0.42,5.51,1.05c1.85,0.65,3.71,1.28,5.5,2.05
		c1.89,0.81,3.78,1.58,5.87,1.63c0.14,0,0.28,0.17,0.57,0.37c-0.45,2.34-0.82,4.78-1.4,7.17c-0.51,2.11-0.61,4.22-0.37,6.35
		c0.26,2.29,0.62,4.56,0.83,6.85c0.41,4.42,0.81,8.85,0.05,13.27c-0.39,2.3-0.35,4.59-0.25,6.89c0.08,1.96,0.28,3.91,0.38,5.86
		c0.06,1.19-0.03,2.39,0.07,3.58c0.3,3.74,0.66,7.48,0.98,11.21c0.38,4.43,1.2,8.76,2.43,13.04c0.9,3.16,2.39,5.97,4.37,8.55
		c0.57,0.75,1.07,1.52,2.22,1.45c0.34-0.02,0.76,0.35,1.04,0.64c0.89,0.91,2,1.3,3.21,1.42c2.12,0.22,4.2,0.55,6.27,1.16
		c1.7,0.5,3.48,0.11,4.64-1.36c0.67-0.86,1.41-1.43,2.38-1.82c1.02-0.41,1.7-1.08,1.81-2.26c0.05-0.48,0.33-0.93,0.5-1.37
		c0.53-0.02,0.96,0.01,1.37-0.08c0.73-0.16,0.8-0.5,0.39-1.5c1.51-0.43,1.75-0.61,2.07-1.81c0.15-0.57,0.2-1.17,0.26-1.77
		c0.07-0.76,0.01-1.55,0.16-2.3c0.42-2.21,0.33-4.41,0.08-6.63c-0.61-5.35-1.05-10.7-0.87-16.1c0.18-5.55,0.29-11.1,0.47-16.64
		c0.09-2.93-0.3-5.78-0.99-8.62c-0.81-3.32-1.56-6.65-2.27-9.99c-0.37-1.75-0.67-3.55-0.24-5.33c0.9-3.71,0.17-7.29-0.83-10.83
		c-0.46-1.64-1.13-3.21-1.69-4.82c-0.56-1.61-0.96-3.29-1.7-4.81c-0.52-1.07-0.44-1.91,0.05-2.89c0.57-1.14,1.25-2.28,1.56-3.49
		c0.4-1.56,1.36-2.45,2.62-3.28c2.21-1.44,4.42-2.91,6.49-4.54c1.78-1.4,3.67-2.46,5.84-3.08c1.39-0.4,2.77-0.84,4.11-1.37
		c1.04-0.42,1.98-0.38,2.95,0.11c0.99,0.5,1.95,1.06,2.97,1.5c2.41,1.06,4.79,1.1,7.1-0.34c0.29-0.18,0.61-0.31,0.91-0.48
		c2.89-1.68,5.99-2.91,9.11-4.04c1.67-0.6,3.45-0.91,5.18-1.35c0.91-0.23,1.84-0.39,2.72-0.69c1.12-0.38,2.18-0.91,3.36-1.18
		c1.34-0.31,2.41-1.15,3.28-2.31c1.18-1.58,2.6-2.92,4.5-3.67c0.62-0.25,1.16-0.67,1.71-0.99c-0.21-1.47-0.21-1.5,0.67-1.89
		C130.79,27.9,131.34,27.68,131.94,27.43z"/>
	<path d="M112.71,86.35c-0.06,0.38-0.06,0.64-0.15,0.87c-1.06,2.63-1.64,5.39-2.1,8.17c-0.27,1.62-0.72,3.16-1.44,4.62
		c-1.37,2.8-2.15,5.76-2.31,8.86c-0.06,1.07-0.38,1.99-1,2.84c-2.02,2.79-2.65,5.88-1.88,9.23c0.2,0.86,0.18,1.68-0.1,2.52
		c-0.19,0.56-0.31,1.16-0.35,1.75c-0.1,1.23-0.52,2.27-1.31,3.25c-1.26,1.57-1.91,3.45-1.83,5.48c0.05,1.36,0.35,2.7,0.51,4.06
		c0.21,1.78,0.43,3.55,0.58,5.34c0.09,1.1,0.09,2.22,0.09,3.33c0,1.31,0.23,2.56,0.96,3.66c0.75,1.14,0.89,2.35,0.72,3.67
		c-0.14,1.1-0.18,2.22-0.14,3.32c0.14,3.86,3.53,8.03,8.26,7.67c1.63-0.12,2.97-0.63,4.12-1.75c1.59-1.54,3.1-3.17,5.01-4.35
		c0.88-0.54,1.47-1.42,1.83-2.41c0.38-1.06,0.98-1.96,1.7-2.83c1.55-1.91,2.99-3.92,4.51-5.86c0.41-0.52,0.99-0.91,1.47-1.38
		c1.58-1.53,3.49-2.79,4.19-5.05c0.36-1.15,0.75-2.26,1.94-2.87c0.25-0.13,0.48-0.54,0.5-0.84c0.08-1.11,0.84-1.84,1.35-2.72
		c0.52-0.88,1.11-1.74,1.46-2.69c0.96-2.56,1.65-5.22,1.89-7.95c0.22-2.46,0.32-4.94,0.39-7.41c0.05-1.88,0.62-3.51,1.92-4.88
		c0.65-0.68,1.27-1.38,1.88-2.1c2.99-3.51,5.24-7.39,5.8-12.05c0.22-1.77,0.23-3.57,0.32-5.35c0.04-0.75-0.16-1.56,0.67-2.19
		c2.12-0.15,4.34-0.41,6.39,0.78c1.99,1.15,4.22,1.34,6.42,1.49c3.08,0.21,5.69-0.85,7.72-3.23c0.37-0.44,0.82-0.81,1.2-1.17
		c0.51,0.23,0.89,0.4,1.28,0.58c0.82-2.46,0.82-2.46,2.61-2.36c0.13-0.64,0.16-1.34,0.41-1.94c0.58-1.41,0.48-2.86,0.29-4.29
		c-0.27-2.03-0.73-4.04-1.79-5.81c-0.86-1.44-1.43-3.11-2.89-4.15c-2.01-1.43-4.02-2.86-6.01-4.32c-1.24-0.91-2.47-1.82-3.65-2.8
		c-2.31-1.92-4.82-3.59-7.59-4.7c-3.09-1.23-6.11-2.61-9.11-4.04c-2.85-1.36-5.79-2.53-9.06-2.49c-2.04,0.03-4.09-0.09-6.14-0.07
		c-6.29,0.07-12.37,1.48-18.34,3.27c-1.76,0.53-3.28,0.56-4.96,0.01c-1.29-0.42-2.63-0.77-3.97-0.92c-2.63-0.28-5.27-0.45-7.91-0.55
		c-2.23-0.08-4.41-0.41-6.59-0.85c-1.94-0.39-3.88-0.32-5.84,0.15c-2,0.47-3.29,1.62-4.12,3.47c-0.97,2.15-0.81,4.34-0.37,6.52
		c0.24,1.19,0.92,2.16,2.1,2.74c1.07,0.52,2.04,1.24,3.08,1.82c1.72,0.94,3.01,2.21,3.5,4.19c0.27,1.08,0.6,2.13,0.92,3.2
		c0.41,1.39,0.78,2.83,1.78,3.93c1.44,1.58,2.83,3.22,4.46,4.58c2.83,2.35,6.08,3.76,9.87,3.51
		C108.09,86.72,110.28,86.53,112.71,86.35z"/>
	<path d="M195.15,159.65c-4.58,1.16-8.62,0.21-12.52-1.86c-2.07-1.1-3.73-2.67-5.35-4.31c-2.13-2.16-3.21-4.78-3.53-7.76
		c-0.27-2.5,0.06-4.95,0.67-7.36c0.36-1.42,1.18-2.68,2.34-3.6c1.4-1.12,2.8-2.25,4.33-3.17c1.8-1.09,3.21-2.51,4.4-4.21
		c1.97-2.8,3.59-5.8,5.18-8.82c0.6-1.13,1.12-2.32,1.87-3.35c1.08-1.48,1.71-3.14,2.28-4.84c1.63-4.89,2.44-9.94,2.97-15.04
		c0.52-4.93,0.67-9.88,0.73-14.83c0.05-3.58,0.41-7.16,1.31-10.65c0.78-2.98,1.19-6.02,1.63-9.06c0.07-0.5,0.06-1.01,0.09-1.64
		c-0.54-0.09-1.02-0.22-1.5-0.25c-3.09-0.14-5.53-1.55-7.53-3.83c-0.06-0.06-0.12-0.13-0.16-0.2c-1.73-2.77-4.48-4.1-7.36-5.26
		c-0.39-0.16-0.8-0.35-1.21-0.4c-3.4-0.36-6.81-0.66-10.15,0.41c-2.47,0.79-5.03,0.94-7.59,0.92c-2.37-0.01-4.3-0.97-5.5-3.13
		c-0.12-0.22-0.29-0.41-0.5-0.7c-0.27-0.06-0.59-0.19-0.92-0.19c-2.32,0.04-4.09-1.2-5.67-2.62c-1.31-1.18-1.99-2.8-1.72-4.62
		c0.21-1.43,0.49-2.86,0.89-4.25c0.89-3.12,1.82-6.22,3.47-9.05c0.7-1.2,1.55-2.24,2.63-3.1c4.68-3.73,9.57-7.1,14.96-9.77
		c7.46-3.7,15.24-6.4,23.32-8.33c1.41-0.34,2.81-0.72,4.2-1.14c3.68-1.13,7.44-1.88,11.26-2.32c2.37-0.28,4.72-0.73,7.09-1.01
		c5.29-0.62,10.57-0.23,15.82,0.51c4.81,0.68,9.61,1.42,14.38,2.43c8.64,1.83,16.48,5.44,23.93,10.04
		c5.35,3.3,8.92,8.08,11.66,13.61c0.62,1.25,0.93,2.56,0.91,3.96c-0.03,2.73,0.05,5.46-0.42,8.17c-0.17,1-0.15,2.04-0.26,3.06
		c-0.09,0.84-0.25,1.68-0.38,2.52c-0.36,2.44-1.74,4.12-4.05,4.82c-1.52,0.46-2.27,1.73-3.42,2.57c-0.15,0.11-0.15,0.47-0.17,0.71
		c-0.02,0.38-0.14,0.58-0.54,0.72c-0.46,0.16-1.07,0.36-1.26,0.73c-0.66,1.27-1.58,1.69-2.92,1.27c-2.48,0.57-4.72-0.23-6.89-1.29
		c-0.84-0.41-1.66-0.87-2.49-1.31c-0.65-0.34-1.3-0.38-1.97-0.07c-0.31,0.14-0.64,0.26-0.93,0.42c-2.45,1.37-5.08,1.34-7.73,0.9
		c-2.6-0.44-5.21-0.91-7.78-1.48c-1.92-0.42-3.73-1.19-5.4-2.27c-0.63-0.41-1.19-1-2.23-0.91c-0.16,1.31-0.41,2.64-0.46,3.98
		c-0.15,3.77-0.97,7.43-1.69,11.11c-0.43,2.17-0.64,4.39-1.1,6.56c-0.39,1.83-0.92,3.64-1.52,5.41c-0.29,0.86-0.32,1.62-0.06,2.48
		c1.82,6.11,1.81,12.3,0.62,18.49c-0.67,3.48-2.31,6.6-4.16,9.58c-0.99,1.59-2.04,3.16-3.13,4.68c-0.72,1.01-1.17,2.07-1.24,3.3
		c-0.05,0.85-0.2,1.71-0.14,2.55c0.17,2.24-0.14,4.44-0.51,6.62c-0.53,3.12-0.89,6.25-0.74,9.42c0.18,3.85-0.87,7.41-2.38,10.9
		c-1.17,2.69-2.63,5.15-4.7,7.26c-0.77,0.79-1.34,1.76-2.08,2.59c-1.67,1.87-3.73,3.24-5.97,4.32c-2.09,1.01-4.32,1.5-6.69,1.42
		c-1.35-0.05-2.71,0.29-4.06,0.43C196.39,160.63,196.39,160.61,195.15,159.65z"/>
	<path d="M189.06,231.95c-0.46,2.11-1.8,3.76-3.3,5.3c-1.31,1.35-2.61,2.71-3.95,4.01c-1.36,1.32-2.96,2.31-4.67,3.11
		c-4.15,1.92-8.49,3.05-13.08,3.23c-2.64,0.1-5.28,0.25-7.92,0.41c-0.59,0.04-1.17,0.2-1.75,0.3c-0.33,0.06-0.71,0.24-0.99,0.14
		c-2.2-0.8-4.16,0.39-6.32,0.61c-0.88,2.25-0.46,4.39,0.23,6.51c0.74,2.27,1.62,4.51,1.86,6.9c0.17,1.7,0.21,3.41,0.29,5.11
		c0.07,1.53-0.04,3.06,0.53,4.54c0.15,0.39,0,1.07-0.27,1.41c-0.88,1.08-0.97,2.28-0.97,3.6c0,1.35-0.26,2.71-0.42,4.06
		c-0.29,2.37-0.57,4.74-0.92,7.1c-0.12,0.84-0.35,1.68-0.65,2.47c-0.55,1.43-1.02,2.85-1.17,4.42c-0.19,1.96-1.61,3.36-2.93,4.68
		c-0.89,0.9-1.97,1.63-3.04,2.33c-2.01,1.33-4.28,1.57-6.62,1.29c-0.49-0.06-0.99-0.28-1.43-0.52c-1.83-0.99-3.42-2.25-4.43-4.13
		c-0.85-1.58-1.7-3.15-2.55-4.73c-0.69-1.28-1.35-2.57-2.08-3.83c-0.56-0.97-1.33-1.74-2.34-2.31c-2.99-1.71-4.68-4.5-5.71-7.62
		c-0.66-2-0.93-4.17-1.05-6.29c-0.25-4.1,0.06-8.18,0.77-12.24c0.41-2.35,0.52-4.75,0.65-7.14c0.08-1.56,0.24-3.06,1.12-4.4
		c0.12-0.18,0.08-0.46,0.15-0.9c-0.69,0.08-1.26,0.14-1.82,0.23c-1.68,0.28-3.35,0.55-5.09,0.36c-0.72-0.08-1.52,0.17-2.23,0.42
		c-0.88,0.3-1.74,0.71-2.57,1.13c-2.72,1.38-5.61,2.03-8.64,2.06c-5.98,0.05-11.95,0.11-17.93,0.07c-1.69-0.01-3.38-0.42-5.07-0.6
		c-1.27-0.14-2.55-0.31-3.82-0.31c-3.06,0.01-5.84-0.77-8.52-2.32c-2.92-1.69-5.46-3.78-7.78-6.17c-0.23-0.24-0.51-0.5-0.62-0.8
		c-0.7-2.1-1.43-4.19-1.99-6.33c-0.39-1.51,0.1-2.97,1.25-3.97c1.26-1.1,2.14-2.44,2.99-3.8c2.15-3.45,4.84-6.44,8.09-8.8
		c4.43-3.22,8.45-6.92,12.73-10.3c1.8-1.42,3.7-2.75,5.68-3.92c3.96-2.33,8.01-4.52,12.02-6.76c0.3-0.17,0.6-0.34,0.91-0.48
		c2.73-1.21,5.47-2.36,8.17-3.62c1.15-0.54,2.21-1.29,3.32-1.91c1.48-0.83,2.93-1.75,4.48-2.43c3.98-1.76,7.95-3.53,12.19-4.61
		c3.49-0.89,7.02-1.42,10.62-1.51c3.76-0.09,7.51-0.13,11.27-0.15c0.8,0,1.48-0.18,2.17-0.59c5.71-3.38,11.75-3.69,18.01-1.86
		c1.64,0.48,3.29,0.95,4.87,1.57c1.26,0.49,2.52,1.09,3.63,1.85c6.77,4.62,13.5,9.3,20.24,13.96c3.6,2.49,6.31,5.77,8.18,9.67
		c2.27,4.75,2.26,9.55-0.26,14.26c-0.87,1.62-2.19,2.85-3.67,3.87c-1.89,1.31-3.85,2.53-5.82,3.72
		C190.55,231.64,189.84,231.72,189.06,231.95z"/>
	<path d="M131.94,27.43c-0.6,0.25-1.15,0.47-1.69,0.7c-0.88,0.39-0.89,0.42-0.67,1.89c-0.55,0.32-1.09,0.74-1.71,0.99
		c-1.89,0.75-3.32,2.09-4.5,3.67c-0.86,1.16-1.93,2-3.28,2.31c-1.18,0.27-2.24,0.8-3.36,1.18c-0.88,0.3-1.81,0.46-2.72,0.69
		c-1.73,0.44-3.51,0.75-5.18,1.35c-3.13,1.13-6.23,2.35-9.11,4.04c-0.29,0.17-0.62,0.3-0.91,0.48c-2.3,1.44-4.69,1.4-7.1,0.34
		c-1.01-0.45-1.98-1-2.97-1.5c-0.97-0.49-1.91-0.52-2.95-0.11c-1.34,0.54-2.73,0.97-4.11,1.37c-2.16,0.63-4.06,1.68-5.84,3.08
		c-2.07,1.63-4.28,3.1-6.49,4.54c-1.26,0.82-2.23,1.72-2.62,3.28c-0.31,1.22-0.98,2.35-1.56,3.49c-0.49,0.97-0.57,1.81-0.05,2.89
		c0.73,1.52,1.14,3.2,1.7,4.81c0.56,1.61,1.23,3.19,1.69,4.82c1,3.55,1.72,7.12,0.83,10.83c-0.43,1.78-0.14,3.58,0.24,5.33
		c0.71,3.34,1.46,6.67,2.27,9.99c0.69,2.84,1.09,5.69,0.99,8.62c-0.18,5.55-0.29,11.1-0.47,16.64c-0.18,5.39,0.26,10.75,0.87,16.1
		c0.25,2.22,0.34,4.42-0.08,6.63c-0.14,0.75-0.09,1.53-0.16,2.3c-0.05,0.59-0.11,1.2-0.26,1.77c-0.32,1.2-0.57,1.38-2.07,1.81
		c0.41,1,0.33,1.35-0.39,1.5c-0.41,0.09-0.84,0.05-1.37,0.08c-0.16,0.43-0.45,0.89-0.5,1.37c-0.11,1.18-0.79,1.85-1.81,2.26
		c-0.97,0.39-1.71,0.96-2.38,1.82c-1.16,1.47-2.94,1.86-4.64,1.36c-2.07-0.61-4.15-0.94-6.27-1.16c-1.21-0.13-2.32-0.51-3.21-1.42
		c-0.28-0.29-0.7-0.66-1.04-0.64c-1.15,0.06-1.65-0.71-2.22-1.45c-1.99-2.58-3.47-5.38-4.37-8.55c-1.22-4.28-2.04-8.62-2.43-13.04
		c-0.32-3.74-0.68-7.47-0.98-11.21c-0.09-1.19,0-2.39-0.07-3.58c-0.1-1.96-0.3-3.91-0.38-5.86c-0.1-2.3-0.15-4.6,0.25-6.89
		c0.75-4.42,0.36-8.85-0.05-13.27c-0.21-2.29-0.57-4.57-0.83-6.85c-0.24-2.14-0.14-4.24,0.37-6.35c0.58-2.39,0.95-4.83,1.4-7.17
		c-0.29-0.2-0.43-0.37-0.57-0.37c-2.1-0.05-3.98-0.82-5.87-1.63c-1.8-0.77-3.66-1.4-5.5-2.05c-1.78-0.63-3.62-0.95-5.51-1.05
		c-2.55-0.14-5.11-0.32-7.65-0.61c-3.27-0.37-6.31-1.5-9.08-3.25c-2.11-1.33-3.38-3.35-3.94-5.77C1.03,55.49,0.54,52.99,0,50.4
		c0.47-0.71,0.87-1.47,1.4-2.12c4.41-5.4,9.74-9.53,16.48-11.66c1.38-0.44,2.72-0.99,4.07-1.52c3.82-1.52,7.88-2.14,11.86-3.04
		c0.96-0.22,1.75-0.44,2.25-1.41c0.78-1.51,2.07-2.35,3.75-2.84c2.45-0.72,4.81-1.75,7.23-2.57c2.18-0.74,4.39-1.37,6.6-2.04
		c6.12-1.86,12.23-3.77,18.37-5.55c6.88-1.99,13.79-3.88,20.69-5.78c4.46-1.23,9.05-1.74,13.62-2.22c4.75-0.5,9.52-0.95,14.32-0.6
		c1.7,0.12,3.41,0.25,5.08,0.56c3.54,0.64,6,2.67,7.41,6c0.75,1.76,1.34,3.52,0.93,5.45c-0.16,0.74-0.23,1.68-0.72,2.15
		C132.14,24.33,132.24,25.78,131.94,27.43z M70.59,150.49c-0.12-0.07-0.23-0.15-0.35-0.19c-0.03-0.01-0.15,0.13-0.14,0.16
		c0.05,0.12,0.13,0.22,0.21,0.33C70.41,150.69,70.5,150.59,70.59,150.49z"/>
	<path d="M112.71,86.35c-2.43,0.18-4.63,0.37-6.82,0.51c-3.79,0.24-7.05-1.17-9.87-3.51c-1.63-1.35-3.03-3-4.46-4.58
		c-1-1.1-1.37-2.54-1.78-3.93c-0.31-1.06-0.65-2.12-0.92-3.2c-0.49-1.97-1.78-3.24-3.5-4.19c-1.05-0.57-2.02-1.29-3.08-1.82
		c-1.19-0.58-1.86-1.55-2.1-2.74c-0.44-2.19-0.6-4.38,0.37-6.52c0.83-1.84,2.12-2.99,4.12-3.47c1.95-0.46,3.89-0.53,5.84-0.15
		c2.18,0.43,4.36,0.76,6.59,0.85c2.64,0.1,5.29,0.27,7.91,0.55c1.34,0.14,2.68,0.5,3.97,0.92c1.68,0.55,3.2,0.52,4.96-0.01
		c5.97-1.79,12.05-3.2,18.34-3.27c2.04-0.02,4.09,0.09,6.14,0.07c3.27-0.04,6.21,1.13,9.06,2.49c3,1.43,6.02,2.81,9.11,4.04
		c2.77,1.1,5.27,2.77,7.59,4.7c1.18,0.98,2.41,1.89,3.65,2.8c1.99,1.46,4,2.89,6.01,4.32c1.46,1.04,2.02,2.71,2.89,4.15
		c1.06,1.76,1.52,3.78,1.79,5.81c0.19,1.44,0.29,2.88-0.29,4.29c-0.25,0.61-0.28,1.3-0.41,1.94c-1.79-0.11-1.79-0.11-2.61,2.36
		c-0.39-0.17-0.76-0.35-1.28-0.58c-0.37,0.36-0.83,0.73-1.2,1.17c-2.03,2.38-4.64,3.45-7.72,3.23c-2.2-0.15-4.43-0.34-6.42-1.49
		c-2.05-1.19-4.27-0.93-6.39-0.78c-0.83,0.63-0.63,1.44-0.67,2.19c-0.09,1.79-0.1,3.58-0.32,5.35c-0.57,4.66-2.81,8.55-5.8,12.05
		c-0.61,0.71-1.23,1.42-1.88,2.1c-1.3,1.37-1.87,3-1.92,4.88c-0.07,2.47-0.17,4.95-0.39,7.41c-0.24,2.73-0.92,5.38-1.89,7.95
		c-0.35,0.95-0.95,1.81-1.46,2.69c-0.51,0.87-1.27,1.61-1.35,2.72c-0.02,0.3-0.25,0.71-0.5,0.84c-1.19,0.61-1.58,1.72-1.94,2.87
		c-0.7,2.26-2.61,3.52-4.19,5.05c-0.48,0.47-1.06,0.86-1.47,1.38c-1.52,1.94-2.96,3.94-4.51,5.86c-0.71,0.88-1.31,1.78-1.7,2.83
		c-0.36,0.99-0.96,1.87-1.83,2.41c-1.91,1.19-3.42,2.81-5.01,4.35c-1.15,1.12-2.49,1.63-4.12,1.75c-4.73,0.36-8.12-3.81-8.26-7.67
		c-0.04-1.11,0-2.23,0.14-3.32c0.17-1.33,0.03-2.54-0.72-3.67c-0.73-1.1-0.96-2.35-0.96-3.66c0-1.11,0-2.22-0.09-3.33
		c-0.15-1.78-0.37-3.56-0.58-5.34c-0.16-1.35-0.45-2.7-0.51-4.06c-0.08-2.03,0.56-3.9,1.83-5.48c0.79-0.98,1.21-2.02,1.31-3.25
		c0.05-0.59,0.17-1.19,0.35-1.75c0.28-0.84,0.29-1.66,0.1-2.52c-0.76-3.36-0.13-6.44,1.88-9.23c0.62-0.86,0.94-1.77,1-2.84
		c0.17-3.1,0.94-6.06,2.31-8.86c0.72-1.47,1.17-3,1.44-4.62c0.46-2.78,1.03-5.54,2.1-8.17C112.66,86.99,112.65,86.73,112.71,86.35z"
		/>
	<path d="M70.59,150.49c-0.09,0.1-0.19,0.2-0.28,0.3c-0.07-0.11-0.16-0.21-0.21-0.33c-0.01-0.03,0.11-0.17,0.14-0.16
		C70.37,150.34,70.48,150.42,70.59,150.49z"/>
</g>
</svg>
