<?xml version="1.0" encoding="utf-8"?>
<!-- Generator: Adobe Illustrator 26.1.0, SVG Export Plug-In . SVG Version: 6.00 Build 0)  -->
<svg version="1.1" id="Layer_1" xmlns="http://www.w3.org/2000/svg" xmlns:xlink="http://www.w3.org/1999/xlink" x="0px" y="0px"
	 viewBox="0 0 388.74 311.94" style="enable-background:new 0 0 388.74 311.94;" xml:space="preserve">
<path d="M204.6,166.95c-5.49-0.74-10.7-1.45-15.91-2.14c-4.81-0.64-9.62-1.31-14.44-1.88c-3.83-0.45-7.66-0.84-11.5-1.15
	c-4.43-0.36-8.74-1.29-13.04-2.34c-0.54-0.13-1.09-0.21-1.85-0.36c-0.55,1.04-1.21,1.97-1.57,3.01c-1.63,4.75-4.15,9.06-6.38,13.52
	c-1.76,3.53-3.01,7.37-4,11.2c-0.78,3.04-1.83,5.65-4.47,7.49c-1.87,1.31-3.65,2.73-5.44,4.15c-0.78,0.62-1.54,1.28-2.2,2.03
	c-4.54,5.17-10.33,8.55-16.5,11.29c-4.95,2.2-10.06,4.02-15.4,5.16c-3.52,0.75-6.73,2.36-9.9,4c-7.86,4.06-15.69,8.2-23.57,12.21
	c-5.25,2.67-10.91,4.21-16.67,5.31c-1.77,0.34-3.66,0.05-5.49,0.05c-0.68-1-1.2-2.05-1.98-2.84c-1.59-1.63-1.79-3.54-1.31-5.56
	c0.98-4.17,1.98-8.34,3.16-12.46c0.54-1.91,1.31-3.82,2.33-5.51c2.95-4.88,5.9-9.77,10.15-13.74c6.37-5.95,12.56-12.1,19.84-16.98
	c0.59-0.4,1.16-0.84,1.67-1.35c4.79-4.8,10.44-8.41,16.26-11.79c3.58-2.08,7.17-4.16,10.73-6.27c3.83-2.27,7.94-3.88,12.12-5.37
	c5.38-1.9,10.71-3.95,15.94-5.9c0.23-1.18-0.52-1.47-1.1-1.77c-2.65-1.39-5.35-2.7-7.99-4.1c-1.25-0.66-2.47-0.73-3.68-0.07
	c-1.48,0.81-2.99,0.83-4.57,0.46c-3.05-0.72-6.07-1.54-9.15-2.13c-2.89-0.56-5.81-0.82-8.68-1.63c-1.67-0.47-3.55-0.26-5.33-0.27
	c-2.69,0-5.48,0.54-8.05,0c-2.36-0.49-4.71-0.44-7.04-0.81c-2.25-0.35-4.51-0.59-6.74-1c-5.48-1.02-10.8-2.69-15.97-4.7
	c-5.71-2.21-11.29-4.78-16.92-7.2c-4.38-1.88-8.02-4.91-11.87-7.6c-1.64-1.14-3.17-2.42-4.78-3.6c-4.45-3.26-7.68-7.65-10.93-11.98
	c-1.45-1.93-2.58-4.13-1.91-6.79c0.16-0.65,0.04-1.44-0.16-2.1c-0.88-2.83,0.26-5.05,2.1-7.01c1.98-2.11,4.28-3.82,7.13-4.55
	c2.11-0.54,4-1.49,5.8-2.68c3.45-2.27,7.28-3.12,11.37-3.26c10.8-0.37,21.37,1.02,31.79,3.81c4.28,1.14,8.6,2.13,12.85,3.34
	c2.6,0.74,5.19,1.62,7.67,2.7c6.96,3.05,13.42,6.81,19.06,12.1c5.67,5.31,10.65,11.14,15.18,17.4c1,1.38,1.87,2.88,2.61,4.42
	c0.67,1.4,1.09,2.92,1.7,4.6c-0.41,0.29-0.81,0.48-1.09,0.79c-0.71,0.78-0.59,1.83,0.17,2.23c6.31,3.27,12.28,7.35,19.38,8.88
	c0.69,0.15,0.31-1.14,0.08-1.76c-0.3-0.8-0.58-1.63-1-2.37c-4.09-7.03-7.59-14.39-12.58-20.91c-3.03-3.96-5.63-8.25-8.33-12.45
	c-3.25-5.04-6.62-10.03-9.55-15.25c-5.47-9.75-9.9-19.96-12.23-30.97c-1.46-6.88-2.06-13.84-1.7-20.88
	c0.04-0.71,0.07-1.43,0.14-2.14c0.31-3.02,0.38-6-1.63-8.7c0.56-1.06,1.08-2.06,1.61-3.06c0.94-1.78,1.7-3.6,1.86-5.65
	C92.99,10.17,94.67,6.64,95.9,3c0.72-2.15,2.62-3.04,4.84-2.34c1.33,0.42,2.64,1.13,3.76,1.97c2.16,1.63,3.96,3.62,5.73,5.69
	c3.75,4.37,6.99,9.08,9.32,14.28c3.38,7.53,7.18,14.89,9.38,22.94c1.77,6.47,4.58,12.59,7.77,18.5c2.31,4.28,4.08,8.79,5.6,13.35
	c1.06,3.2,1.43,6.7,1.63,10.1c0.19,3.16,0.27,6.27,1.66,9.19c0.17,0.36,0.1,0.84,0.16,1.41c-0.47,0.6-1.01,1.26-1.5,1.95
	c-1.1,1.55-1.73,3.25-1.76,5.19c-0.04,2.85-0.32,5.71-0.18,8.54c0.1,1.97,0.58,3.95,1.16,5.85c1.05,3.43,1.9,6.85,2.25,10.44
	c0.4,4.1,1.2,8.16,1.81,12.13c1.79,1.17,3.63,1.48,5.44,1.81c10.11,1.87,20.28,3.4,30.54,4.19c5.84,0.45,11.66,1.04,17.5,1.54
	c0.4,0.04,0.82-0.1,1.56-0.2c-0.25-0.6-0.35-1.13-0.64-1.5c-4.23-5.41-7.99-11.14-11.5-17.04c-0.86-1.45-1.61-3.08-1.9-4.73
	c-0.92-5.26-3.86-9.06-7.95-12.26c-5.51-4.31-10.86-8.82-16.34-13.18c-3.06-2.44-5.58-5.3-7.61-8.63
	c-2.91-4.79-5.34-9.79-6.48-15.32c-0.9-4.34-1.81-8.67-2.53-13.04c-0.32-1.95-0.21-3.98-0.25-5.98c-0.07-3.25,1.54-5.71,3.82-7.82
	c0.31-0.29,0.78-0.43,1.04-0.75c1.99-2.56,4.59-2.51,7.38-1.85c2.26,0.54,4.32,1.48,6.19,2.84c3.01,2.17,5.99,4.39,9.05,6.49
	c4.74,3.24,10,5.52,15.11,8.08c3.57,1.79,7.17,3.57,10.6,5.61c4.08,2.43,7.43,5.79,10.61,9.28c0.75,0.83,1.51,1.65,2.26,2.46
	c1.03-0.61,0.62-1.33,0.37-1.89c-1.54-3.42-2.35-7.04-3.1-10.69c-1.28-6.2-0.77-12.18,1.77-18.03c1.5-3.45,3.68-6.13,7.21-7.51
	c3.63-1.41,6.83-3.4,9.72-6.05c4.23-3.89,9.33-5.18,15.06-4.79c5.38,0.37,10.46,1.64,15.15,4.18c5.63,3.05,9.32,7.93,11.78,13.73
	c2.33,5.48,3.02,11.29,3.06,17.2c0.01,0.99-0.13,2.01-0.4,2.96c-1.01,3.57-2.01,7.15-3.17,10.67c-0.86,2.6-2.2,4.95-4.66,6.73
	c0.11,1.04,0.23,2.13,0.38,3.49c-1.99,0.54-3.41,1.65-4.49,3.49c-0.81,1.37-2.49,2.23-3.77,3.33c-0.53,0.45-1.02,0.94-1.68,1.56
	c0.55,0.66,0.93,1.24,1.43,1.69c3.31,2.94,6.71,5.78,9.95,8.8c2.84,2.65,6.01,4.17,9.94,4.37c2.69,0.13,5.37,0.67,8.01,1.24
	c1.37,0.3,2.71,0.93,3.94,1.62c3.48,1.95,6.19,4.5,6.24,8.9c0.01,0.72,0.95,1.2,1.62,0.89c0.64-0.3,1.29-0.62,1.86-1.03
	c3.24-2.35,6.4-4.79,9.11-7.77c5.29-5.81,10.69-11.52,15.95-17.36c2.1-2.33,4.05-4.81,5.9-7.35c4.63-6.35,8.6-13.11,12.5-19.93
	c3.98-6.96,7.07-14.35,11.04-21.29c0.56-0.98,1.23-2.08,1.28-3.15c0.15-3.02,1.8-5.41,3.03-7.95c3.89-7.99,6.98-16.26,9.58-24.75
	c1.33-4.34,3.33-8.5,5.33-12.6c1.15-2.37,3.64-3.5,5.88-4.74c0.33-0.18,0.89-0.19,1.24-0.04c1.39,0.62,2.74,0.4,4.18,0.16
	c2.34-0.37,3.55,0.58,3.83,2.88c0.33,2.69,0.44,5.38-0.57,8c-0.3,0.79-0.46,1.65-0.71,2.6c0.43,0.66,0.88,1.35,1.43,2.19
	c-0.47,0.6-0.97,1.23-1.51,1.93c1.02,3.51,0.29,6.66-2.05,9.54c-0.89,1.09-1.5,2.42-2.21,3.66c-0.93,1.61-1.62,3.41-2.79,4.81
	c-2.48,2.95-3.08,6.4-3.01,10c0.07,3.5-1.4,6.13-4.19,7.93c-1.52,0.98-2.6,2.19-3.41,3.72c-1.06,2.01-2.07,4.05-3.05,6.09
	c-2.12,4.41-4.98,8.32-8.05,12.09c-1.98,2.44-3.93,4.82-5.16,7.81c-0.73,1.8-2.03,3.48-3.42,4.86c-1.38,1.35-2.29,2.88-3.06,4.56
	c-1.97,4.3-4.43,8.21-7.68,11.73c-2.59,2.8-4.59,6.13-6.51,9.47c-0.78,1.36-1.62,2.72-2.65,3.88c-2.57,2.86-5.23,5.64-7.91,8.4
	c-2.69,2.76-5.35,5.56-8.19,8.16c-2.2,2.02-4.62,3.81-7,5.64c-2.03,1.57-4.13,3.05-6.41,4.73c0.41,0.97,0.71,1.88,1.17,2.7
	c2.03,3.65,3.84,7.34,3.78,11.68c-0.01,0.97,0.33,1.97,0.6,2.93c1.37,4.94,2.79,9.87,4.16,14.82c1.83,6.61,1.66,13.28,0.61,19.99
	c-0.82,5.23-1.92,10.38-3.44,15.46c-1.02,3.42-1.65,6.95-2.66,10.37c-0.77,2.59-1.76,5.14-2.88,7.6c-1.59,3.51-3.34,6.96-5.12,10.38
	c-0.79,1.51-1.72,2.97-2.79,4.29c-2.23,2.75-3.44,5.85-3.88,9.35c-1.09,8.51-3.06,16.86-5.04,25.18c-0.88,3.71-2.38,7.29-4.64,10.5
	c-1.31,1.86-2.4,3.87-2.6,6.26c-0.07,0.81-0.57,1.58-0.86,2.38c-0.64,1.73-1.27,3.45-1.99,5.42c-0.79,0.64-1.2-0.7-2.33-0.84
	c-0.69,0.36-1.65,0.88-2.57,1.36c-1.56-0.67-2.2-1.92-2.71-3.28c-0.86-2.28-1.43-4.6-1.51-7.08c-0.19-6-0.55-11.99-0.91-17.99
	c-0.08-1.42-0.41-2.83-0.65-4.23c-1.52-8.74-3.32-17.4-6.85-25.6c-1.72-3.98-2.41-8.19-2.73-12.5c-0.6-8.1,0.45-15.96,2.86-23.69
	c0.89-2.86,1.77-5.74,2.42-8.66c1.62-7.3,4.42-14.16,7.32-21.01c3.05-7.24,5.74-14.63,8.55-21.96c0.14-0.36,0.02-0.83,0.02-1.23
	c-5.33-1.12-15.74,0.32-23.13,3.24c-0.09,1.04-0.53,2.26-0.22,3.26c0.97,3.16,0.32,6.29-0.08,9.36c-0.49,3.72-0.36,7.39-0.29,11.1
	c0.05,2.42-0.15,4.85-0.25,7.27c-0.12,2.88-0.69,5.69-1.75,8.36c-1.67,4.23-2.31,8.87-4.96,12.71c-4.17,6.03-7.13,12.67-10.04,19.35
	c-1.54,3.53-3.27,6.97-4.73,10.53c-1.4,3.42-2.57,6.94-3.81,10.43c-1.67,4.7-3.29,9.42-5.69,13.83c-1.09,2-1.85,4.18-2.72,6.29
	c-1.69,4.11-3.65,8.04-6.34,11.62c-1.62,2.16-2.99,4.54-4.21,6.96c-1.94,3.85-4.07,7.45-7.28,10.48c-2.56,2.41-4.54,5.43-6.79,8.16
	c-0.34,0.41-0.75,0.75-1.44,1.44c-0.46-1.22-0.76-2.11-1.14-2.97c-0.28-0.64-0.59-1.68-1.03-1.75c-2.16-0.38-2.1-2.06-2.36-3.57
	c-0.53-3.1-1.12-6.19-1.53-9.3c-0.28-2.12-0.53-4.28-0.39-6.4c0.38-6.13,0.85-12.26,1.51-18.36c0.29-2.68,1-5.33,1.7-7.95
	c2.09-7.87,4.17-15.74,5.37-23.81c1-6.74,3.76-12.89,6.86-18.85c1.78-3.43,3.5-6.86,4.84-10.49c2.24-6.08,5.53-11.62,9.37-16.79
	c2.9-3.9,5.98-7.66,9.12-11.36c1.8-2.12,3.17-4.31,3.78-7.08c0.57-2.63,1.55-5.16,2.44-8.05c-0.86-0.18-1.5-0.48-2.11-0.42
	c-2.12,0.2-4.23,0.53-6,0.77c-0.52,0.47-0.81,0.62-0.93,0.85c-3.27,6.87-8.4,12.19-14.22,16.9c-3.66,2.96-7.31,5.98-11.21,8.6
	c-5.21,3.5-10.65,6.66-16.02,9.92c-4.43,2.69-8.21,6.08-11.75,10.38c1.8,0.78,3.28,1.55,4.84,2.04c1.37,0.43,2.15,1.27,2.72,2.5
	c1.63,3.53,2.73,7.22,3.32,11.04c1.33,8.51,1.11,17.1,0.96,25.67c-0.04,2.24-0.38,4.57-2.17,6.33c-0.39,0.39-0.64,0.94-0.91,1.44
	c-2.46,4.51-4.72,9.14-7.42,13.5c-2.72,4.4-6.11,8.24-11.18,10.19c-1.86,0.72-3.64,1.66-5.47,2.45c-4.69,2.01-9.54,2.58-14.65,2.24
	c-9.1-0.6-16.32-4.71-22.51-11.07c-3.09-3.19-5.77-6.69-8.12-10.47c-2.5-4.02-3.7-8.34-3.38-13.06c0.41-5.9,1.69-11.55,4.48-16.85
	c3.85-7.34,9.26-13.38,15.48-18.7c1.7-1.46,3.84-2.48,5.91-3.41c9.26-4.17,18.23-8.86,26.95-14.07c3.33-1.99,6.52-4.07,9.25-6.84
	c0.88-0.9,2-1.67,3.16-2.16c10.18-4.36,19.14-10.73,28.15-17.02c2.59-1.81,4.6-4.28,6.25-6.99
	C204.27,168.36,204.37,167.66,204.6,166.95z M220.89,95.96c-0.07,1.48-0.12,2.27-0.13,3.06c-0.04,2.7,0.07,5.42-0.13,8.11
	c-0.16,2.12-0.83,4.19-1.02,6.31c-0.22,2.46-0.56,4.8-2.02,6.89c-0.48,0.69-0.81,1.54-0.98,2.36c-1.19,5.74-2.19,11.5-2.13,17.4
	c0.02,1.68,0.41,3.21,1.83,4.13c1.34,0.87,1.77,2.15,2.19,3.51c0.24,0.78,0.51,1.55,0.73,2.22c11.3,0.9,60.13-10.02,66.27-14.84
	c-3.36-1.08-6.71-1.51-10.03-2.07c-5.16-0.88-9.89-2.67-13.9-6.18c-3.65-3.2-7.52-6.16-11.1-9.43c-2.94-2.69-5.62-5.68-8.39-8.56
	c-1.1-1.15-2.19-2.18-3.88-2.47c-6.3-1.1-11.42-4.28-15.62-9.05C222.29,97.03,221.92,96.8,220.89,95.96z"/>
</svg>
