<?xml version="1.0" encoding="utf-8"?>
<!-- Generator: Adobe Illustrator 26.1.0, SVG Export Plug-In . SVG Version: 6.00 Build 0)  -->
<svg version="1.1" id="Layer_1" xmlns="http://www.w3.org/2000/svg" xmlns:xlink="http://www.w3.org/1999/xlink" x="0px" y="0px"
	 viewBox="0 0 387.37 243.58" style="enable-background:new 0 0 387.37 243.58;" xml:space="preserve">
<path d="M93.51,169.09c-1.17-0.32-1.79-1.3-2.51-2.14c-3.04-3.55-5.63-7.41-8.08-11.37c-1.36-2.19-2.8-4.32-3.9-6.69
	c-1.64-3.54-4.02-6.63-6.46-9.65c-3.21-4-5.65-8.42-7.75-13.08c-1.92-4.26-3.35-8.68-4.69-13.14c-0.47-1.56-0.72-3.18-1.01-4.79
	c-0.49-2.71-1.01-5.42-1.36-8.15c-0.95-7.37-1.16-14.78-0.66-22.2c0.56-8.29,2.02-16.42,4.49-24.35c1.2-3.86,2.48-7.7,4.64-11.2
	c1.22-1.97,2.04-4.17,3.17-6.21c0.78-1.41,1.81-2.67,2.62-4.06c0.45-0.78,1.78-1.17,1.19-2.45c0.57-0.85,0.97-1.94,1.75-2.48
	c1.33-0.92,1.97-2.35,3.04-3.43c0.11-0.11,0.12-0.34,0.23-0.46c0.57-0.63,2.02-0.32,1.83-1.75c0.58-0.73,1.14-1.48,1.76-2.18
	c0.62-0.71,1.31-1.36,1.97-2.04c0.65-0.68,1.3-1.36,1.94-2.06c1.64-1.8,3.59-3.25,5.65-4.48c1.9-1.13,3.72-2.4,5.67-3.44
	c2.04-1.09,4.16-2.05,6.3-2.94c2.3-0.95,4.64-1.8,7-2.6c0.97-0.33,2.03-0.6,3.03-0.54c2.78,0.17,5.52-0.1,8.24-0.59
	c2.31-0.41,4.63-0.44,6.95-0.55c4.06-0.19,8.11-0.1,12.1,0.6c1.94,0.34,3.88,0.63,5.84,0.83c1.57,0.16,3.05,0.53,4.44,1.29
	c0.37,0.2,0.81,0.44,1.19,0.41c1.43-0.11,2.39,0.7,3.48,1.44c1.84,1.25,3.65,2.54,5.44,3.86c2.76,2.04,5.62,3.96,8.06,6.39
	c2.08,2.06,4.18,4.12,6.06,6.36c1.52,1.81,3.24,3.32,5.29,4.69c1.22-0.58,2.45-1.18,3.69-1.75c5.94-2.76,11.83-5.67,17.86-8.22
	c4.44-1.88,9.05-3.37,13.63-4.89c10.51-3.5,21.34-5.6,32.29-7.1c2.55-0.35,5.17-0.36,7.75-0.31c3.79,0.07,7.58,0.29,11.37,0.54
	c4.39,0.29,8.77,0.65,13.16,1.06c6.26,0.58,12.21,2.29,17.77,5.19c4.05,2.11,7.92,4.56,11.27,7.72c1,0.95,2.01,1.89,2.91,2.93
	c0.85,0.99,1.81,1.79,3.05,2.21c-0.17,0.46-0.29,0.77-0.42,1.11c0.46,0.59,0.83,1.35,1.43,1.76c1.09,0.72,1.14,1.62,0.81,2.57
	c0.93,1.29,1.79,2.47,2.62,3.66c0.24,0.34,0.42,0.73,0.61,1.11c0.34,0.69,0.65,1.38,0.99,2.07c0.23,0.46,0.62,0.89,0.71,1.37
	c0.31,1.77,1.63,3.01,2.29,4.59c0.15,0.38,0.46,0.84,0.8,0.96c1.34,0.48,1.69,1.65,2.08,2.77c0.42,1.18,0.99,2.33,0.83,3.73
	c-0.31-0.55-0.63-1.1-0.95-1.67c-0.19,0.17-0.39,0.28-0.37,0.36c0.05,0.34,0.28,0.68,0.23,0.99c-0.13,0.96,0.28,1.63,0.91,2.27
	c0.23,0.23,0.32,0.6,0.47,0.91c0.4-0.09,0.86-0.85,1.2-0.05c0.44,1.02,0.88,2.08,1.05,3.16c0.21,1.3,0.73,2.47,1.16,3.68
	c0.67,1.87,1.13,3.79,1.42,5.76c0.91,6.23,1.81,12.46,2,18.76c0.17,5.62-0.2,11.2-0.9,16.77c-0.25,1.97-0.45,3.94-0.72,5.9
	c-0.1,0.76-0.21,1.56-0.5,2.26c-2.7,6.57-4.32,13.43-5.72,20.37c-0.42,2.1-0.94,4.22-1.73,6.21c-1.88,4.73-3.43,9.57-4.86,14.45
	c-1.21,4.1-3.16,7.83-5.51,11.36c-1.76,2.66-3.59,5.28-5.39,7.91c-0.15,0.21-0.33,0.4-0.44,0.63c-1.71,3.63-4.33,6.63-6.84,9.7
	c-2.89,3.54-5.8,7.06-8.78,10.53c-1.68,1.96-3.5,3.81-5.26,5.7c-0.69,0.74-1.49,1.4-2.14,2.43c0.25,0.17,0.44,0.37,0.67,0.45
	c2.28,0.8,4.55,1.6,7,1.7c1.03,0.04,2.07,0.14,3.08,0.32c2.84,0.5,5.66,0.42,8.48-0.13c4.17-0.83,8.18-2.1,11.96-4.08
	c0.46-0.24,0.9-0.51,1.34-0.79c1.26-0.79,1.92-1.88,1.91-3.43c-0.02-1.98,0.1-3.96,0.17-5.95c0.04-1.21,0.12-2.41-0.35-3.58
	c-0.09-0.23-0.17-0.54-0.1-0.76c0.58-1.87,0.33-3.87,1.19-5.75c1.38-3.02,3.36-5.56,5.33-8.18c2.98-3.96,6.45-7.45,10.28-10.51
	c6.06-4.84,12.72-8.62,20.56-9.8c1.96-0.3,3.94-0.5,5.91-0.62c0.93-0.06,1.9,0.08,2.81,0.3c2.42,0.58,4.77,1.49,7.31,1.49
	c0.48,0,0.96,0.26,1.73,0.49c-0.58,0.44-0.93,0.71-1.39,1.05c0.79,0.82,1.62,1.58,2.32,2.44c1.02,1.26,1.77,2.78,3.4,3.43
	c0.69,1.7,2.39,2.67,3.09,4.38c0.44,1.1,1.05,2.13,1.57,3.15c0.66-0.1,0.57-0.47,0.45-0.76c-0.34-0.86,0.02-1.48,0.62-2.04
	c0.14,0.12,0.36,0.21,0.37,0.33c0.14,1.11,0.31,2.22,0.36,3.34c0.08,1.8,0.22,3.56,0.7,5.33c0.5,1.82,0.4,3.76-0.06,5.64
	c-0.53,2.17-1.01,4.36-1.57,6.52c-0.36,1.4-0.49,2.86-1.4,4.11c-0.32,0.44-0.51,1.23-0.34,1.72c0.59,1.68-0.33,2.79-1.3,3.86
	c-0.43,0.48-0.57,1.02-0.78,1.58c-1.05,2.73-2.12,5.46-3.27,8.15c-0.44,1.02-1.08,1.95-1.69,2.89c-1.05,1.61-1.73,3.43-2.05,5.26
	c-0.46,2.59-1.38,4.96-2.49,7.29c-0.88,1.87-1.79,3.72-2.62,5.61c-2.05,4.67-5.54,8.05-9.65,10.88c-1.14,0.78-2.28,1.56-3.39,2.37
	c-4.36,3.18-9.14,5.51-14.24,7.22c-2.5,0.84-5.1,0.84-7.68,0.87c-1.98,0.02-3.96-0.07-5.94,0.25c-0.93,0.15-1.9,0.09-2.84,0.04
	c-4.22-0.23-8.43-0.55-12.61-1.23c-2.98-0.48-6-0.67-8.98-1.13c-2.98-0.46-5.92-1.13-8.89-1.63c-0.82-0.14-1.41-0.58-2.08-0.97
	c-0.57-0.34-1.15-0.82-1.91-0.41c0.11,0.39,0.21,0.79,0.35,1.32c-0.39,0-0.72,0.08-1-0.01c-3.77-1.24-7.52-2.51-11.29-3.75
	c-1.47-0.48-2.95-0.97-4.46-1.33c-2.11-0.49-4.07-1.39-6.1-2.11c-1.13-0.4-2.32-0.61-3.46-0.99c-1.06-0.36-2.1-0.77-3.1-1.26
	c-3.8-1.85-7.59-3.73-11.37-5.61c-0.78-0.38-1.53-0.92-2.35-0.09c-3.23,0.9-6.47,1.8-9.69,2.71c-0.58,0.16-1.2,0.29-1.7,0.6
	c-4.17,2.6-8.79,3.84-13.6,4.52c-6.16,0.87-12.37,1.08-18.58,1.2c-4.23,0.08-8.45,0.27-12.68,0.32c-3.19,0.04-6.38-0.05-9.57-0.1
	c-1.47-0.02-2.93-0.01-4.39-0.1c-3.61-0.22-7.24-0.36-10.83-0.78c-2.82-0.33-5.61-0.95-8.38-1.57c-1.93-0.43-3.81-1.1-5.72-1.65
	c-5.71-1.62-10.53-4.67-14.53-9.04c-1.43-1.56-2.55-3.38-3-5.36c-0.54-2.39-1.66-4.52-2.43-6.79c-0.19-0.57-0.41-1.13-0.64-1.75
	c-3.66-2.64-7.37-5.31-11.07-7.98c-1.19-0.86-2.34-1.77-3.53-2.63c-0.82-0.59-1.65-0.7-2.67-0.34c-3.48,1.26-6.99,2.47-10.51,3.62
	c-1.39,0.45-2.82,0.79-4.26,1.03c-5.61,0.96-11.18,2.11-16.63,3.77c-2.81,0.85-5.69,1.36-8.65,1.45
	c-5.44,0.18-10.81,1.03-16.15,2.05c-4.27,0.82-8.55,0.92-12.88,0.62c-3.78-0.27-7.58-0.24-11.37-0.35c-2.76-0.08-5.48-0.5-8.19-1.06
	c-1.27-0.26-2.52-0.6-3.8-0.75c-3.33-0.4-6.32-1.59-9.05-3.53c-0.91-0.65-1.93-1.14-2.91-1.67c-3.2-1.73-5.73-4.08-7.24-7.47
	c-0.9-2.02-1.25-4.15-1.31-6.29c-0.11-3.49-0.74-6.86-1.84-10.14c-0.76-2.27-0.69-4.57-0.66-6.88c0.01-0.75,0.4-1.49,0.62-2.23
	c0.24-0.8,0.68-1.39,1.58-1.49c0.72-0.08,1.31-0.38,1.66-1.06c0.4-0.77,1.11-1,1.91-1.13c3.32-0.54,6.64-1.09,10.01-1.2
	c5-0.16,10-0.35,15-0.47c7.06-0.17,13.9,1.12,20.62,3.17c6.76,2.06,13.51,4.19,20.32,6.09c4.39,1.23,8.85,2.25,13.34,3.08
	c4.21,0.78,8.42,0.64,12.5-1.47c-0.79-1.53-1.89-2.74-3.47-3.5c0.01,0,0.02,0,0.02,0c-0.08-0.32-0.15-0.64-0.26-0.95
	c-0.04-0.1-0.23-0.13-0.35-0.2C93.53,168.8,93.52,168.95,93.51,169.09z M291.16,125.09c0.31-0.69,0.8-1.36,0.55-2.31
	c-2.23-2.09-3.83-4.74-5-7.64c-1.09-2.71-2.09-5.47-3-8.24c-2.7-8.18-5-16.48-6.61-24.96c-0.77-4.07-1.7-8.09-3.21-11.96
	c-0.74-1.88-1.79-3.53-3.23-4.93c-2.63-2.55-5.68-4.47-9.06-5.88c-1.03-0.43-2.06-0.87-3.1-1.31c-3.1-1.32-6.23-2.62-9.55-3.15
	c-6.04-0.97-12.06-2.03-18.2-2.29c-5.03-0.22-9.59-2.02-13.19-5.78c-0.59-0.61-1.28-1.12-1.86-1.63
	c-5.82,2.06-16.83,7.02-18.49,9.31c1.24,2.32,2.52,4.66,3.74,7.03c3.2,6.22,5.97,12.61,7.64,19.42c0.54,2.22,1.4,4.48,0.24,6.8
	c-0.17,0.35-0.1,0.85-0.06,1.28c0.23,2.33-0.29,4.61-0.38,6.92c-0.05,1.29,0.01,2.6-0.25,3.85c-0.19,0.92-0.69,1.79-0.36,2.75
	c0.36,1.06-0.49,1.95-0.29,3c0.12,0.64,0.11,1.39-0.11,2c-0.24,0.68-0.79,1.26-1.2,1.87c0.65,1.52,0.75,1.54,0.12,4.18
	c-0.38,1.6-0.22,3.52-2.11,4.44c0.32,1.06,1,2.05-0.15,2.9c-0.14,0.1-0.12,0.5-0.08,0.74c0.37,2.21-0.6,3.81-2.31,5.15
	c0.23,0.51,0.47,1.03,0.76,1.68c-0.74,0.37-1.38,0.69-2.3,1.15c1.36,0.84,0.44,2.01,0.92,2.92c-0.51,0.96-1.03,1.92-1.56,2.92
	c0.44,0.69,0.51,1.38-0.37,1.91c-0.22,0.13-0.42,0.3-0.61,0.43c0.06-0.14,0.12-0.27,0.16-0.41c0.01-0.04-0.06-0.11-0.09-0.16
	c-0.02,0.18-0.04,0.36-0.06,0.55c0.43,0.23,0.86,0.46,1.33,0.72c-0.58,1.29-1.08,2.46-1.62,3.61c-0.37,0.8-0.2,1.52,0.3,2.17
	c0.31,0.4,0.73,0.74,1.12,1.07c6.26,5.42,12.67,10.67,19.6,15.22c7.71,5.06,15.48,10.03,23.24,15.01c2.18,1.4,4.41,2.71,6.64,4.01
	c0.96,0.56,1.98,0.99,2.9,1.44c1.94-0.93,3.2-2.37,4.48-3.75c4.71-5.03,9.64-9.87,13.97-15.25c3.63-4.51,6.93-9.24,9.9-14.2
	 M150.01,46.53c-0.4-0.59-0.71-1.22-1.16-1.71c-1.63-1.78-3.31-3.51-4.97-5.26c-2.35-2.49-5.21-3.68-8.64-4.11
	c-5.04-0.64-9.96-0.55-14.87,0.79c-1.91,0.52-3.85,0.9-5.41,2.28c-0.37,0.33-0.96,0.38-1.41,0.64c-2.47,1.42-4.88,2.87-6.41,5.45
	c-2.56,4.32-4.79,8.77-6.26,13.58c-0.83,2.72-1.68,5.43-2.38,8.19c-0.75,3-1.66,5.98-1.94,9.09c-0.13,1.45-0.53,2.88-0.71,4.33
	c-0.27,2.13-1,4.2-0.61,6.4c0.31,1.78,0.48,3.58,0.69,5.38c0.46,3.85,0.99,7.69,1.36,11.55c0.34,3.53,0.88,7,1.87,10.41
	c1.07,3.72,2.08,7.47,3.18,11.18c0.74,2.47,1.49,4.95,2.43,7.36c1.06,2.73,2.33,5.37,3.53,8.05c1.38,3.09,3.15,5.92,5.35,8.5
	c3.08,3.61,5.99,7.35,8.49,11.39c0.63,1.02,1.29,2.02,2.15,2.71c1,0.21,1.64-0.31,2.32-0.64c2.33-1.13,4.59-2.38,6.96-3.42
	c4.87-2.14,9.1-5.23,13.23-8.5c0.73-0.58,1.38-1.25,2.12-1.92c-0.32-0.4-0.51-0.67-0.75-0.91c-4.09-4.17-7.28-8.94-9.65-14.27
	c-1.5-3.38-3.06-6.74-4.58-10.12c-0.21-0.47-0.34-0.97-0.51-1.46c-0.87-2.52-1.76-5.03-2.61-7.55c-0.55-1.63-1.14-3.25-1.51-4.92
	c-0.34-1.51-0.4-3.07-0.6-4.61c-0.04-0.32-0.1-0.8-0.32-0.92c-1.34-0.74-1.19-2.01-1.16-3.18c0.06-1.98,0.27-3.95,0.37-5.93
	c0.06-1.2,0.18-2.42,0.04-3.61c-0.15-1.32-0.01-2.56,0.36-3.82c0.37-1.24,0.82-2.48,0.99-3.75c0.36-2.77,1.41-5.31,2.36-7.9
	c1.52-4.16,3.63-8.01,5.91-11.76c2.78-4.57,5.94-8.89,9.34-13.02C147.7,49.18,148.84,47.89,150.01,46.53z M215.9,199.96
	c-1.84-2.03-4.1-3.14-6.01-4.67c-2.01-1.61-4.21-3-6.31-4.49c-2.04-1.45-4.06-2.92-6.09-4.37c-2.11-1.5-4.22-2.98-6.33-4.47
	c-2.04-1.44-4.11-2.84-6.12-4.32c-2.09-1.52-4.1-3.15-6.2-4.66c-2.01-1.45-3.77-3.24-5.95-4.51c-0.49,0.33-0.88,0.72-1.34,0.87
	c-0.55,0.19-1.19,0.11-1.75,0.27c-0.74,0.21-1.48,0.46-2.15,0.83c-1.51,0.83-2.99,1.71-4.44,2.64c-4.35,2.78-8.46,5.94-13.04,8.37
	c-0.43,0.23-0.76,0.63-1.18,0.99c0.74,1.45,2.03,2.07,3.16,2.75c4.57,2.75,9.18,5.45,13.85,8.03c2.63,1.45,5.38,2.72,8.16,3.89
	c2.77,1.17,5.6,2.21,8.46,3.15c2.37,0.78,4.81,1.34,7.22,1.98c0.49,0.13,1.01,0.26,1.52,0.26c2.84-0.01,5.7,0.09,8.53-0.13
	c4.81-0.38,9.59-1.01,14.32-1.96C214.69,200.32,215.16,200.16,215.9,199.96z M169.52,118.86c0.66-3.65,1.43-6.66,1.72-9.73
	c0.68-7.12,1.32-14.25,1.1-21.43c-0.04-1.12-0.06-2.26,0.13-3.36c0.54-3.01,0.32-6.02,0.26-9.03c-0.01-0.3-0.17-0.6-0.32-1.14
	c-3.18,2.87-6.07,5.69-8.26,9.11c-1.26,1.96-2.22,4.12-2.5,6.47c-0.46,3.78-0.53,7.58,0.29,11.32c0.48,2.18,1.13,4.33,1.73,6.49
	C164.76,111.51,166.83,114.96,169.52,118.86z M325.83,43.95c-0.21,0.89-0.19,1.4,0.76,2.13C326.26,45.12,326.09,44.67,325.83,43.95z
	 M197.65,138.39c-0.06,0.12-0.12,0.24-0.17,0.37c0,0.01,0.11,0.06,0.17,0.09c0.06-0.12,0.13-0.24,0.18-0.36
	C197.83,138.48,197.71,138.42,197.65,138.39z M332.53,69.87c-0.03,0.06-0.09,0.12-0.09,0.19c-0.01,0.07,0.02,0.15,0.03,0.23
	c0.06-0.07,0.14-0.14,0.16-0.22C332.64,70.01,332.56,69.93,332.53,69.87z M89.76,164.04c0.05,0.05,0.1,0.09,0.16,0.14
	c0.04-0.07,0.08-0.13,0.12-0.2c-0.06-0.03-0.12-0.08-0.19-0.09C89.83,163.89,89.79,163.99,89.76,164.04z M199.36,133.49
	c0.08-0.13,0.17-0.25,0.23-0.38c0.01-0.03-0.14-0.16-0.16-0.15c-0.13,0.06-0.24,0.16-0.36,0.25
	C199.16,133.3,199.26,133.4,199.36,133.49z M197.63,140.29c-0.22-0.07-0.42-0.13-0.61-0.2c-0.02,0.12-0.1,0.3-0.05,0.36
	c0.08,0.11,0.25,0.18,0.39,0.19C197.43,140.64,197.51,140.46,197.63,140.29z M133.01,202.12c-0.13-0.09-0.24-0.21-0.38-0.26
	c-0.03-0.01-0.23,0.24-0.2,0.27c0.09,0.12,0.23,0.2,0.35,0.3C132.85,202.33,132.93,202.23,133.01,202.12z M314.76,29.11
	c0.04-0.05,0.11-0.12,0.1-0.15c-0.03-0.06-0.1-0.09-0.16-0.14c-0.05,0.07-0.09,0.14-0.14,0.21
	C314.63,29.06,314.7,29.08,314.76,29.11z M329.93,56.98l0.16-0.04l-0.1-0.17L329.93,56.98z"/>
</svg>
