<?xml version="1.0" encoding="utf-8"?>
<!-- Generator: Adobe Illustrator 26.1.0, SVG Export Plug-In . SVG Version: 6.00 Build 0)  -->
<svg version="1.1" id="Layer_1" xmlns="http://www.w3.org/2000/svg" xmlns:xlink="http://www.w3.org/1999/xlink" x="0px" y="0px"
	 viewBox="0 0 381.26 388.29" style="enable-background:new 0 0 381.26 388.29;" xml:space="preserve">
<path d="M24.79,300.9c-0.89-1.04-1.78-2.08-2.71-3.17c0.18-0.2,0.39-0.44,0.84-0.94c-0.72-0.78-1.47-1.59-2.21-2.4l0.07,0.07
	c-0.22-1.09-0.16-2.32-1.6-3.12c-0.5,0.55-0.97,1.07-1.45,1.59c0,0,0.06-0.07,0.06-0.07c-0.41-0.49-0.99-0.92-1.21-1.49
	c-0.81-2.06-1.56-4.15-2.23-6.26c-0.44-1.38-1.34-2.51-1.88-3.86c-0.64-1.61-1.5-3.08-1.25-5.26c-0.96,0.47-1.62,0.79-2.41,1.17
	c-0.4-1.11-0.85-2.4-1.37-3.85c0.81,0,1.5,0,2.25,0c0.01-0.31,0.11-0.69,0.02-0.75c-1.27-0.74-1.72-1.7-1.39-3.22
	c0.15-0.68-0.37-1.58-0.75-2.29c-0.88-1.68-1.53-3.37-1.82-5.3c-0.34-2.25-1.04-4.49-1.89-6.62c-0.57-1.42-0.66-2.58-0.01-3.97
	c0.83-1.76,0.37-3.22-1.07-4.06c-0.11-0.06-0.44,0.27-1.24,0.78c1.2-2.46-0.06-4.83,1.64-6.85c0.47-0.55,0.26-1.76,0.18-2.66
	c-0.18-2.05-0.47-4.08-0.75-6.31c-0.9,2.93,0.31,5.69,0.16,8.96c-0.6-0.72-1.09-1.06-1.19-1.48c-0.29-1.28-0.42-2.59-0.6-3.89
	c-0.17-1.19,0.24-2.5-0.83-3.49c-0.18-0.17-0.15-0.63-0.14-0.96c0.16-4.99,0.34-9.97,0.51-14.96c0.01-0.37,0.09-0.73,0.14-1.1
	c0.16,0,0.32,0,0.48-0.01c0.19,3.76,0.39,7.53,0.58,11.29c0.19,0,0.38-0.01,0.57-0.01c0.44-7.01,0.88-14.03,1.32-21.06
	c-0.84-0.37-1.41-0.62-1.97-0.87c-0.21-5.95,0.65-11.67,2.64-17.2c0.18,0.03,0.36,0.07,0.54,0.1c-0.69,2.73-1.38,5.46-2.07,8.19
	c0.18,0.06,0.35,0.12,0.53,0.18c0.36-0.96,0.74-1.91,1.08-2.88c0.52-1.47,0.92-2.99,1.53-4.41c0.58-1.34-0.17-2.18-1.05-3.14
	c2.58-1.28,2.54-4.01,3.78-5.99c0.98-1.56,1.76-3.25,2.63-4.88c0.04-0.07,0.18-0.1,0.18-0.16c0.23-3.59,3.82-5.21,4.89-8.31
	c0,0,0.04-0.03,0.04-0.03c2.74-4.44,6.13-8.36,9.79-12.03c2.66-2.67,5.58-5.09,8.39-7.6c0.55-0.49,1.18-0.9,1.72-1.4
	c5.92-5.4,12.93-8.34,20.84-9.32c1.42-0.18,2.84-0.57,4.2-1.03c1.32-0.45,2.52-0.55,3.83,0.05c0.32,0.14,0.92-0.33,1.31-0.95
	c0.75,0.3,1.5,0.57,2.24,0.9c0.75,0.33,1.27,0.08,1.69-0.54l-0.07,0.06c2.36,0.85,4.54-0.37,6.79-0.63
	c0.95-0.11,1.76-0.22,2.64,1.03c-1.79,0.49-3.35,0.91-4.91,1.34c0.02,0.18,0.04,0.36,0.06,0.54c1,0,2.02,0.11,3.01-0.02
	c2.72-0.37,5.42-0.53,8.14,0.03c0.48,0.1,0.99,0.06,1.48,0.02c2.2-0.16,2.43-0.38,3.05-2.5c0.79-2.69,1.69-5.36,2.41-8.07
	c1.04-3.88,3.79-6.27,7-8.27c1.12-0.7,2.3-1.33,3.51-1.83c0.72-0.3,1.56-0.35,2.35-0.41c1.22-0.1,2.48,0.03,3.68-0.2
	c1.34-0.25,1.93-1.43,2.3-2.61c0.52-1.65,0.91-3.35,1.37-5.02c1.52-5.5,3.46-10.84,5.66-16.12c1.51-3.62,2.25-7.59,3.05-11.45
	c0.28-1.33-0.3-2.85-0.53-4.56c0.23-0.12,0.77-0.39,1.53-0.78c-0.73-0.35-1.32-0.63-1.98-0.95c0.21-1.22,1.21-1.28,2.06-1.68
	c-0.35-0.72-0.7-1.43-1.09-2.21c0.54-0.58,1.05-1.11,1.57-1.66c-0.85-3.68,2.17-5.4,3.72-7.87c0.2,0,0.4,0.01,0.61,0.01
	c0.41,1.1,0.62,2.33,1.27,3.25c0.6,0.85,1.67,1.36,2.72,2.16c0.91-0.86,1.29-2.41,2.58-3.44c1.13-0.9,1.63-2.76,3.35-3.88
	c0.07,1.36,0.13,2.52,0.19,3.78c2.12,0.43,3.15-1.82,5-1.89c0,0.36,0,0.67,0,0.98c0.14-0.01,0.32,0.02,0.44-0.05
	c3.28-1.92,6.51-3.92,9.84-5.74c2.7-1.48,4.96-3.58,7.48-5.19c2.97-1.89,4.98-4.49,7.24-6.95c2.84-3.1,5.49-6.37,8.36-9.44
	c2.19-2.34,4.8-4.31,6.87-6.74c1.58-1.85,3.55-3.14,5.36-4.65c0.81-0.68,1.94-0.97,2.72-1.34c0.92-1.09,1.59-2.44,2.67-3.04
	c1.76-0.97,3.04-2.85,5.32-2.93c0.37-0.01,0.73-0.61,1.08-0.95c0.81-0.81,1.51-1.75,2.9-1.61c0.38,0.04,0.82-0.43,1.2-0.71
	c0.52-0.39,0.97-1.13,1.5-1.18c2.78-0.25,4.78-2.42,7.46-2.89c0.62-0.11,1.42-0.42,1.71-0.89c0.72-1.19,1.41-1.83,2.73-0.83
	c0.14,0.1,0.49,0.04,0.67-0.07c1.05-0.58,2.07-1.2,3.15-1.83c0.12,0.45,0.19,0.74,0.29,1.12c1.22-0.01,2.21-0.58,2.98-1.46
	c0.73-0.84,1.82-0.96,2.47-0.58c1.56,0.91,2.46,0.59,2.95-1.35c1.55,1.37,2.72,1.5,4.44,0.58c1.54-0.82,3.67-0.5,5.51-0.81
	c2.61-0.44,5.2-1.01,7.8-1.51c0.4-0.08,1-0.3,1.19-0.12c1.86,1.8,3.78,0.61,5.29,0.3c0.76,0.51,1.24,1.06,1.8,1.16
	c0.96,0.18,1.99-0.03,2.96,0.11c1.77,0.25,3.52,0.64,5.29,1.39c-0.55,0.21-1.11,0.43-1.96,0.75c1.3,0.95,2.44,0.61,3.46,0.35
	c2.58-0.66,4.97-0.07,7.3,0.92c1.6,0.69,3.15,1.54,4.84,0.26l-0.06,0.05c0.09,0.43,0.18,0.87,0.21,1.01
	c-1.24,0.19-2.33,0.24-3.34,0.56c-0.35,0.11-0.49,0.87-0.78,1.45c-0.34-0.08-1.27-0.48-1.41-0.29c-0.76,1.01-1.33,2.16-2.1,3.49
	c5.35,2.25,10.65,2.09,16.13,2.64c0.16,0.63,0.45,1.65,1.74,1.47c2.18-0.3,4.06,0.93,6.15,1.22c2.22,0.31,4.34,1.29,6.48,2.27
	c-1.34-0.16-2.69-0.32-4.26-0.5c1.06,1.16,1.98,2.18,2.93,3.18c0.27,0.29,0.57,0.61,0.92,0.75c4.64,1.8,9.29,3.56,13.92,5.36
	c0.45,0.17,1,0.37,1.24,0.73c2.13,3.25,5.47,5.11,8.41,7.43c0.9,0.71,1.63,1.64,2.51,2.37c5.44,4.56,10.93,9.08,15.74,14.33
	c0.72,0.79,1.47,0.89,2.38,0.96c0.86,0.07,1.95,0.03,1.72,1.47c-0.02,0.13,0.11,0.38,0.21,0.41c2.92,0.89,3.48,4,5.46,5.78
	c1.31,1.18,2.37,2.65,3.59,4.05c-0.44,0.58-0.71,0.94-1.06,1.41c1.09,1.87,2.08,3.86,3.34,5.67c2.94,4.25,5.52,8.66,7.62,13.41
	c2.47,5.59,5.32,11.01,8.05,16.48c3.36,6.73,5.11,13.94,6.37,21.3c0.77,4.52,0.63,9.05,0.17,13.59c-0.46,4.55-0.02,9.08,0.37,13.61
	c0.49,5.61,0.64,11.24-0.29,16.81c-0.42,2.51-1.38,4.93-2.06,7.39c-0.27,0.98-0.93,1.29-1.86,1.23c-1.4-0.08-2.64-0.02-2.86,1.87
	c-0.04,0.35-0.99,0.77-1.56,0.85c-1.77,0.24-3.58,0.24-5.35,0.51c-2.66,0.41-5.2,0.27-7.77-0.69c-1.88-0.71-3.93-0.96-5.88-1.52
	c-4.7-1.37-8.9-3.75-12.93-6.48c-3.41-2.31-6.82-4.61-10.22-6.94c-0.95-0.65-1.79-1.47-2.75-2.11c-6.12-4.05-11.26-9.17-16.23-14.5
	c-4.05-4.35-9.01-7.48-14.21-10.27c-1.89-1.02-3.72-2.15-5.6-3.2c-5.04-2.83-10.1-5.65-15.15-8.48c-0.36-0.2-0.74-0.39-1.05-0.66
	c-1.62-1.39-3.41-2-5.59-2.39c-4.02-0.73-8.22-1.01-11.96-2.96c-3.77-1.97-7.03-4.64-10.09-7.56c-3.64-3.48-7.31-6.92-10.85-10.5
	c-2.38-2.4-5.02-2.45-7.98-1.55c-2.6,0.79-5.22,1.54-7.86,2.15c-1.64,0.38-3.34,0.57-5.08-0.44c1.37-0.35,2.73-0.7,4.61-1.18
	c-1.59,0-2.66-0.04-3.73,0.01c-2.14,0.1-4.25,0.32-6.3-0.78c-0.9-0.48-2.14-0.28-3.12-0.66c-1.87-0.73-3.44-1.91-4.69-3.54
	c-3.02-3.97-7.01-6.99-10.57-10.41c-1.29-1.24-3.25-1.91-5.02-2.51c-3.61-1.22-7.34-1.98-11.2-1.88c-0.65,0.02-1.36-0.07-1.94-0.34
	c-1.78-0.82-3.46-0.89-5.19,0.15c-0.89,0.54-1.8,0.25-2.44-0.54c-0.73-0.9-1.37-1.86-2.06-2.79c-2.75-3.69-5.51-7.37-8.31-11.11
	c-2.17,1.34-4.23,2.67-6.34,3.89c-1.71,0.99-3.51,1.5-5.56,1.78c-1.97,0.27-3.81,1.78-5.61,2.92c-0.39,0.25-0.42,1.19-0.49,1.82
	c-0.44,4.19-0.66,8.41-1.32,12.57c-0.41,2.58-1.32,5.12-2.23,7.59c-1.49,4.08-2.24,8.29-2.74,12.56c-0.15,1.28-0.34,2.56-0.47,3.58
	c3.34,0.36,6.57,0.43,9.67,1.11c4.66,1.01,8.78,3.37,12.65,6.13c2.15,1.54,3.33,3.86,4.55,6.12c0.9,1.68,1.72,3.39,2.6,5.08
	c0.38,0.72,0.83,1.39,1.4,2.36c1.22-1.75,2.91-2.06,4.6-2.29c5.39-0.73,10.76-1.76,16.25-1.53c4.94-1.58,10-0.09,14.99-0.64
	c0.13-0.01,0.25-0.13,0.4-0.22c-0.36-0.13-0.71-0.26-1.06-0.39c0.03-0.11,0.05-0.21,0.08-0.32c0.98,0.25,1.97,0.49,2.95,0.74
	c0.24,0.06,0.53,0.24,0.7,0.15c1.61-0.82,3.22,0.18,4.84-0.02c1.72-0.21,3.46-0.33,5.19-0.3c3.38,0.07,6.76,0.27,10.17,0.06
	c-1.46,0-2.92,0-4.37,0c0-0.19,0-0.38,0.01-0.57c2.7-0.03,5.4-0.11,8.1,0.26c6.84,0.94,12.98,3.83,19,6.98
	c7.2,3.77,13.88,8.34,20.01,13.69c4.11,3.58,8.4,6.97,12.26,10.8c4.43,4.4,7.82,9.59,9.47,15.73c0.94,3.49,2.05,6.93,2.34,10.6
	c0.1,1.31,0.57,2.7,0.86,4.07c1.15,5.52,0.68,10.98,0.01,16.5c-0.87,7.15-2.58,14.11-4.19,21.1c-0.11,0.48-0.12,1.19-0.42,1.37
	c-0.98,0.57-0.48,1.29-0.55,2.04c-0.1,1.13,0.22,2.48-1.28,3.24c-0.44,0.22-0.58,1.47-0.47,2.19c0.11,0.73,1.01,1.48-0.54,1.61
	c-0.02,0-0.09,0.51,0.02,0.69c0.89,1.54,0.03,2.83-0.52,4.48c-0.48-0.43-1.05-0.71-1.05-0.98c0-1.05,0.15-2.11,0.32-3.15
	c0.13-0.84,0.37-1.67,0.4-2.53c-1.14,1.25-3.29,10.1-3.67,14.55c1.86-1.99,1.2-4.71,2.5-6.64c1.12,1.79,0.05,3.55-0.01,5.31
	c-0.08,2.21-0.31,4.42-0.62,6.61c-0.38,2.61-0.89,5.2-1.41,7.79c-2.24,11.23-6.69,21.63-12.33,31.5
	c-3.62,6.34-8.52,11.78-13.78,16.84c-3.63,3.49-7.27,6.98-10.93,10.44c-2.08,1.97-4.18,3.91-6.33,5.8
	c-0.38,0.34-1.02,0.38-1.54,0.55c0,0,0.05,0.06,0.05,0.06c1.52-1.79,3.05-3.58,4.57-5.37c-0.11-0.12-0.22-0.24-0.33-0.36
	c-0.51,0.44-1.06,0.85-1.53,1.33c-2.37,2.42-4.74,4.83-7.04,7.31c-0.53,0.57-1.05,1.36-1.15,2.1c-0.4,3.02-0.77,6.05-0.88,9.09
	c-0.16,4.29-0.2,8.6-0.05,12.89c0.16,4.63-0.66,9.04-2.25,13.34c-0.82,2.21-2.19,3.91-4.15,5.38c-3.99,2.97-8.02,5.82-12.55,7.91
	c-2.64,1.22-5.4,2.07-8.33,2.15c-5.62,0.15-11.23,0.27-16.85,0.37c-0.78,0.01-1.7,0.25-2.2-0.71l-0.03,0.01c2.36,0,4.73,0,7.09,0
	c0.01-0.18,0.02-0.36,0.04-0.55c-1.15-0.08-2.3-0.12-3.44-0.23c-2.38-0.24-4.75-0.56-7.13-0.74c-1.91-0.14-3.71,0.41-5.4,1.29
	c-2.42,1.26-4.82,2.49-7.57,2.99c-4.9,0.89-9.71,0.58-14.48-0.73c-3.34-0.92-6.6-2.06-9.72-3.64c-2.81-1.42-5.82-2.29-9.09-2.03
	c-3.02,0.24-5.92-0.38-8.65-1.75c-2.36-1.18-4.86-2.12-7.12-3.48c-2.07-1.24-3.75-0.82-5.46,0.46c-1.92,1.43-3.77,2.96-5.72,4.34
	c-5.44,3.85-11.31,4.27-17.41,1.9c-1.92-0.74-3.62-2.06-5.55-2.75c-4.39-1.56-6.79-5.17-9.44-8.59c-1.26-1.63-2.75-3.08-3.96-4.73
	c-0.82-1.11-1.4-2.41-1.96-3.68c-0.5-1.13-0.78-2.35-1.22-3.51c-0.36-0.94-1.04-1.38-1.89-0.59c-0.89,0.83-1.68,0.38-2.5,0.01
	c-2.9-1.32-4.72-3.67-6.5-6.75c0.82,0.39,1.21,0.58,2.2,1.05c-3.05-5.12-5.82-9.78-8.59-14.43c0.07-0.05,0.15-0.11,0.22-0.16
	c2.44,3.42,4.87,6.83,7.31,10.25c0.15-0.09,0.29-0.19,0.44-0.28c-0.26-1.53-1.57-2.51-2.21-3.84c-0.39-0.8-0.87-1.56-1.31-2.34
	c0.8,0.8,1.64,1.57,2.39,2.41c1.45,1.63,2.84,3.3,4.26,4.95c-1.55-3.88-5.74-9.01-7.51-9.77c0.31,0.83,0.63,1.66,0.94,2.49
	c-0.39-0.4-0.85-0.76-1.16-1.22c-2.05-2.92-4.07-5.85-6.09-8.78c-0.02-0.04-0.04-0.08-0.07-0.13c-0.48-0.74-0.97-1.49-1.44-2.22
	c-0.57,0.34-1.07,0.85-1.56,0.85c-0.44,0-1.01-0.48-1.31-0.9c-2.11-2.92-4.12-5.91-6.27-8.79c-0.64-0.86-0.1-1.54-0.07-2.3
	c0.88,0.95,1.75,1.89,2.63,2.84c0.13-0.11,0.26-0.22,0.39-0.33c-0.91-1.33-1.82-2.67-2.74-4c-0.13,0.07-0.26,0.14-0.39,0.2
	c0.06,0.46,0.12,0.91,0.18,1.37c-0.5-0.04-1.31,0.1-1.46-0.16c-1.45-2.46-3.62-4.41-4.63-7.21c-0.74-2.06-2.03-3.92-3.05-5.89
	c-0.91-1.77-1.77-3.57-2.36-5.51c0.66,0.78,1.32,1.57,1.98,2.35c0,0,0.04-0.14,0.04-0.14c0.74-0.13,1.49-0.26,2.43-0.43
	c-0.34-0.53-0.62-0.96-0.9-1.39L24.79,300.9z M37.81,323.91c0.66,0.44,1.33,0.87,1.99,1.31c-0.27-0.84-0.74-1.4-1.25-1.93
	c-0.07-0.07-0.29-0.01-0.48-0.01c-0.07,0.22-0.14,0.45-0.23,0.66c-0.47-0.26-0.93-0.52-1.48-0.83
	C36.8,324.53,36.8,324.53,37.81,323.91z M218.44,144.47c0.19,0.29,0.42,0.84,0.56,0.82c0.67-0.1,1.31-0.36,1.96-0.56
	c-0.02-0.11-0.04-0.22-0.07-0.33c-0.84,0.05-1.68,0.09-2.52,0.14c-1.21-0.25-2.42-0.5-3.64-0.75c-0.02,0.07-0.05,0.14-0.07,0.22
	c0.74,0.48,1.48,0.95,2.29,1.48C217.4,145.19,217.92,144.83,218.44,144.47z M218.47,147.41c-0.43-0.99-1.27-1.05-2.04-0.66
	c-0.3,0.15-0.28,0.92-0.49,1.77c1.12-0.51,1.86-0.85,2.59-1.19c1.13,0.81,2.36,0.9,3.64,0.44c0.51-0.18,1.03-0.62,1.39,0.19
	c1.12,0,2.25,0,3.37,0c-1.2-0.92-2.35-1.2-3.38,0.01c-0.46-0.36-0.91-1.03-1.37-1.03C220.95,146.95,219.72,147.23,218.47,147.41z
	 M265.86,165.46c0.28-1.83-1.11-2.9-1.97-4.18c-0.26-0.39-1.05-0.43-1.63-0.64c-0.1-0.4-0.21-0.89-0.39-1.64
	c-0.53,0.64-0.82,1-1.09,1.33c1.24,2.32,3.05,3.88,5.17,5.12c-0.27,0.19-0.54,0.38-0.81,0.58c0.24,0.17,0.59,0.53,0.7,0.47
	c0.32-0.17,0.55-0.52,0.81-0.8C266.39,165.61,266.13,165.53,265.86,165.46z M195.14,146.88c-0.25-0.33-0.5-0.66-0.75-0.98
	c-0.18,0.15-0.52,0.31-0.51,0.44c0.08,1.13,0.77,0.66,1.34,0.46c0.17,0.98,0.19,1.81-0.58,2.72c-1.04,1.22-0.4,2.36,1.25,2.37
	c0.62,0.01,1.27-0.24,1.86-0.48c1.18-0.46,2.31-0.74,3.57-0.22c0.59,0.24,1.28,0.23,1.93,0.29c2.86,0.25,5.71,0.61,8.57,0.67
	c1.49,0.03,3.09,0.75,4.53-0.3c0.92,0.19,1.84,0.38,3.04,0.63c-1.79-1.58-1.79-1.58-2.98-0.57c-0.82,0.01-1.65,0.09-2.47,0.01
	c-0.62-0.06-1.41-0.13-1.8-0.53c-0.81-0.82-1.73-0.93-2.72-0.81c-2.27,0.28-4.42-0.23-7-0.98c1.27-0.17,2.11-0.29,3.06-0.42
	c-2.56-1.02-5.21,0.65-7.64-0.34c0-0.21,0-0.42,0-0.63c0.87-0.09,1.74-0.18,2.77-0.29c-0.46-0.31-0.7-0.49-0.93-0.64
	c2.7-1,5.05-0.44,7.25,0.98c0.14,0.09,0.26,0.29,0.38,0.29c0.33,0,0.66-0.09,0.99-0.15c0.01-0.16,0.02-0.31,0.04-0.47
	c-0.84-0.22-1.67-0.44-2.51-0.67c0.5-0.52,1.01-0.71,1.5-0.69c1.48,0.07,2.96,0.29,4.43,0.31c0.81,0.01,1.77,0.22,2.48-0.6
	c-1.53-1.33-2.84-0.43-4.13,0.26c-0.39-0.36-0.71-0.92-1.04-0.93c-2.93-0.07-5.87-0.07-8.8-0.02c-0.63,0.01-1.26,0.32-1.89,0.48
	C197.32,146.36,196.23,146.61,195.14,146.88z M231.59,165.01c-0.02-0.23-0.05-0.46-0.07-0.69c-2.95-0.93-6.02-1.05-9.24-1.4
	c0.12,1.32,0.21,2.26,0.29,3.13c1,0.3,1.82,0.55,2.65,0.8c-0.04,0.16-0.08,0.33-0.12,0.49c-1.41-0.33-2.96-0.41-4.18-1.09
	c-0.71-0.4-0.9-1.75-1.36-2.76c-1.86,0.47-3.85-1.06-6.05,0.27c0.94,0.55,1.61,0.94,2.28,1.33c-1.45,0.13-2.76-0.01-4.02-0.35
	c-1.35-0.37-2.52-0.41-3.77,0.4c-0.71,0.47-1.68,0.63-2.56,0.72c-0.3,0.03-0.66-0.59-1.44-1.34c3.05-0.58,5.48-1.04,7.91-1.51
	c-3.07,0.09-6.23-0.27-8.92,1.48c-0.05,1.31,0.52,1.82,1.47,1.86c0.99,0.04,2.02,0.12,2.96-0.11c3.14-0.77,6.24-0.4,9.34,0.16
	c2.11,0.38,4.19,0.96,6.31,1.26c1.19,0.17,2.44-0.04,3.66-0.08c0.46-1.72,2.13-1.16,3.21-1.72
	C230.49,165.59,231.04,165.3,231.59,165.01z M169.96,132.7c0.01,0.19,0.03,0.37,0.04,0.56c1.36-0.08,2.73-0.12,4.09-0.24
	c4.93-0.46,9.85-1.06,14.79-1.41c4.7-0.33,9.41-0.45,14.11-0.59c3.38-0.1,6.76-0.06,10.14-0.08c1.83-0.01,3.65,0,6.02,0
	c-0.71-0.42-0.9-0.61-1.11-0.64c-6.75-0.94-13.53-0.17-20.29-0.32C188.39,129.77,179.18,131.32,169.96,132.7z M128.76,148.07
	c0.13-0.16,0.26-0.32,0.39-0.48c-1.31-1.79-2.62-3.57-3.93-5.36c-0.54-0.73-1.01-1.53-1.64-2.17c-1.26-1.27-2.72-1.13-4.04,0.52
	C122.65,143.04,125.42,145.91,128.76,148.07z M140.93,131.55c-0.63,4.08,2.34,9.42,6.67,10.46
	C145.25,138.33,143.09,134.94,140.93,131.55z M263.29,57.72c7.37,2.43,14.23,4.7,21.39,7.06C282.97,62.59,268.8,57.95,263.29,57.72z
	 M190.19,136.51c0.01,0.2,0.03,0.39,0.04,0.59c7.06-0.16,14.11-0.32,21.17-0.48C204.32,135.59,197.25,135.66,190.19,136.51z
	 M250.87,6.98c-0.15,1.08,0.16,1.75,0.95,1.96c0.94,0.24,2.02,0.56,2.9,0.33c2.16-0.57,2.12-0.67,3.69,0.43
	c0.39,0.27,0.88,0.62,1.3,0.6c1.37-0.08,2.72-0.31,4.08-0.48c0.01-0.15,0.02-0.3,0.03-0.45C259.53,8.57,255.23,7.78,250.87,6.98z
	 M171.02,169.25c2.65,0.71,3.94,0.12,4.93-2.1c-1.78-1.56-1.78-1.56-3.59-1.48C173.36,167.34,171.95,168.19,171.02,169.25z
	 M220.07,151.1c0.41,0.63,0.6,1.27,0.93,1.35c1.91,0.49,3.85,0.85,6.01,1.3C226,151.76,224.1,151.07,220.07,151.1z M210.69,142.3
	c-3.57-0.63-5.09-0.53-6.83,0.43c1.21,0.14,2.37,0.28,3.54,0.42c-0.17,0.58-0.29,1.03-0.57,2c1.45-0.7,2.55-1.16,3.56-1.75
	C210.63,143.26,210.6,142.69,210.69,142.3z M30.91,311.26c-0.16,0.08-0.31,0.17-0.47,0.25c1.79,3.68,4.02,7.06,6.54,10.26
	c0.16-0.11,0.33-0.21,0.49-0.32C35.28,318.06,33.09,314.66,30.91,311.26z M260.6,34.86c-2.24-1.77-5.74-2.04-7.6-0.76
	C255.74,34.38,258.17,34.62,260.6,34.86z M240.54,142.27c-3.17-1.51-6.5-2.23-10.03-1.99C233.85,140.94,237.19,141.61,240.54,142.27
	z M369.1,130.93c0.43-2.95-0.01-6.77-1.11-8.57c0.21,1.73,0.4,3.08,0.52,4.42C368.62,128.1,367.56,129.52,369.1,130.93z
	 M346.4,73.79c-0.13,0.11-0.26,0.23-0.39,0.34c1.48,1.89,2.96,3.78,4.44,5.66C349.84,76.46,348.83,75.06,346.4,73.79z
	 M187.52,281.19c-1.12-1.78-1.65-2-4.26-1.58C184.7,279.97,185.52,281.86,187.52,281.19z M205,154.39c0.01,0.2,0.02,0.39,0.03,0.59
	c1.75,0,3.49,0,5.74,0C208.53,153.66,206.77,153.87,205,154.39z M188.09,74.1c1.08,1.09,1.61-0.03,2.14-0.55
	c0.46-0.45,1.01-1.18,0.93-1.69c-0.07-0.43-0.99-0.72-1.56-1.09C189,72.1,188.55,73.09,188.09,74.1z M214.63,133.06
	c-0.01-0.12-0.03-0.24-0.04-0.36c-3.16,0-6.32,0-9.48,0c0,0.12,0,0.24,0,0.36C208.28,133.06,211.45,133.06,214.63,133.06z
	 M248.87,8.45c-1-1.95-2.08-2.01-4.45-0.27C245.96,8.27,247.38,8.36,248.87,8.45z M97.21,150.48c1.49,0.67,2.73,0.65,4.1-0.12
	C99.53,149.09,99.4,149.1,97.21,150.48z M232.2,155.27c-1.12-0.65-2.08-1.28-3.12-1.76c-0.33-0.15-0.86,0.12-1.74,0.27
	c1.3,0.7,2.09,1.09,2.85,1.55C230.98,155.8,231.73,156.33,232.2,155.27z M189.66,151.39c0.15,0.13,0.31,0.27,0.46,0.4
	c0.82-1.11,1.64-2.23,2.46-3.34c-0.18-0.14-0.36-0.27-0.54-0.41C190.43,148.53,190.11,150.01,189.66,151.39z M94.42,150.52
	c-1.12-0.16-2.24-0.32-3.36-0.46c-0.11-0.01-0.24,0.17-0.52,0.38C91.64,152.04,92.99,151.08,94.42,150.52z M210.8,96.57
	c-1.28-1.39-2.46-1.71-4.11-1.72C207.78,96.28,209.01,96.48,210.8,96.57z M286.3,64.3c1.54-0.44,2.76-0.79,4.05-1.17
	c-1.5-0.07-2.93-0.13-4.69-0.21C285.99,63.65,286.15,63.99,286.3,64.3z M222.07,64.5c-0.89-0.64-1.58-1.24-2.87-1.05
	c0.61,0.92,1.07,1.63,1.68,2.56C221.37,65.39,221.68,65,222.07,64.5z M191.22,293.95c-0.3,1.01-0.59,2.03-1.03,3.55
	C191.69,296.1,191.69,296.1,191.22,293.95z M18.71,289.4c-0.01-2.73-0.19-3.09-1.6-3.25C17.68,287.31,18.19,288.35,18.71,289.4z
	 M291.09,66.92c-0.76-0.34-1.47-1.27-2.58-0.45C289.29,67.56,290.09,67.67,291.09,66.92z M173.98,160.38
	c-0.77-1.14-1.23-1.97-2.63-1.95C171.79,159.64,172.23,160.46,173.98,160.38z M199.37,143.8c1.67,0.47,1.67,0.47,1.93-0.78
	C200.59,143.3,199.98,143.55,199.37,143.8z M202.61,158.58c0-0.17,0-0.33-0.01-0.5c-0.76,0-1.53,0-2.29,0c0,0.17,0.01,0.33,0.01,0.5
	C201.09,158.58,201.85,158.58,202.61,158.58z M270.65,6.52c0.05,0.22,0.09,0.45,0.14,0.67c0.8,0.36,1.54,0.51,2.07-1.15
	C271.91,6.25,271.28,6.39,270.65,6.52z M212.31,148.69c-0.03-0.23-0.06-0.46-0.08-0.69c-0.78,0.08-1.67-0.44-2.65,0.9
	C210.75,148.81,211.53,148.75,212.31,148.69z M14.86,278.11c-0.17,0.06-0.34,0.11-0.51,0.17c0.55,0.64-0.07,1.86,1.82,2.34
	C15.6,279.51,15.23,278.81,14.86,278.11z M172.21,76.86c-1.57-0.94-1.57-0.94-2.35,0.49C170.67,77.18,171.33,77.05,172.21,76.86z
	 M230.14,328.42c-0.2-0.13-0.41-0.27-0.61-0.4c-0.45,0.68-0.9,1.35-1.34,2.03c0.13,0.09,0.26,0.18,0.39,0.27
	C229.1,329.69,229.62,329.05,230.14,328.42z M226.28,139.54c-0.01,0.23-0.01,0.45-0.02,0.68c0.72,0,1.45,0,2.17,0
	c0.01-0.13,0.02-0.27,0.03-0.4C227.74,139.73,227.01,139.64,226.28,139.54z M17.45,290.82c0.24-0.04,0.48-0.09,0.73-0.13
	c-0.23-0.73-0.45-1.46-0.68-2.19c-0.18,0.05-0.36,0.1-0.54,0.15C17.12,289.37,17.29,290.1,17.45,290.82z M213.96,139.66
	c0.81-0.05,1.72,0.63,2.41-0.43C215.57,139.38,214.76,139.52,213.96,139.66z M200.38,154.32c0.04,0.18,0.08,0.37,0.12,0.55
	c0.64-0.15,1.29-0.3,1.93-0.45c-0.04-0.17-0.07-0.33-0.11-0.5C201.68,154.06,201.03,154.19,200.38,154.32z M207.93,161.58
	c-0.01,0.19-0.02,0.39-0.04,0.58c0.83,0.07,1.66,0.13,2.48,0.2c0.01-0.15,0.02-0.29,0.03-0.44
	C209.58,161.8,208.76,161.69,207.93,161.58z M194.29,158.03c-0.11,1.96-0.11,1.96,1.4,1.98
	C195.22,159.35,194.86,158.84,194.29,158.03z M216.07,155.25c-0.86-0.69-0.86-0.69-2.1-0.27
	C214.62,155.06,215.27,155.15,216.07,155.25z M257.79,162.3c0.28,0.61,0.49,1.08,0.7,1.54C259.24,162.93,259.27,162.35,257.79,162.3
	z M30.76,313.7c-0.19,0.08-0.37,0.16-0.56,0.24c0.26,0.52,0.52,1.03,0.79,1.54c0.01,0.02,0.23-0.09,0.48-0.18
	C31.23,314.76,30.99,314.23,30.76,313.7z M150.03,136.92c-0.23,0.05-0.46,0.1-0.69,0.15c0.17,0.48,0.35,0.97,0.52,1.45
	c0.14-0.04,0.28-0.08,0.42-0.13C150.21,137.91,150.12,137.41,150.03,136.92z M213.54,144.87c0.03-0.16,0.07-0.33,0.1-0.49
	c-0.47-0.1-0.93-0.21-1.4-0.31c-0.04,0.16-0.07,0.33-0.11,0.49C212.6,144.67,213.07,144.77,213.54,144.87z M99.17,221.32
	c1.31,1,1.48,0.2,1.65-0.52c0.02-0.08-0.14-0.21-0.27-0.38C100.17,220.67,99.77,220.93,99.17,221.32z M280.24,234.56
	c0.11,0.02,0.22,0.05,0.33,0.07c0.09-0.51,0.18-1.02,0.27-1.53c-0.06-0.01-0.11-0.02-0.17-0.03
	C280.53,233.57,280.39,234.06,280.24,234.56z M248.32,107.94c0.14-0.14,0.27-0.28,0.41-0.42c-0.14-0.7-0.38-1.27-1.68-0.92
	C247.58,107.16,247.95,107.55,248.32,107.94z M59.18,356.73c0.09-0.1,0.17-0.19,0.26-0.29c-0.5-0.45-1.01-0.9-1.51-1.35
	c-0.1,0.11-0.2,0.22-0.29,0.33C58.15,355.85,58.67,356.29,59.18,356.73z M253.02,162.34c-0.18,0.08-0.35,0.15-0.53,0.23
	c-0.05,0.53-0.28,1.19,1,0.83C253.33,163.03,253.18,162.68,253.02,162.34z M244.71,161.62c0.29-1.58-0.16-1.79-1.31-1.27
	C243.73,160.66,244.06,160.99,244.71,161.62z M28.27,288.47c0.09-0.05,0.18-0.1,0.26-0.15c-0.28-0.49-0.56-0.98-0.84-1.47
	c-0.1,0.06-0.2,0.12-0.31,0.18C27.69,287.51,27.98,287.99,28.27,288.47z M245.59,144.4c0.06-0.17,0.11-0.33,0.17-0.5
	c-0.54-0.2-1.07-0.4-1.61-0.61c-0.05,0.15-0.11,0.3-0.16,0.46C244.52,143.97,245.05,144.19,245.59,144.4z M225.44,69.15
	c-0.1,0.17-0.19,0.35-0.29,0.52c0.38,0.17,0.75,0.34,1.14,0.49c0.01,0,0.19-0.36,0.17-0.37C226.13,69.56,225.78,69.36,225.44,69.15z
	 M293.25,67.61c-0.08,0.13-0.15,0.27-0.23,0.4c0.33,0.22,0.65,0.45,0.98,0.67c0.11-0.18,0.22-0.37,0.33-0.55
	C293.97,67.95,293.61,67.78,293.25,67.61z M213.22,148.25c-0.01,0.21-0.03,0.41-0.04,0.62c0.45-0.03,0.9-0.06,1.35-0.09
	c0-0.15-0.01-0.3-0.01-0.44C214.09,148.3,213.65,148.28,213.22,148.25z M36.75,229.41c0.13,0.01,0.25,0.02,0.38,0.03
	c0.04-0.4,0.08-0.8,0.12-1.2c-0.15-0.01-0.29-0.02-0.44-0.04C36.79,228.6,36.77,229,36.75,229.41z M136.98,61.87
	c-0.15-0.05-0.3-0.11-0.45-0.16c-0.08,0.47-0.17,0.93-0.25,1.4c0.16,0.03,0.33,0.06,0.49,0.08
	C136.85,62.76,136.91,62.31,136.98,61.87z M251.27,31.74c-0.02,0.09-0.05,0.19-0.07,0.28c0.3,0.06,0.61,0.18,0.91,0.18
	c0.28,0,0.55-0.11,0.83-0.18c-0.02-0.09-0.04-0.19-0.05-0.28C252.34,31.74,251.81,31.74,251.27,31.74z M366.42,165.03
	c-0.26-0.14-0.42-0.26-0.6-0.3c-0.05-0.01-0.23,0.25-0.21,0.35c0.05,0.17,0.21,0.32,0.32,0.47
	C366.07,165.41,366.21,165.26,366.42,165.03z M249.81,161c-0.08,0.11-0.16,0.22-0.24,0.33c0.31,0.13,0.63,0.25,0.94,0.38
	c0.03-0.07,0.06-0.14,0.09-0.21C250.34,161.33,250.07,161.17,249.81,161z M209.7,158.4c0.02,0.14,0.03,0.28,0.05,0.41
	c0.41-0.07,0.81-0.15,1.22-0.22C210.55,158.53,210.12,158.46,209.7,158.4z M243.7,31.93c0.02,0.06,0.04,0.11,0.06,0.17
	c0.33-0.1,0.67-0.2,1-0.3c-0.04-0.1-0.08-0.19-0.12-0.29C244.33,31.64,244.02,31.78,243.7,31.93z M236.56,157.55
	c-0.42-0.12-0.68-0.22-0.96-0.25c-0.06-0.01-0.24,0.31-0.21,0.34c0.18,0.19,0.38,0.39,0.62,0.48
	C236.08,158.14,236.28,157.85,236.56,157.55z M91.81,346.46c-0.14,0.13-0.27,0.25-0.41,0.38c0.34,0.31,0.67,0.63,1.01,0.94
	c0.09-0.09,0.18-0.18,0.27-0.26C92.39,347.16,92.1,346.81,91.81,346.46z M218.35,155.62c0.02,0.15,0.04,0.31,0.06,0.46
	c0.22,0.03,0.49,0.14,0.66,0.06c0.21-0.09,0.34-0.34,0.5-0.53c-0.07-0.09-0.14-0.19-0.21-0.28
	C219.03,155.43,218.69,155.52,218.35,155.62z M295.05,25.64c0.23-0.11,0.36-0.17,0.49-0.23c-0.13-0.15-0.24-0.34-0.41-0.44
	c-0.07-0.04-0.26,0.11-0.39,0.17C294.85,25.31,294.95,25.48,295.05,25.64z M37.4,225.06c0.24-0.44,0.36-0.68,0.49-0.91
	c-0.25-0.13-0.49-0.33-0.76-0.37c-0.11-0.02-0.42,0.35-0.38,0.46C36.83,224.48,37.07,224.67,37.4,225.06z M317.27,151
	c0.04-0.13,0.07-0.27,0.11-0.4c-0.38-0.14-0.76-0.28-1.15-0.39c-0.02-0.01-0.14,0.37-0.21,0.57
	C316.43,150.85,316.85,150.92,317.27,151z M158.36,64.37c0.21-0.02,0.42-0.04,0.63-0.05c-0.07-0.48-0.14-0.96-0.21-1.45
	c-0.14,0.02-0.28,0.04-0.42,0.06C158.36,63.41,158.36,63.89,158.36,64.37z M205.48,335.02c0.09-0.12,0.24-0.22,0.24-0.34
	c0.01-0.12-0.11-0.25-0.18-0.38c-0.11,0.14-0.26,0.28-0.33,0.44C205.21,334.79,205.39,334.92,205.48,335.02z M204.46,70.32
	c0.26-0.28,0.52-0.55,0.79-0.83c-0.37-0.29-0.75-0.57-1.12-0.86c-0.2,0.23-0.4,0.45-0.6,0.68
	C203.83,69.65,204.15,69.99,204.46,70.32z M39.09,326.53c-0.13,0.13-0.26,0.25-0.38,0.38c0.33,0.3,0.67,0.59,1,0.89
	c0.09-0.09,0.17-0.19,0.26-0.28C39.68,327.19,39.39,326.86,39.09,326.53z M225.37,74.73c-0.17,0-0.35-0.01-0.52-0.01
	c0.02,0.37,0.03,0.75,0.08,1.11c0,0.03,0.29,0.03,0.44,0.04C225.37,75.49,225.37,75.11,225.37,74.73z M195.53,268.87
	c0.18,0.07,0.36,0.13,0.54,0.2c0.11-0.33,0.21-0.66,0.32-0.99c-0.21-0.07-0.42-0.14-0.63-0.2
	C195.68,268.21,195.6,268.54,195.53,268.87z M148.94,135.33c0.14-0.19,0.3-0.35,0.39-0.54c0.03-0.07-0.12-0.22-0.19-0.33
	c-0.17,0.15-0.36,0.29-0.51,0.47C148.61,134.95,148.79,135.14,148.94,135.33z M133.27,120.35c0.19,0.1,0.38,0.2,0.57,0.29
	c0.13-0.36,0.25-0.73,0.38-1.09c-0.16-0.06-0.32-0.12-0.47-0.18C133.59,119.7,133.43,120.02,133.27,120.35z M353.54,128.14
	c-0.03-0.19-0.06-0.39-0.09-0.58c-0.38,0.05-0.75,0.1-1.13,0.15c0.01,0.14,0.02,0.28,0.03,0.42
	C352.74,128.14,353.14,128.14,353.54,128.14z M229.66,146c-0.07-0.1-0.14-0.2-0.21-0.31c-0.16,0.03-0.36,0-0.46,0.09
	c-0.16,0.15-0.24,0.37-0.36,0.56C228.97,146.24,229.32,146.12,229.66,146z"/>
</svg>
