<?xml version="1.0" encoding="utf-8"?>
<!-- Generator: Adobe Illustrator 26.1.0, SVG Export Plug-In . SVG Version: 6.00 Build 0)  -->
<svg version="1.1" id="Layer_1" xmlns="http://www.w3.org/2000/svg" xmlns:xlink="http://www.w3.org/1999/xlink" x="0px" y="0px"
	 viewBox="0 0 248.01 402.78" style="enable-background:new 0 0 248.01 402.78;" xml:space="preserve">
<path d="M104.61,231.16c-0.48,0.11-0.96,0.22-1.45,0.32c-0.31,0.4-0.53,0.94-0.95,1.17c-0.89,0.51-1.98,0.72-2.79,1.31
	c-0.89,0.64-1.52,1.62-2.64,2.01c-0.1,0.03-0.19,0.09-0.29,0.11c-3.1,0.45-4.73,2.85-6.58,4.81c-0.7,0.75-1.27,1.52-2.24,1.97
	c-0.57,0.26-1.18,0.51-1.63,0.91c-2.14,1.91-4.27,3.84-6.33,5.83c-1.77,1.72-3.44,3.53-5.13,5.32c-1.54,1.64-3.31,3.15-4.51,4.99
	c-2.62,4-5.01,8.1-6.35,12.76c-2.18,7.63-2.66,15.26-1.19,23.03c1.21,6.42,3.94,12.3,6.84,18.12c1.09,2.18,2.22,4.35,3.91,6.18
	c1.67,1.81,3.34,3.63,5.07,5.38c1.82,1.85,3.94,3.33,6.37,4.39c2.77,1.21,5.57,2.38,8.35,3.58c3.45,1.48,6.9,2.97,10.34,4.47
	c0.27,0.12,0.48,0.37,0.66,0.52c0.24,0.94,0.46,1.79,0.68,2.6c4.09,1.64,8.59,1.61,12.45,3.79c0.35,2.01,0.4,4.02,0.13,6.02
	c-0.89,6.69-1.21,13.46-3.21,19.99c-0.15,0.48-0.11,1-0.21,1.49c-0.63,3.06-1.15,6.15-1.94,9.17c-0.78,3.01-1.81,5.96-2.77,8.93
	c-0.85,2.63-1.26,5.31-1.13,8.04c0.05,0.99,0.25,2.01,0.6,2.94c0.47,1.27,1.48,1.76,2.75,1.29c1.05-0.4,2.09-0.96,2.96-1.64
	c2.15-1.67,3.74-3.8,5.09-6.1c0.88-1.5,1.81-2.92,3.39-3.9c0.68-0.42,1.2-1.13,1.69-1.78c1.23-1.63,2.43-3.28,3.56-4.98
	c0.38-0.57,0.66-1.27,0.75-1.95c0.2-1.48,0.23-2.99,0.38-4.48c0.06-0.59,0.11-1.23,0.37-1.76c1.12-2.27,2.23-4.57,4.01-6.46
	c1.44-1.52,2.37-3.3,3.19-5.17c1.06-2.4,2.14-4.8,3.19-7.21c0.06-0.14-0.1-0.36-0.17-0.59c-0.51,0.28-1.01,0.55-1.48,0.8
	c-0.88-0.68-1.48-1.34-1.41-2.54c1.24-0.61,1.46-1.69,1.12-3.02c-0.25-0.96-0.55-1.94,0.02-2.94c0.4-0.7,0.82-1.46,0.91-2.23
	c0.09-0.74-0.22-1.54-0.34-2.23c0.58-0.2,1.19-0.23,1.45-0.53c0.45-0.52,0.73-1.2,1.01-1.84c0.4-0.88,0.85-1.6,2.07-1.46
	c0.29,0.03,0.74-0.34,0.93-0.63c0.37-0.57,0.82-0.88,1.53-0.86c1.43,0.05,2.35-0.7,3.08-1.78c0.22-0.33,0.45-0.67,0.68-1.02
	c1.38-0.21,2.77-0.39,3.45-1.78c1.5-0.24,1.97-1.69,3.07-2.44c1.95-1.33,3.71-2.91,5.48-4.47c0.6-0.53,0.91-1.35,1.48-1.92
	c1.96-1.95,3.98-3.83,5.97-5.76c0.65-0.63,1.51-1.12,1.53-2.18c0.03-1.44,1.87-0.66,2.27-1.65c0.14-0.36,0.18-0.75,0.28-1.12
	c0.09-0.37,0.07-0.95,0.3-1.07c1.38-0.73,1.63-2.64,3.44-2.93c0.31-0.05,0.57-0.54,0.78-0.88c0.38-0.6,0.68-1.25,1.06-1.85
	c0.27-0.42,0.77-0.76,0.9-1.2c0.16-0.53,0.04-1.14,0.04-1.72c0.68-0.31,1.25-0.56,1.96-0.88c-0.11-1.81,1.25-2.74,2.9-3.57
	c0-0.71-0.14-1.43,0.04-2.08c0.21-0.76,0.54-1.57,1.07-2.16c1.77-1.99,1.8-4.96,4.13-6.61c0.15-0.11,0.24-0.34,0.29-0.53
	c0.41-1.54,0.78-3.09,1.2-4.63c0.5-1.84,0.71-3.72,0.92-5.6c0.29-2.59,0.45-5.2,0.57-7.8c0.13-2.74-0.25-5.38-2.01-7.69
	c-0.24-0.31-0.35-0.74-0.46-1.12c-1.13-4.04-3.37-7.62-5.41-11.22c-3.38-5.97-7.88-11.21-13.45-15.47
	c-4.11-3.14-8.33-6.15-12.54-9.16c-5.6-3.99-11.89-6.4-18.83-7.23c-1.34-0.16-2.66-0.43-3.85-0.62c-0.22-0.36-0.39-0.52-0.41-0.7
	c-0.35-3.41-0.7-6.81-1.01-10.22c-0.03-0.38,0.13-0.79,0.24-1.17c0.83-3.03,1.96-5.95,3.65-8.66c0.97-1.56,1.92-3.13,2.81-4.73
	c1.44-2.61,3.43-4.19,6.74-4.08c2.93,0.1,5.55-1.01,7.87-2.7c1.17-0.85,2.3-1.76,3.4-2.69c1.42-1.2,2.74-2.51,4.19-3.67
	c0.79-0.63,1.76-1.06,2.67-1.53c1.36-0.7,2.83-0.67,4.32-0.57c3.1,0.21,6.07-0.12,8.87-1.56c1.1-0.57,2.35-0.87,3.53-1.3
	c3.34-1.22,6.69-2.41,10.01-3.67c2.97-1.13,5.14-3.09,6.35-5.96c0.35-0.84,0.73-1.66,1.18-2.67c1.24-0.5,2.55-1.18,3.95-1.56
	c3.69-1.02,6.51-3.19,8.99-5.88c1.35-1.47,2.2-3.13,2.69-5.05c0.63-2.44,1.43-4.85,2.32-7.21c0.97-2.56,2.24-4.98,4.06-7.13
	c0.79-0.93,1.44-1.99,1.97-3.08c1.79-3.65,3.88-7.11,6.28-10.43c2.23-3.09,3.8-6.49,4.3-10.29c0.22-1.7,0.61-3.38,0.97-5.05
	c0.26-1.19,0.66-2.31,1.56-3.25c1.42-1.47,2.73-3.05,4.15-4.53c0.88-0.92,1.45-1.95,1.84-3.12c0.77-2.3,1.62-4.58,2.4-6.88
	c1.02-2.98,1.72-6.03,2-9.15c0.39-4.38-0.16-8.67-1.81-12.78c-1.61-4.02-2.2-8.17-2.02-12.45c0.13-3.12,0.06-6.25,0.19-9.37
	c0.31-7.58-1.02-14.89-4.3-21.78c-2.18-4.58-4.6-9.07-7.25-13.41c-2.35-3.86-5.71-6.94-9.52-9.56c-1.08-0.74-2.25-1.17-3.52-1.15
	c-3.67,0.05-6.89,1.29-9.01,4.21c-1.91,2.63-3.85,5.29-4.88,8.43c-0.47,1.43-1.19,2.8-1.88,4.15c-1.83,3.55-3.08,7.27-3.78,11.17
	c-1.2,6.68-1.62,13.42-1.6,20.18c0.03,8.57,0.41,17.12,1.06,25.67c0.32,4.22,0.56,8.45,0.66,12.68c0.11,4.84,0.03,9.68,0.01,14.51
	c-0.01,3.65-0.36,7.26-1.71,10.71c-2.18,5.56-4.32,11.14-6.7,16.63c-2.29,5.3-4.71,10.55-6.65,16c-0.99,2.78-2.4,5.39-4.84,7.31
	c-2.92,2.3-5.78,4.69-8.84,6.82c-2.2,1.53-4.66,2.73-7.05,4c-2.69,1.42-5.14,3.14-7.49,5.01c-1.4,1.11-2.49,2.43-3.05,4.13
	c-0.38,1.14-0.9,2.24-1.38,3.43c-0.52,0.1-1.02,0.25-1.53,0.29c-2.58,0.22-4.88,1.13-7.04,2.46c-2.48,1.54-4.8,3.26-6.86,5.3
	c-0.56,0.55-0.95,1.37-2,1.37c-1.55-4.59-2.47-9.33-3.4-14.05c-0.58-2.96-0.97-5.97,0.02-8.98c0.47-1.43,0.73-2.94,0.94-4.44
	c0.33-2.26,1.34-4.2,2.65-6.06c3.43-4.84,7.2-9.43,11.53-13.56c4.62-4.42,7.75-9.74,10.3-15.42c0.25-0.55,0.34-1.16,0.52-1.74
	c0.18-0.57,0.39-1.12,0.56-1.6c1.01-0.56,1.94-0.46,2.89-0.34c2.91,0.37,4.76-1.72,7.04-2.82c1.79-2.73,3.7-5.42,4.39-8.65
	c0.46-2.18,0.87-4.43,0.11-6.58c-0.63-1.78-1.08-3.43-0.08-5.22c0.27-0.49,0.19-1.18,0.2-1.78c0.03-2.01,0.1-4.03,0.03-6.04
	c-0.19-6.15-3.31-10.45-9.12-12.98c-0.76-0.33-1.56-0.61-2.36-0.85c-2.01-0.62-3.16-1.91-3.44-3.91c-0.12-0.9-0.28-1.79-0.38-2.69
	c-0.21-1.8-0.34-3.61-0.6-5.41c-0.37-2.62-1.2-5.1-2.44-7.47c-1.52-2.89-3.89-4.7-7.24-5.29c-0.72-0.13-1.45-0.34-2.18-0.35
	c-2.67-0.05-5.19-0.77-7.71-1.45c-3.67-0.98-6.67-2.88-8.79-5.98c-0.86-1.26-1.82-2.47-2.83-3.62c-1.87-2.13-3-4.59-3.78-7.24
	c-0.51-1.74-1.05-3.49-1.67-5.19c-0.31-0.84-0.76-1.66-1.31-2.39c-0.92-1.23-2.22-1.74-3.84-1.62c-2.36,0.16-4.04,1.57-5.81,2.79
	c-0.29,0.2-0.45,0.7-0.48,1.08c-0.05,0.69-0.18,1.52,0.14,2.07c0.75,1.3,0.29,2.56-0.41,3.41c-2.03,2.48-1.99,5.13-1.32,7.95
	c0.42,1.77,0.89,3.53,1.25,5.31c0.43,2.17,0.85,4.36,1.13,6.56c0.3,2.32,0.09,4.62-0.8,6.84c-0.79,1.97-1.47,3.99-2.32,5.94
	c-1.36,3.09-2.29,6.28-2.86,9.57c-0.61,3.54,0.44,6.56,3.21,9.02c0.45,0.4,0.92,0.85,1.15,1.37c0.37,0.84,0.99,1.21,1.82,1.52
	c1.51,0.55,2.66,1.54,3.51,2.91c-0.22,0.54-0.37,1.02-0.6,1.46c-0.33,0.63-0.74,1.22-1.08,1.84c-0.49,0.89-1.02,1.77-1.43,2.69
	c-1.64,3.7-1.12,7.13,1.68,10.11c1.12,1.19,2.51,2.13,3.79,3.18c2.52,2.05,2.72,2.73,1.35,5.64c-1.41,3-1.83,5.98-0.04,8.99
	c0.59,0.99,0.91,2.07,0.73,3.2c-0.3,1.95,0.04,3.81,0.61,5.66c0.56,1.81,0.34,3.48-0.5,5.26c-1.34,2.84-2.44,5.81-2.52,9
	c-0.15,6.07-1.75,11.96-2.47,17.96c-0.02,0.18-0.21,0.34-0.41,0.64c-1.58-0.8-2.87-1.98-4.12-3.15c-4.26-3.98-9.15-6.74-15.15-7.47
	c-0.1-0.01-0.21-0.04-0.31-0.06c-1.15-0.24-2.09-0.76-3.03-1.49c-2.03-1.58-4.23-2.98-6.38-4.42c-0.94-0.63-1.92-1.2-2.84-1.76
	c-0.24-3.93-2.69-6.38-5.54-8.56c-0.65-0.5-1.4-0.91-2.14-1.27c-1.37-0.67-2.25-1.71-3.01-2.97c-2.14-3.53-3.36-7.37-4.3-11.31
	c-0.96-4.02-1.94-8.04-2.97-12.05c-0.53-2.06-1.02-4.11-0.83-6.26c0.1-1.1,0.08-2.22-0.02-3.32c-0.33-3.62-1.46-6.86-4.47-9.36
	c-1.26-1.05-2.44-2.19-3.87-3.05c-0.98-0.59-1.91-1.25-2.89-1.84c-1.59-0.97-2.25-2.28-1.95-4.1c0.29-1.79,0.37-3.61,0.69-5.39
	c0.62-3.4-0.36-6.6-1.16-9.83c-0.12-0.48-0.38-0.94-0.66-1.37c-1.62-2.52-3.64-4.69-6.33-6.21c-0.99-0.56-2.02-1.08-3.03-1.61
	c-2.64-1.38-4.77-3.29-6.49-5.63c-0.86-1.16-1.41-2.41-1.6-3.87c-0.25-1.99-0.7-3.98-1.24-5.92c-0.32-1.15-0.86-2.29-1.54-3.28
	c-1.58-2.28-2.76-2.51-5.3-1.15c-2.11,1.13-4.11,2.48-6.29,3.46c-2.81,1.26-5.21,2.95-7.44,5c-4.47,4.1-6.29,8.91-4.93,14.77
	c0.2,0.87,0.32,1.8,0.22,2.67C3,66.36,2.51,70.86,1.36,75.28c-1.62,6.23-1.49,12.58-1.16,18.93c0.04,0.8,0.26,1.59,0.44,2.38
	c0.87,3.66,1.12,7.36,0.86,11.11c-0.39,5.58,0.43,11.04,1.72,16.47c0.87,3.66,2.32,7.12,3.72,10.58c1.06,2.62,2.35,5.19,3.86,7.59
	c2.77,4.4,5.89,8.59,9.36,12.5c1.29,1.45,2.76,2.76,4.25,4.03c2,1.7,4.4,2.7,7.01,3.25c1.12,0.24,2.21,0.62,3.32,0.93
	c3.05,0.85,6.18,1.23,9.34,1.17c2.41-0.05,4.81-0.26,7.21-0.45c1.61-0.13,3.15,0.08,4.66,0.57c0.79,0.25,1.54,0.62,2.31,0.94
	c2.21,0.94,4.35,2.06,6.64,2.78c2.39,0.75,4.9,1.26,6.99-0.95c0.83-0.87,1.98-0.96,3.22-0.69c1.01,0.22,2.24,0.52,3.08,0.16
	c2.07-0.87,3.9-0.34,5.81,0.27c1.59,0.51,3.18,1.03,4.8,1.45c3.03,0.78,5.54,2.32,7.78,4.41c3.84,3.58,7.81,7.04,11.65,10.63
	c1.04,0.97,1.92,2.13,2.7,3.31c1.01,1.53,1.79,3.19,3.25,4.43c0.37,0.31,0.7,0.8,0.79,1.26c0.51,2.67,1.46,5.23,1.64,7.99
	c0.21,3.31,0.65,6.63,1.29,9.89c0.75,3.81,0.56,7.62,0.6,11.45c0,0.48-0.21,0.97-0.35,1.55c-2.15,0.82-4.17,1.84-5.8,3.44
	c-0.81,0.8-1.62,1.56-2.85,1.8c-0.36,0.07-0.74,0.4-0.96,0.7c-0.61,0.87-1.35,1.14-2.43,0.86
	C105.2,229.78,104.79,230.4,104.61,231.16z"/>
</svg>
