<?xml version="1.0" encoding="utf-8"?>
<!-- Generator: Adobe Illustrator 26.1.0, SVG Export Plug-In . SVG Version: 6.00 Build 0)  -->
<svg version="1.1" id="Layer_1" xmlns="http://www.w3.org/2000/svg" xmlns:xlink="http://www.w3.org/1999/xlink" x="0px" y="0px"
	 viewBox="0 0 373.65 305.03" style="enable-background:new 0 0 373.65 305.03;" xml:space="preserve">
<path d="M349.32,207.3c-0.45,0-0.91,0-1.93,0c2.32,2.13,4.94,1.7,6.96,2.6c2.17,0.97,4.16,1.45,6.49,1.21
	c0.59,0.91,1.22,1.72,1.68,2.61c1.1,2.16,2.85,3.33,5.13,4.06c2.11,0.68,4.09,1.73,5.65,2.41c0.75,1.22-1.4,1.55,0.07,2.41
	c0.13,0.08,0.31,0.35,0.29,0.37c-1.18,1.28-2.38,2.54-3.58,3.8c-6.43,1.07-12.8,2.48-19.36,2.64c-4.68,0.11-9.27-0.45-13.91-0.98
	c-4.37-0.5-8.88,0.13-13.42,0.26c-0.18,1.18-0.32,2.02-0.43,2.87c-0.26,1.87-0.13,3.74-1.06,5.56c-0.74,1.44-0.67,3.28-1.24,4.85
	c-0.52,1.44-1.16,2.97-2.18,4.05c-1.94,2.04-3.29,4.35-4.58,6.83c-1.9,3.66-4.17,7.14-6.39,10.62c-1.21,1.89-2.44,3.84-4,5.42
	c-3.78,3.85-6.97,8.17-10.14,12.5c-2.52,3.44-5.6,6.15-9.36,8.02c-9.18,4.57-18.61,8.63-28.71,10.52
	c-19.48,3.64-39.12,6.01-59.01,4.76c-14.82-0.93-29.11-4.16-42.85-9.93c-12.33-5.17-24.26-11.16-36.06-17.38
	c-8.12-4.28-15.77-9.39-23.33-14.63c-7.32-5.07-13.89-10.95-20.36-16.98c-7.4-6.9-14.09-14.52-18.94-23.38
	c-3.56-6.5-8.28-11.92-13.15-17.28c-7.81-8.61-15.52-17.29-22.43-26.66c-1.1-1.49-2.59-2.68-3.65-4.19
	c-1.17-1.66-1.98-3.56-3.07-5.28c-1.01-1.6-2.33-3.02-3.24-4.67c-0.65-1.18-1.13-2.59-1.19-3.92c-0.1-2.16-1-4-1.71-5.93
	c-1.55-4.23-2.37-8.61-2.92-13.06c-0.26-2.06-0.68-4.1-0.87-6.16c-0.61-6.61-0.19-13.19,0.94-19.71c0.33-1.91,0.34-3.75,0.01-5.67
	c-1.2-6.99-1-13.82,2.34-20.32c0.54-1.04,0.8-2.32,0.86-3.5c0.34-6.43,3.05-12.03,6.02-17.54c0.9-1.68,1.95-3.29,3.02-4.87
	c1.09-1.61,1.12-3.25,0.35-4.93c-0.93-2.05-2.01-4.04-2.88-6.12c-1.33-3.18-2.53-6.36-3.25-9.81c-0.54-2.58-2.31-4.99-3.86-7.25
	c-2.18-3.16-4.1-6.43-5.48-10.01c-0.3-0.78-0.44-1.62-0.6-2.23c1.87-2.84,5.35-2.53,7.41-4.66c0.39-0.4,1.75-0.26,2.42,0.1
	c2.14,1.13,4.25,2.37,6.22,3.78c4.34,3.11,9.01,5.84,12.2,10.32c0.07,0.09,0.31,0.06,0.69,0.12c0.16-0.37,0.56-0.82,0.48-1.18
	c-1.5-7.25-1.2-14.42,0.71-21.57C30.71,8,30.82,5.7,31.39,3.53C31.56,2.87,32.68,1.9,33.17,2c1.33,0.29,2.53,0.98,3.32-0.77
	c1.43,0.48,2-1.37,3.26-1.23c0.61,0.07,1.12,1.12,1.82,1.56c0.5,0.31,1.4,0.62,1.77,0.39c1.25-0.8,2.05-0.12,2.63,0.72
	c0.98,1.39,1.76,2.92,2.83,4.76c1.39-1.3,1.5-2.91,2.14-4.19c0.68-1.37,1.35-2.33,3.18-1.73c0.56,0.18,1.42-0.6,2.7-1.2
	c1.28,0.56,3.2,0.81,5.11,1.54c1.59,0.61,2.23,1.43,2.65,2.68c1.18,3.55,1.02,7.22,0.39,10.82c-0.9,5.12-2.02,10.21-3.06,15.31
	c-0.44,2.19-0.9,4.39-1.41,6.82c0.87,0.29,1.54,0.76,2.08,0.64c2.32-0.52,4.4,0.13,6.29,1.27c3.73,2.24,7.65,3.9,11.91,4.82
	c2.57,0.56,4.9,1.68,6.99,3.32c1.08,0.85,2.28,1.55,3.33,2.27c4.34-1.68,6.26-1.31,9.16,2.14c3.26,3.88,5.74,8.27,7.69,12.94
	c1.34,3.2,2.55,6.46,3.8,9.69c1.51,3.9,2.32,7.95,2.84,12.1c1.41,11.38,1.87,22.81,2.03,34.26c0.04,3.29,0.36,6.59,0.52,9.88
	c0.07,1.39,0.17,2.79,0.02,4.16c-1.15,10.48,0.38,20.75,2.46,30.97c0.17,0.84,0.42,1.71,0.84,2.45c2.65,4.68,5.09,9.52,8.16,13.91
	c1.95,2.78,4.79,4.98,7.39,7.25c3.79,3.3,7.67,6.52,11.63,9.63c7.02,5.5,14.88,8.48,23.93,9c8.89,0.52,17.66,0.28,26.46-0.93
	c9.01-1.24,17.51-4.16,25.98-7.27c13.33-4.9,26.58-10.02,40.12-14.36c5.84-1.87,11.8-2.9,17.86-3.34c4.57-0.33,9,0.75,13.19,2.44
	c8.99,3.62,15.95,9.65,20.51,18.3c0.16,0.3,0.36,0.59,0.58,0.85c0.1,0.12,0.3,0.16,0.63,0.34c7.31-3.4,13.71-8.84,21.77-11.79
	c-0.13,0.93-0.2,1.42-0.31,2.25c1.06-0.34,2.04-0.82,3.07-0.95c1.18-0.14,2.45-0.16,3.59,0.13c1.12,0.28,2.12,1.03,2.9,1.43
	c0.96,1.93-1.94,2.82-0.62,4.52c-0.47,1.43-0.93,2.85-1.47,4.51c1,0.54,2.08,1.04,3.04,1.71c0.29,0.2,0.24,0.89,0.35,1.36
	L349.32,207.3z M284.52,246.95c-0.16,0.01-0.34-0.02-0.49,0.03c-0.11,0.04-0.18,0.18-0.27,0.27c0.23-0.14,0.46-0.28,0.66-0.45
	c0.04-0.16,0.11-0.33,0.11-0.49c0-0.12-0.09-0.24-0.15-0.36C284.43,246.29,284.47,246.62,284.52,246.95z M86.95,206.57
	c0.3-0.35,0.66-0.66,0.86-1.06c0.08-0.17-0.19-0.51-0.31-0.78c-0.15,0.19-0.41,0.38-0.43,0.59c-0.05,0.46,0.01,0.93,0.05,1.41
	c-0.27,0.16-0.62,0.27-0.78,0.51c-0.13,0.19-0.06,0.54-0.02,0.82c0.01,0.07,0.33,0.18,0.36,0.15c0.19-0.22,0.43-0.45,0.47-0.71
	C87.17,207.2,87.02,206.88,86.95,206.57z M88.22,211.25c0.55,1.22,0.05,2.58,2.02,2.9c0.27-0.85,0.56-1.74,0.93-2.9
	C90.12,211.25,89.36,211.25,88.22,211.25z"/>
</svg>
