<?xml version="1.0" encoding="utf-8"?>
<!-- Generator: Adobe Illustrator 26.1.0, SVG Export Plug-In . SVG Version: 6.00 Build 0)  -->
<svg version="1.1" id="Layer_1" xmlns="http://www.w3.org/2000/svg" xmlns:xlink="http://www.w3.org/1999/xlink" x="0px" y="0px"
	 viewBox="0 0 402.82 347.56" style="enable-background:new 0 0 402.82 347.56;" xml:space="preserve">
<style type="text/css">
	.st0{fill:#231F20;}
</style>
<path class="st0" d="M402.81,265.87c0.04-0.07-0.09-0.24-0.1-0.26c-2.09,0.84-4.17,1.7-6.26,2.49c-9.87,3.72-19.41,7.96-26.54,16.18
	c-0.29,0.33-0.87,0.41-1.72,0.8c-0.24-5.69-1.53-10.81-1.74-16.11c-0.17-4.31-1.5-8.44-3.23-12.4c-0.57-1.31-1.27-2.59-1.69-3.95
	c-1.78-5.79-4.3-11.29-7.13-16.58c-5.23-9.78-9.35-20-12.99-30.44c-0.85-2.43-1.78-4.85-2.83-7.21c-2.91-6.56-5.88-13.09-8.85-19.62
	c-0.65-1.43-1.38-2.82-1.49-4.49c0.79-1.05,1.53-2.09,2.33-3.1c6.75-8.5,11.08-18.04,12.52-28.85c0.23-1.71,0.45-3.42,0.8-5.1
	c0.89-4.33,2.11-8.6,2.72-12.96c0.95-6.8,1.65-13.64,3.67-20.24c0.08-0.27,0.13-0.57,0.11-0.85c-0.23-3.19,0.77-6.24,1.08-9.37
	c0.5-5.13,1.14-10.26,1.61-15.39c0.33-3.56,0.58-7.14,0.66-10.72c0.08-3.43-0.12-6.87-0.13-10.3c-0.01-4.02,0.05-8.03,0.1-12.04
	c0.08-6.09-0.64-12-3.37-17.55c-0.6-1.22-0.93-2.57-1.4-3.89c-0.67,0.25-1.07,0.4-1.46,0.55c-0.9-0.38-1.54-0.78-1.21-2.09
	c0.74-2.91,0.64-2.93,0.34-3.73c-0.78-2.1-2.23-3.95-2.25-6.37c-0.01-0.72-0.77-1.51-1.33-2.14c-2.7-3.01-5.84-5.47-9.43-7.36
	c-5.31-2.79-10.85-3.51-16.67-2.04c-1.67,0.42-3.36,0.74-5.02,1.21c-2.88,0.82-5.79,1.6-8.61,2.61c-5.12,1.83-10.15,3.9-15.28,5.74
	c-6.21,2.23-12.26,4.82-18.1,7.91c-6.58,3.49-13.13,7.04-19.74,10.48c-2.65,1.38-5.19,3.06-8.26,3.52
	c-0.53,0.08-1.05,0.43-1.52,0.73c-4.81,3.11-9.9,5.71-15.07,8.15c-7.93,3.74-15.65,7.79-21.84,14.23c-2.04,2.12-3.64,4.33-3.7,7.48
	c-0.04,2.24-1.02,4.14-3.14,5.28c-0.61,0.33-1.11,0.87-1.66,1.31c-0.04,0.01-0.09,0.02-0.13,0.03c0.04-0.03,0.08-0.07,0.13-0.1
	c-1.53-0.61-2.76,0.01-3.98,0.9c-2.34,1.72-5.2,6.36-5.68,9.3c-0.25,1.5-0.16,3.13-1.6,4.34c-0.67-0.66-0.25-1.31-0.1-1.93
	c0.31-1.35-0.43-1.71-1.83-1.86c-0.77,4.2-1.53,8.24-2.24,12.28c-0.1,0.55-0.08,1.16,0.05,1.7c0.18,0.75,0.35,1.5,0.52,2.26
	c-0.3-0.11-0.6-0.21-0.91-0.3c-1.23-0.34-2.47-0.81-3.58-1.45c-6.21-3.58-12.87-6.21-19.45-9c-7.51-3.18-14.89-6.65-22.69-9.11
	c-2.31-0.73-4.63-1.62-6.71-2.83c-3.92-2.29-7.65-4.9-11.48-7.33c-2.65-1.68-5.17-3.69-8.03-4.88c-9.94-4.14-20.24-7.19-30.83-9.23
	c-1.13-0.22-2.26-0.39-3.4-0.53c-7.45-0.95-14.88-0.48-22.29,0.4c-3.3,0.39-6.46,1.35-9.47,2.73c-4.37,2-6.46,5.44-6.44,10.24
	c0,1.41-0.11,2.83-0.3,4.23c-0.23,1.7-0.58,3.39-0.91,5.08c-0.17,0.88-0.07,1.68,0.33,2.43C33.93,76.82,34,76.91,34.12,77
	c0.04,0.06,0.06,0.12,0.1,0.17c0.01-0.03,0.01-0.06,0.02-0.09c0.03,0.02,0.06,0.04,0.09,0.06c-0.28,0.43-0.81,0.86-0.81,1.3
	c-0.02,3.55-0.23,7.15,0.19,10.66c0.59,4.97,1.67,9.88,2.55,14.82c0.23,1.27,0.57,2.52,0.71,3.79c0.42,3.99,0.63,8,1.17,11.97
	c0.96,7.16,2.83,14.12,6.28,20.47c1.59,2.92,2.52,6.03,3.74,9.03c1.58,3.88,1.58,8.37,4.48,11.78c0.08,0.1,0.1,0.27,0.11,0.41
	c0.09,2.7,1.91,4.32,3.77,5.78c-0.29,0.82-0.52,1.47-0.58,1.65c1.23,3.19,2.3,5.95,3.33,8.62c1.86-0.02,2.21,0.25,1.97,1.39
	c-0.11,0.52-0.4,1.01-0.65,1.63c2.62,1.53,3.59,3.78,3.47,6.62c0.89,0.19,1.79,0.38,3.01,0.64c-1.02,1.94-1.96,3.73-0.7,5.47
	c1.88,2.58,2.04,5.55,2.35,8.53c0.44,4.28,0.77,8.57,1.39,12.83c0.9,6.11,1.59,12.23,1.56,18.41c-0.01,3.58-0.01,7.17,0.06,10.75
	c0.14,7.64-0.98,15.12-2.87,22.49c-0.25,0.98-0.57,1.84,0.37,2.76c0.37,0.37,0.38,1.49,0.1,2.02c-0.35,0.66-1.18,1.07-1.79,1.58
	c0.65,2.34,0.7,2.36-0.47,4.73c-0.48,0.96-0.09,1.64,0.35,2.38c0,0-0.13-0.17-0.13-0.18c0.37,1.35,1.33,2.48,1.03,4.08
	c-0.47,2.52-1.61,4.89-1.58,7.52c0,0.38-0.28,0.98-0.57,1.1c-1.47,0.58-1.06,1.72-1.15,2.85c-0.08,1.09-0.43,2.3-2.08,2.14
	c-1.02-0.1-1.26,0.92-1.13,1.46c0.75,3.12-0.4,5.58-2.42,7.95c-0.84,0-1.69,0.02-2.54-0.02c-5.02-0.24-10.03-0.51-15.05-0.75
	c-3.29-0.16-6.59-0.3-9.89-0.44c-2.72-0.12-5.45-0.12-8.17-0.37c-6.04-0.56-11.12,2.03-16.13,4.83c-1.72,0.96-3.36,2.13-4.03,4.17
	c-2.51,1.63-3.3,4.11-3.56,6.87c1.9,2.52,4.19,4.35,6.98,5.7c4.16,2.01,8.46,3.54,12.98,4.46c0.98,0.2,1.98,0.34,2.98,0.37
	c6.62,0.17,13.16,0.88,19.57,2.63c3.46,0.95,6.99,1.48,10.6,1.7c4.28,0.25,8.54,1.02,12.81,1.55c1.28,0.16,2.57,0.26,3.85,0.42
	c1.57,0.19,3.13,0.37,4.69,0.61c3.54,0.55,7.08,1.19,10.62,1.7c5.68,0.81,11.39,1.44,17.05,2.35c6.94,1.12,13.9,2.14,20.72,3.9
	c1.94,0.5,3.97,0.6,5.93,1.05c4.19,0.96,7.58-0.78,10.81-3.08c1.37-0.98,2.27-2.29,1.95-4.03c-0.28-1.58,0.3-2.74,1.15-3.98
	c1.82-2.68,2.39-5.79,2.89-8.76c-2.32-2-4.71-3.16-7.45-3.74c-1.67-0.35-3.26-1.1-4.9-1.62c-3.69-1.16-7.38-2.31-11.09-3.4
	c-1.77-0.53-3.58-0.97-5.39-1.35c-6.04-1.27-12.06-2.58-18.13-3.68c-3.1-0.57-6.27-0.71-9.4-1.1c-0.67-0.08-1.31-0.37-2.04-0.59
	c-0.33-1.95,0.23-3.57,0.68-5.21c1.94-7.21,3.91-14.41,4.93-21.83c0.27-1.97,0.9-3.91,1.56-5.79c1.94-5.55,4.76-10.75,6.3-16.47
	c1.76-6.49,4.32-12.76,5-19.56c0.22-2.21,0.82-4.47,2.03-6.51c0.63-1.07,0.96-2.41,1.08-3.66c0.53-5.57,0.92-11.15,1.41-16.72
	c0.08-0.96,0.39-1.9,0.65-3.12c2.64-0.16,5.18-0.35,7.72-0.46c2.06-0.09,3.89-0.55,5.14-2.38c0.15-0.21,0.66-0.26,1-0.25
	c3.59,0.1,6.14-1.74,8.27-4.38c1.13-0.26,2.14-0.69,2.41-2.02c0.08-0.41,0.06-1,0.32-1.18c0.39-0.27,1.32-0.48,1.42-0.33
	c1.04,1.6,1.77,1.06,2.45-0.25c0.26-0.51,0.45-0.87,1.23-0.74c0.62,0.11,1.35-0.23,2-0.47c4.85-1.82,9.38-4.27,13.76-7.02
	c2.79-1.75,5.52-3.59,8.35-5.29c9.86-5.94,18.77-13.12,27.05-21.08c4.75-4.57,9.48-9.18,13.21-14.66c2.79-4.1,6.09-7.86,8.24-12.39
	c1.39,0.82,2.85,1.54,4.38,2.16c4.26,1.72,8.29,3.93,11.97,6.73c4.8,3.64,9.69,7.15,14.49,10.79c2.51,1.9,5,3.86,7.34,5.96
	c5.45,4.88,10.81,9.85,16.19,14.8c6.19,5.7,13.09,10.29,21.08,13.05c6.05,2.1,12.05,2.71,17.51-1.77c0.7-0.58,1.69-0.81,2.68-1.27
	c0.42,1.08,0.8,1.84,1.04,2.65c1.48,5.09,2.91,10.19,4.38,15.29c0.95,3.3,1.77,6.65,2.92,9.88c2.07,5.8,4.41,11.52,6.53,17.3
	c2.97,8.07,5.52,16.28,8.1,24.49c3.09,9.86,6.67,19.55,12.06,28.46c1.79,2.96,2.59,6.31,3.69,9.78c-1.23,1.08-2.4,2.11-3.58,3.12
	c-2.41,2.06-4.64,4.31-6.13,7.13c-1.49,2.78-2.86,5.63-4.18,8.49c-2.04,4.43-3.89,9-7.15,12.67c-2.61,2.94-2.61,6.51-3.06,9.95
	c-0.19,1.48,0.57,3.06-0.25,4.59c-0.12,0.22,0.25,1.02,0.41,1.03c1.41,0.06,0.96,1.62,1.79,2.1c2.12-0.96,3.8-2.44,5.42-4.11
	c3.29-3.38,6.69-6.68,10.21-9.82c3.21-2.86,6.61-5.49,10.39-7.62c2.74-1.55,5.55-3.07,8.03-4.99c3.62-2.8,6.99-5.93,10.42-8.97
	c2.36-2.09,4.56-4.37,7-6.36c2.66-2.16,5.55-4.05,8.29-6.13c2.96-2.26,5.91-4.54,8.76-6.94c1.89-1.6,3.43-3.51,2.86-6.29
	c1.45-4.1,2.38-8.38,4.81-12.08c0.42-0.64,0.48-1.56,0.52-2.36c0.03-0.52-0.42-1.06-0.39-1.58c0.04-0.54,0.35-1.08,0.62-1.58
	c0.44-0.8-1.52-0.49-0.64-1.47C402.23,266.85,402.52,266.35,402.81,265.87z M347.54,24.77c0.45,1.62,0.9,3.24,1.4,5.03
	C346.82,28.57,346.62,27.84,347.54,24.77z M101.38,112.82c-0.06-0.17-0.12-0.34-0.17-0.51c0.24,0.02,0.48,0.02,0.7,0.08
	c0.08,0.02,0.11,0.2,0.16,0.31C101.84,112.74,101.61,112.78,101.38,112.82z M128.96,207.27c-0.09-0.09-0.18-0.18-0.27-0.27
	c0.18-0.17,0.34-0.38,0.56-0.5c0.05-0.03,0.27,0.25,0.41,0.39C129.42,207.02,129.19,207.14,128.96,207.27z M132.95,205.5
	c0.07-0.41,0.13-0.81,0.19-1.22c0.15,0.06,0.31,0.12,0.46,0.18C133.39,204.81,133.18,205.15,132.95,205.5z M169.43,104.62
	c-0.61,0.37-1.27,0.42-2.16-0.24c0.73-0.46,1.24-0.89,1.83-1.1c0.24-0.09,0.65,0.29,0.98,0.45
	C169.86,104.04,169.72,104.45,169.43,104.62z M170.11,94.56c-0.08-0.02-0.13-0.15-0.19-0.23c0.33,0.11,0.65,0.22,0.98,0.33
	C170.64,94.63,170.37,94.62,170.11,94.56z M174.79,96.91c-0.18-0.01-0.34-0.37-0.51-0.57c0.35-0.12,0.7-0.24,1-0.34
	c0.26,0.29,0.43,0.48,0.6,0.66C175.52,96.75,175.15,96.92,174.79,96.91z M178.21,98.16c-0.08-0.13-0.12-0.28-0.17-0.42
	c0.12,0.01,0.25-0.01,0.35,0.05c0.07,0.04,0.09,0.18,0.14,0.27C178.42,98.09,178.23,98.18,178.21,98.16z M198.38,68.06
	c1.45,0.09,1.02,1.2,1.92,2.07c-1.3,0.19-2.04,0.31-3.25,0.49C197.69,69.4,198.06,68.69,198.38,68.06z M195.36,71.81
	c0.02-0.05,0.18-0.04,0.28-0.05c0.01,0.1,0.02,0.21,0.03,0.32c-0.09,0.01-0.19,0.02-0.28,0.04
	C195.37,72.01,195.32,71.89,195.36,71.81z M187.65,78.05l-0.29,0.21l0-0.35L187.65,78.05z M180.92,99.53
	c0.03,0.12,0.06,0.24,0.1,0.36c-0.2-0.13-0.41-0.25-0.61-0.39C180.57,99.5,180.75,99.51,180.92,99.53z M277.32,162.71
	c-0.05-0.12-0.14-0.24-0.13-0.36c0.01-0.08,0.16-0.14,0.24-0.21c0.1,0.08,0.19,0.17,0.29,0.25
	C277.59,162.5,277.46,162.61,277.32,162.71z M393.84,290.84c0.57-2.85,0.58-2.88,3-4.38C395.97,287.74,395.08,289.04,393.84,290.84z
	 M399.5,273.58c-0.02,0.03-0.54-0.28-0.53-0.3c0.2-0.44,0.42-0.86,0.69-1.26c0.03-0.04,0.39,0.15,0.73,0.3
	C400.09,272.76,399.82,273.19,399.5,273.58z"/>
</svg>
